<?xml version="1.0" encoding="utf-8"?>
<!-- Generator: Adobe Illustrator 16.0.3, SVG Export Plug-In . SVG Version: 6.00 Build 0)  -->
<!DOCTYPE svg PUBLIC "-//W3C//DTD SVG 1.1//EN" "http://www.w3.org/Graphics/SVG/1.1/DTD/svg11.dtd">
<svg version="1.1" id="Layer_1" xmlns="http://www.w3.org/2000/svg" xmlns:xlink="http://www.w3.org/1999/xlink" x="0px" y="0px"
	 width="670.671px" height="841.89px" viewBox="0 0 670.671 841.89" enable-background="new 0 0 670.671 841.89"
	 xml:space="preserve">
<path fill="#FFFFFF" d="M143.011,266.344c20.059-0.587,34.514-0.885,43.363-0.885c25.07-0.29,46.904,3.982,65.486,12.832
	c43.951,21.536,65.93,67.699,65.93,138.496c0,28.616-4.135,53.693-12.389,75.223c-19.768,51.037-59.887,75.954-120.354,74.779
	c-6.492,0-14.457-0.152-23.895-0.443c-40.709-0.594-61.215-0.885-61.504-0.885V266.787
	C108.497,266.787,122.948,266.642,143.011,266.344z M209.825,513.691c30.678-9.438,46.018-41.594,46.018-96.461
	c0-7.08-0.297-14.008-0.883-20.797c-4.723-54.273-27.586-81.417-68.586-81.417h-28.318V517.23h27.434
	C194.339,517.23,202.448,516.055,209.825,513.691z"/>
<path fill="#FFFFFF" d="M595.313,508.381c-21.238,42.479-56.193,63.717-104.867,63.717c-29.5,0-54.279-7.965-74.336-23.894
	c-32.742-26.549-49.115-70.202-49.115-130.974c0-37.459,7.08-69.47,21.238-96.019c21.828-40.708,56.195-61.063,103.1-61.063
	c28.607,0,52.654,7.674,72.123,23.009c33.629,26.259,50.443,70.797,50.443,133.629C613.899,452.186,607.704,482.717,595.313,508.381
	z M432.925,461.479c8.553,39.822,27.725,59.734,57.521,59.734c10.621,0,20.203-2.801,28.762-8.407
	c21.828-15.632,32.744-47.491,32.744-95.575c0-16.814-1.48-32.149-4.426-46.019c-8.262-40.113-26.99-60.178-56.193-60.178
	c-11.506,0-21.834,3.396-30.975,10.178c-20.949,16.523-31.416,48.382-31.416,95.575
	C428.942,433.014,430.271,447.914,432.925,461.479z"/>
<g>
	<path fill="#1A1A1A" d="M406.979,428.532c0,1.349-0.281,2.508-0.842,3.478c-0.563,0.97-1.336,1.765-2.32,2.382
		c-0.982,0.619-2.129,1.075-3.436,1.37c-1.307,0.296-2.691,0.443-4.152,0.443h-14.713v-29.933h17.369
		c1.039,0,1.98,0.226,2.824,0.675s1.561,1.032,2.15,1.749s1.047,1.532,1.371,2.445c0.322,0.914,0.484,1.849,0.484,2.804
		c0,1.405-0.359,2.747-1.076,4.026s-1.791,2.241-3.225,2.888c1.715,0.506,3.07,1.385,4.068,2.635
		C406.481,424.745,406.979,426.424,406.979,428.532z M389.737,413.271v4.596h5.607c0.563,0,1.074-0.154,1.539-0.464
		c0.463-0.309,0.695-0.928,0.695-1.855c0-0.814-0.197-1.397-0.59-1.749c-0.395-0.352-0.857-0.527-1.393-0.527H389.737z
		 M398.632,426.846c0-0.73-0.195-1.342-0.59-1.834c-0.393-0.491-0.898-0.737-1.518-0.737h-6.787v5.017h6.492
		c0.674,0,1.244-0.211,1.707-0.633C398.401,428.237,398.632,427.633,398.632,426.846z"/>
	<path fill="#1A1A1A" d="M410.604,436.205v-29.933h13.744c1.461,0,2.811,0.303,4.047,0.906c1.236,0.604,2.299,1.392,3.184,2.361
		s1.58,2.08,2.086,3.33c0.506,1.251,0.76,2.509,0.76,3.773c0,1.743-0.379,3.366-1.139,4.869c-0.758,1.504-1.813,2.733-3.162,3.688
		l6.324,11.004h-9.275l-5.27-9.19h-3.076v9.19H410.604z M418.827,419.848h5.184c0.506,0,0.977-0.281,1.414-0.844
		c0.434-0.562,0.652-1.349,0.652-2.36c0-1.04-0.252-1.834-0.758-2.382s-1.012-0.822-1.518-0.822h-4.975V419.848z"/>
	<path fill="#1A1A1A" d="M446.819,406.272h7.504l10.371,29.933h-8.348l-1.813-5.86h-7.969l-1.771,5.86h-8.389L446.819,406.272z
		 M453.226,424.864l-2.654-9.274l-2.783,9.274H453.226z"/>
	<path fill="#1A1A1A" d="M475.401,421.491v14.714h-8.221v-29.933h6.408l12.016,15.219v-15.219h8.221v29.933h-6.535L475.401,421.491z
		"/>
	<path fill="#1A1A1A" d="M498.968,436.205v-29.933h11.51c2.473,0,4.65,0.394,6.533,1.181s3.457,1.854,4.723,3.204
		c1.264,1.349,2.219,2.93,2.867,4.742c0.645,1.813,0.969,3.746,0.969,5.797c0,2.276-0.357,4.336-1.074,6.177
		s-1.736,3.414-3.057,4.722c-1.322,1.307-2.91,2.318-4.764,3.035c-1.855,0.717-3.922,1.075-6.197,1.075H498.968z M517.222,421.196
		c0-1.152-0.154-2.206-0.463-3.162c-0.311-0.955-0.752-1.771-1.328-2.444c-0.576-0.675-1.285-1.202-2.129-1.581
		c-0.844-0.38-1.785-0.569-2.824-0.569h-3.289v15.599h3.289c1.066,0,2.023-0.196,2.865-0.591c0.844-0.393,1.553-0.94,2.129-1.644
		c0.576-0.702,1.014-1.531,1.309-2.487C517.075,423.361,517.222,422.321,517.222,421.196z"/>
	<path fill="#1A1A1A" d="M529.151,436.205v-29.933h8.223v29.933H529.151z"/>
	<path fill="#1A1A1A" d="M550.737,421.491v14.714h-8.221v-29.933h6.408l12.016,15.219v-15.219h8.221v29.933h-6.535L550.737,421.491z
		"/>
	<path fill="#1A1A1A" d="M594.624,433.718c-2.137,1.799-4.596,2.698-7.377,2.698c-1.939,0-3.795-0.345-5.566-1.033
		c-1.77-0.688-3.316-1.693-4.637-3.015c-1.322-1.32-2.375-2.937-3.162-4.848s-1.18-4.09-1.18-6.535c0-2.107,0.393-4.068,1.18-5.881
		s1.869-3.387,3.246-4.722c1.377-1.334,3-2.389,4.869-3.162c1.869-0.772,3.885-1.159,6.051-1.159c1.348,0,2.641,0.147,3.877,0.442
		c1.238,0.296,2.383,0.731,3.438,1.308c1.053,0.576,2.002,1.265,2.846,2.065c0.842,0.801,1.531,1.707,2.064,2.72l-6.113,4.679
		c-0.59-1.18-1.475-2.129-2.654-2.846c-1.182-0.716-2.432-1.074-3.752-1.074c-0.984,0-1.885,0.196-2.699,0.59
		s-1.518,0.942-2.107,1.645s-1.055,1.538-1.391,2.508c-0.338,0.97-0.506,2.031-0.506,3.184c0,1.18,0.168,2.248,0.506,3.203
		c0.336,0.956,0.807,1.778,1.412,2.467c0.604,0.688,1.328,1.223,2.17,1.602c0.844,0.38,1.785,0.569,2.824,0.569
		c2.389,0,4.498-0.983,6.324-2.951h-5.186v-5.902h12.311v15.937h-6.787V433.718z"/>
</g>
<g>
	<rect x="45.862" y="565.041" width="222.359" height="0.84"/>
	<rect x="45.862" y="423.916" width="131.17" height="0.84"/>
	<rect x="45.862" y="266.367" width="222.359" height="0.84"/>
	<rect x="45.862" y="314.535" width="222.359" height="0.84"/>
</g>
<g>
	<path fill="#1A1A1A" d="M65.44,275.072l0.178,8.855h-1.24l-0.842-3.144c-0.574-2.214-1.814-4.561-4.869-4.561h-8.545
		c-3.057,0-4.34,2.347-4.916,4.561l-0.84,3.144h-1.24l0.221-8.855H65.44z M47.952,301.638v-1.151h11.512
		c0.885,0,1.15,0.266,1.15,1.151H47.952z M52.159,301.638v-26.565h4.25v26.565H52.159z"/>
	<path fill="#1A1A1A" d="M77.481,301.814l-8.104-17.887h-2.08v-1.151h8.988v1.151h-2.924l6.199,14.478h-0.574l5.799-14.478h-3.232
		v-1.151h6.73c0,1.063-0.266,1.151-1.107,1.151c-0.93,0-1.195,0.221-1.639,1.461l-6.551,16.382
		c-2.658,6.597-5.227,8.324-8.059,8.324c-2.258,0-3.986-1.24-3.986-2.834c0-0.886,0.621-1.638,1.771-1.638
		c2.303,0,1.461,3.055,3.055,3.055C73.806,308.678,75.399,306.817,77.481,301.814z"/>
	<path fill="#1A1A1A" d="M99.438,308.943c0.885,0,1.105,0.222,1.105,1.106H89.565v-1.106c2.303,0,3.143-0.311,3.143-2.612v-22.448
		h-3.143v-1.106h6.641l0.221,4.693c1.24-3.631,4.295-5.181,7.262-5.181c5.047,0,7.527,4.472,7.527,9.431
		c0,6.863-4.648,10.361-9.166,10.361c-1.992,0-4.205-0.798-5.533-2.259v9.121H99.438z M96.472,293.048
		c0,5.668,2.391,7.926,5.137,7.926c3.363,0,5.4-3.1,5.4-8.767c0-5.048-1.639-8.059-4.914-8.059
		C98.774,284.148,96.472,287.558,96.472,293.048z"/>
	<path fill="#1A1A1A" d="M134.015,292.118c0,6.243-4.736,9.963-9.785,9.963c-5.002,0-9.65-3.676-9.65-10.096
		c0-6.154,4.781-9.696,9.828-9.696S134.015,285.787,134.015,292.118z M124.362,300.974c3.896,0,5.402-3.587,5.402-8.988
		c0-5.136-1.461-8.59-5.49-8.59c-3.896,0-5.49,3.454-5.49,8.768C118.784,297.432,120.378,300.974,124.362,300.974z"/>
	<path fill="#1A1A1A" d="M154.024,289.329c0,4.339-3.676,7.261-8.104,7.261c-3.631,0-8.059-3.01-8.059-7.217
		c0-4.339,3.721-7.084,8.148-7.084C150.481,282.289,154.024,285.034,154.024,289.329z M144.062,295.438l1.859,1.151l-4.072-0.044
		c-1.416,0-1.992,0.753-1.992,1.461c0,1.019,0.664,1.639,1.947,1.683l8.279,0.177c3.896,0.089,5.668,1.86,5.668,4.605
		c0,2.833-2.834,5.623-9.697,5.623c-5.047,0-7.525-2.081-7.525-4.428c0-1.151,0.664-2.479,1.992-3.586l1.018,0.486
		c-0.93,0.93-1.506,1.948-1.506,2.878c0,1.859,1.949,3.498,6.021,3.498c3.941,0,7.572-1.151,7.572-3.276
		c0-1.728-1.24-2.17-3.807-2.214l-7.262-0.089c-3.1-0.044-4.473-2.258-4.473-4.25c0-1.815,1.107-3.676,3.896-3.676H144.062z
		 M145.966,295.483c3.232,0,4.117-2.612,4.117-6.11c0-3.497-0.885-5.978-4.117-5.978s-4.162,2.48-4.162,5.978
		C141.804,292.871,142.688,295.483,145.966,295.483z M151.81,286.894l-1.549-0.797c-0.043-0.221-0.043-0.442-0.043-0.664
		c0-3.586,2.346-5.534,4.383-5.534c1.682,0,2.434,1.151,2.434,2.169c0,0.753-0.486,1.461-1.373,1.461
		c-1.018,0-1.105-1.15-2.301-1.15c-1.107,0-1.992,1.195-1.992,2.612C151.368,285.787,151.546,286.362,151.81,286.894z"/>
	<path fill="#1A1A1A" d="M169.784,301.638h-11.246v-1.107c2.258,0,3.143-0.265,3.143-2.611v-14.036h-3.143v-1.106h6.686l0.266,5.711
		v12.043h3.188C169.562,300.53,169.784,300.752,169.784,301.638z M172.661,287.115c-2.08,0-1.859-2.656-3.32-2.656
		c-1.063,0-3.896,2.435-3.896,7.394l-0.311-4.029c1.107-3.542,4.162-5.313,6.553-5.313c1.639,0,2.967,0.841,2.967,2.568
		C174.653,286.142,173.901,287.115,172.661,287.115z"/>
	<path fill="#1A1A1A" d="M181.825,302.081c-2.969,0-5.535-1.684-5.535-5.137c0-4.339,4.207-6.154,12.441-6.154v1.239
		c-5.314,0-8.502,0.664-8.502,4.207c0,2.789,1.328,4.029,3.232,4.029c1.949,0,4.162-1.595,4.871-4.561v-7.704
		c0-3.1-1.418-4.605-3.984-4.605c-4.164,0-2.17,4.517-5.004,4.517c-1.24,0-1.904-0.797-1.904-1.771c0-1.904,2.348-3.853,7.35-3.853
		c4.738,0,7.307,2.126,7.307,6.774v9.342c0,1.461,0.398,2.259,1.15,2.259c0.885,0,1.506-1.019,1.682-3.232l1.152,0.044
		c-0.133,2.967-1.152,4.605-3.939,4.605c-2.525,0-3.631-1.86-3.809-4.561h0.221C187.845,300.221,184.88,302.081,181.825,302.081z"/>
	<path fill="#1A1A1A" d="M207.28,308.943c0.887,0,1.107,0.222,1.107,1.106h-10.98v-1.106c2.303,0,3.145-0.311,3.145-2.612v-22.448
		h-3.145v-1.106h6.643l0.221,4.693c1.24-3.631,4.295-5.181,7.26-5.181c5.049,0,7.527,4.472,7.527,9.431
		c0,6.863-4.648,10.361-9.164,10.361c-1.992,0-4.207-0.798-5.535-2.259v9.121H207.28z M204.313,293.048
		c0,5.668,2.393,7.926,5.137,7.926c3.365,0,5.402-3.1,5.402-8.767c0-5.048-1.639-8.059-4.914-8.059
		C206.616,284.148,204.313,287.558,204.313,293.048z"/>
	<path fill="#1A1A1A" d="M232.116,301.638h-10.051v-1.107c2.258,0,3.143-0.265,3.143-2.611v-23.954h-3.143v-1.106h6.951v15.541
		v12.131h1.992C231.894,300.53,232.116,300.752,232.116,301.638z M241.724,300.53h2.037c0.885,0,1.105,0.222,1.105,1.107h-9.74
		v-1.107c2.258,0,2.791-0.31,2.791-2.611v-8.59c0-3.276-1.727-4.959-3.986-4.959c-2.168,0-4.914,1.992-4.914,6.376l-0.088-3.675
		c1.061-3.1,4.072-4.782,6.906-4.782c3.1,0,5.889,2.214,5.889,7.173V300.53z"/>
	<path fill="#1A1A1A" d="M256.419,301.814l-8.102-17.887h-2.082v-1.151h8.988v1.151h-2.922l6.197,14.478h-0.574l5.801-14.478h-3.232
		v-1.151h6.729c0,1.063-0.264,1.151-1.107,1.151c-0.928,0-1.193,0.221-1.637,1.461l-6.553,16.382
		c-2.656,6.597-5.225,8.324-8.059,8.324c-2.258,0-3.984-1.24-3.984-2.834c0-0.886,0.619-1.638,1.771-1.638
		c2.303,0,1.459,3.055,3.055,3.055C252.743,308.678,254.339,306.817,256.419,301.814z"/>
</g>
<rect x="487.581" y="470.787" fill="#1A1A1A" width="4.666" height="149.334"/>
<rect x="487.581" y="221.769" fill="#1A1A1A" width="4.666" height="149.334"/>
</svg>
