<?xml version="1.0" encoding="utf-8"?>
<!-- Generator: Adobe Illustrator 16.0.3, SVG Export Plug-In . SVG Version: 6.00 Build 0)  -->
<!DOCTYPE svg PUBLIC "-//W3C//DTD SVG 1.1//EN" "http://www.w3.org/Graphics/SVG/1.1/DTD/svg11.dtd">
<svg version="1.1" id="Layer_1" xmlns="http://www.w3.org/2000/svg" xmlns:xlink="http://www.w3.org/1999/xlink" x="0px" y="0px"
	 width="670.671px" height="841.89px" viewBox="0 0 670.671 841.89" enable-background="new 0 0 670.671 841.89"
	 xml:space="preserve">
<path fill="#FFFFFF" d="M127.46,565.461L54.451,266.787h60.62l34.956,162.832c2.06,9.445,4.425,26.846,7.08,52.213
	c5.013-30.088,8.255-47.933,9.734-53.539l38.054-150.444l56.195-1.77l38.938,153.54c2.357,9.147,5.455,26.259,9.292,51.328
	c3.831-25.954,6.638-43.508,8.407-52.654l33.628-161.506h57.08l-76.548,298.674h-50.001l-42.478-161.948
	c-2.067-7.667-4.723-19.469-7.965-35.398c-2.365,12.39-5.164,24.634-8.407,36.727l-43.806,160.62H127.46z"/>
<path fill="#FFFFFF" d="M611.308,565.461H449.361V266.787h157.965v48.673h-99.559v72.566h86.727v47.788h-86.727v80.974h103.541
	V565.461z"/>
<g>
	<g>
		<path fill="#1A1A1A" d="M120.842,389.243h6.685c1.717,0,3.29,0.209,4.718,0.627c1.427,0.418,2.651,1.079,3.673,1.984
			s1.816,2.066,2.385,3.481c0.568,1.416,0.853,3.122,0.853,5.118s-0.279,3.714-0.836,5.152c-0.557,1.439-1.34,2.624-2.35,3.552
			c-1.01,0.929-2.205,1.613-3.586,2.054c-1.381,0.441-2.884,0.662-4.509,0.662h-7.033V389.243z M127.178,407.069
			c0.813,0,1.578-0.099,2.298-0.296c0.719-0.197,1.34-0.54,1.863-1.027c0.522-0.487,0.934-1.16,1.236-2.02
			c0.301-0.858,0.453-1.949,0.453-3.272s-0.151-2.402-0.453-3.238c-0.302-0.835-0.714-1.484-1.236-1.949
			c-0.522-0.464-1.144-0.783-1.863-0.958c-0.72-0.174-1.485-0.261-2.298-0.261h-0.348v13.021H127.178z"/>
		<path fill="#1A1A1A" d="M141.801,403.17c0-1.416,0.238-2.687,0.713-3.813s1.103-2.083,1.88-2.872
			c0.777-0.789,1.665-1.393,2.664-1.811c0.998-0.418,2.031-0.627,3.099-0.627c1.276,0,2.39,0.221,3.342,0.661
			c0.951,0.441,1.741,1.045,2.367,1.811c0.627,0.767,1.097,1.66,1.41,2.681c0.313,1.022,0.47,2.113,0.47,3.273
			c0,0.534-0.029,1.01-0.087,1.427c-0.059,0.418-0.111,0.731-0.157,0.94h-9.923c0.279,1.114,0.777,1.88,1.497,2.298
			c0.719,0.418,1.567,0.627,2.542,0.627c0.604,0,1.189-0.087,1.758-0.262c0.568-0.174,1.167-0.435,1.793-0.783l1.95,3.552
			c-0.952,0.673-2.002,1.178-3.151,1.515c-1.149,0.336-2.21,0.505-3.186,0.505c-1.277,0-2.46-0.204-3.551-0.609
			c-1.091-0.406-2.037-0.998-2.837-1.776c-0.801-0.777-1.434-1.734-1.897-2.872C142.033,405.897,141.801,404.609,141.801,403.17z
			 M152.664,401.22c0-0.742-0.168-1.369-0.504-1.88c-0.337-0.51-0.958-0.766-1.863-0.766c-0.673,0-1.259,0.197-1.758,0.592
			c-0.5,0.395-0.842,1.079-1.027,2.054H152.664z"/>
		<path fill="#1A1A1A" d="M162.273,406.164c1.578,1.161,2.994,1.74,4.248,1.74c0.626,0,1.073-0.087,1.34-0.261
			c0.267-0.174,0.4-0.436,0.4-0.783c0-0.231-0.093-0.436-0.279-0.609c-0.186-0.174-0.435-0.336-0.749-0.487
			c-0.313-0.15-0.667-0.296-1.062-0.436c-0.395-0.139-0.813-0.301-1.253-0.487c-0.511-0.209-1.027-0.458-1.549-0.748
			c-0.522-0.29-0.993-0.645-1.41-1.063c-0.418-0.418-0.761-0.899-1.027-1.444c-0.267-0.546-0.4-1.178-0.4-1.897
			c0-0.858,0.168-1.637,0.505-2.333s0.806-1.288,1.41-1.775c0.604-0.487,1.329-0.864,2.176-1.132c0.847-0.267,1.781-0.4,2.802-0.4
			c1.439,0,2.675,0.238,3.708,0.714s1.933,1.004,2.698,1.584l-2.646,3.552c-0.626-0.465-1.242-0.824-1.845-1.08
			c-0.604-0.255-1.172-0.383-1.706-0.383c-1.021,0-1.532,0.325-1.532,0.975c0,0.232,0.087,0.43,0.261,0.592
			c0.174,0.163,0.412,0.313,0.713,0.453s0.65,0.273,1.045,0.4c0.394,0.128,0.812,0.273,1.253,0.436
			c0.511,0.186,1.033,0.417,1.567,0.696c0.534,0.278,1.015,0.621,1.445,1.026c0.429,0.406,0.777,0.895,1.044,1.463
			c0.267,0.568,0.4,1.248,0.4,2.036c0,0.813-0.163,1.573-0.487,2.281c-0.325,0.708-0.801,1.322-1.427,1.845
			c-0.627,0.522-1.405,0.929-2.333,1.219s-1.997,0.436-3.203,0.436c-1.114,0-2.292-0.222-3.534-0.662
			c-1.242-0.44-2.315-1.032-3.221-1.775L162.273,406.164z"/>
		<path fill="#1A1A1A" d="M179.75,392.307c-0.975,0-1.776-0.278-2.402-0.835c-0.627-0.558-0.94-1.276-0.94-2.159
			c0-0.882,0.313-1.602,0.94-2.158c0.626-0.557,1.427-0.836,2.402-0.836c0.975,0,1.775,0.279,2.402,0.836
			c0.626,0.557,0.94,1.276,0.94,2.158c0,0.883-0.313,1.602-0.94,2.159C181.525,392.028,180.725,392.307,179.75,392.307z
			 M176.756,394.466h5.988v17.408h-5.988V394.466z"/>
		<path fill="#1A1A1A" d="M185.808,414.729c0-1.369,0.812-2.483,2.437-3.342v-0.14c-0.464-0.325-0.847-0.719-1.149-1.184
			c-0.302-0.464-0.453-1.067-0.453-1.811c0-0.604,0.174-1.195,0.522-1.775s0.824-1.079,1.427-1.497v-0.14
			c-0.626-0.418-1.178-1.01-1.654-1.775c-0.476-0.767-0.713-1.659-0.713-2.681c0-1.067,0.209-2.002,0.626-2.803
			c0.418-0.801,0.975-1.463,1.671-1.984c0.696-0.522,1.491-0.911,2.385-1.167c0.893-0.255,1.816-0.383,2.768-0.383
			c1.021,0,1.95,0.14,2.785,0.418h6.476v4.317h-2.507c0.069,0.209,0.133,0.476,0.191,0.801c0.058,0.325,0.087,0.661,0.087,1.01
			c0,1.021-0.186,1.897-0.557,2.628c-0.372,0.731-0.87,1.329-1.497,1.793c-0.626,0.465-1.37,0.807-2.228,1.027
			c-0.859,0.221-1.776,0.331-2.75,0.331c-0.581,0-1.23-0.081-1.95-0.244c-0.186,0.163-0.302,0.308-0.348,0.436
			c-0.047,0.128-0.07,0.319-0.07,0.574c0,0.396,0.186,0.668,0.557,0.818c0.371,0.151,0.998,0.227,1.88,0.227h2.611
			c2.182,0,3.87,0.354,5.066,1.062c1.195,0.708,1.793,1.862,1.793,3.464c0,0.952-0.238,1.816-0.714,2.594
			c-0.476,0.777-1.149,1.445-2.019,2.002c-0.871,0.558-1.927,0.986-3.168,1.289c-1.242,0.301-2.641,0.452-4.195,0.452
			c-0.999,0-1.938-0.075-2.82-0.227c-0.882-0.151-1.654-0.4-2.315-0.748c-0.662-0.349-1.19-0.796-1.584-1.341
			C186.004,416.185,185.808,415.518,185.808,414.729z M190.682,413.754c0,0.557,0.313,0.963,0.94,1.219
			c0.626,0.255,1.45,0.383,2.472,0.383c0.975,0,1.787-0.146,2.438-0.436c0.649-0.29,0.975-0.679,0.975-1.166
			c0-0.465-0.204-0.755-0.609-0.87c-0.406-0.117-0.98-0.175-1.723-0.175h-1.358c-0.696,0-1.225-0.017-1.584-0.052
			c-0.36-0.035-0.667-0.087-0.923-0.157c-0.209,0.209-0.366,0.406-0.47,0.593C190.734,413.278,190.682,413.498,190.682,413.754z
			 M193.676,402.821c0.557,0,1.01-0.196,1.358-0.592c0.348-0.395,0.522-1.01,0.522-1.845c0-0.813-0.174-1.41-0.522-1.793
			c-0.348-0.384-0.801-0.575-1.358-0.575s-1.01,0.191-1.358,0.575c-0.348,0.383-0.522,0.98-0.522,1.793
			c0,0.835,0.174,1.45,0.522,1.845C192.667,402.625,193.119,402.821,193.676,402.821z"/>
		<path fill="#1A1A1A" d="M205.792,394.466h4.874l0.418,2.089h0.139c0.696-0.673,1.491-1.259,2.385-1.758s1.933-0.749,3.116-0.749
			c1.903,0,3.284,0.645,4.143,1.933c0.858,1.288,1.288,3.012,1.288,5.17v10.724h-5.988v-9.958c0-1.114-0.139-1.856-0.418-2.228
			c-0.278-0.371-0.72-0.558-1.323-0.558c-0.557,0-1.021,0.116-1.393,0.349c-0.372,0.232-0.79,0.557-1.253,0.975v11.42h-5.988
			V394.466z"/>
	</g>
</g>
<g>
	<g>
		<path fill="#1A1A1A" d="M76.605,350.192c-0.998-0.186-2.002-0.464-3.011-0.836c-1.01-0.37-2.025-0.823-3.047-1.357
			c-0.998,0.674-2.101,1.207-3.307,1.602c-1.208,0.395-2.542,0.592-4.004,0.592c-1.323,0-2.472-0.18-3.447-0.54
			c-0.975-0.359-1.782-0.841-2.42-1.444c-0.639-0.604-1.12-1.3-1.445-2.089c-0.325-0.789-0.487-1.613-0.487-2.472
			c0-0.789,0.104-1.503,0.313-2.142c0.209-0.638,0.499-1.207,0.871-1.706c0.371-0.499,0.801-0.951,1.288-1.357
			s0.998-0.771,1.532-1.097c-0.441-0.789-0.778-1.567-1.01-2.333c-0.232-0.766-0.348-1.485-0.348-2.159
			c0-0.812,0.15-1.589,0.453-2.332c0.301-0.743,0.736-1.393,1.306-1.95c0.568-0.557,1.253-1.003,2.054-1.34
			c0.8-0.337,1.711-0.505,2.733-0.505c1.811,0,3.261,0.481,4.352,1.444c1.091,0.964,1.636,2.27,1.636,3.917
			c0,0.743-0.128,1.416-0.383,2.02c-0.256,0.604-0.592,1.161-1.01,1.671c-0.418,0.511-0.9,0.981-1.445,1.41
			c-0.546,0.43-1.109,0.83-1.688,1.201c0.58,0.604,1.207,1.189,1.88,1.759c0.673,0.568,1.369,1.108,2.089,1.618
			c0.534-0.696,1.01-1.462,1.428-2.298c0.417-0.835,0.754-1.74,1.009-2.716h5.432c-0.395,1.323-0.894,2.601-1.497,3.83
			c-0.604,1.23-1.335,2.426-2.193,3.586c1.369,0.674,2.623,1.08,3.76,1.219L76.605,350.192z M61.077,343.299
			c0,0.696,0.261,1.266,0.783,1.706c0.522,0.441,1.236,0.661,2.141,0.661c0.673,0,1.416-0.186,2.229-0.557
			c-1.579-1.254-2.948-2.564-4.108-3.935c-0.325,0.325-0.581,0.662-0.766,1.01C61.169,342.533,61.077,342.904,61.077,343.299z
			 M62.992,332.854c0,0.72,0.208,1.475,0.626,2.264c0.719-0.418,1.311-0.858,1.776-1.323c0.464-0.464,0.696-1.032,0.696-1.706
			c0-0.975-0.441-1.462-1.323-1.462c-0.464,0-0.876,0.186-1.236,0.557C63.171,331.555,62.992,332.111,62.992,332.854z"/>
	</g>
</g>
<g>
	<g>
		<path fill="#1A1A1A" d="M57.178,358.782h6.685c1.717,0,3.29,0.209,4.718,0.627c1.427,0.418,2.651,1.079,3.673,1.984
			s1.816,2.066,2.385,3.481c0.568,1.416,0.853,3.122,0.853,5.118s-0.279,3.714-0.836,5.152c-0.557,1.439-1.34,2.624-2.35,3.552
			c-1.01,0.929-2.205,1.613-3.586,2.054c-1.381,0.441-2.884,0.662-4.509,0.662h-7.033V358.782z M63.514,376.608
			c0.813,0,1.578-0.099,2.298-0.296c0.719-0.197,1.34-0.54,1.863-1.027c0.522-0.487,0.934-1.16,1.236-2.02
			c0.301-0.858,0.453-1.949,0.453-3.272s-0.151-2.402-0.453-3.238c-0.302-0.835-0.714-1.484-1.236-1.949
			c-0.522-0.464-1.144-0.783-1.863-0.958c-0.72-0.174-1.485-0.261-2.298-0.261h-0.348v13.021H63.514z"/>
		<path fill="#1A1A1A" d="M78.137,372.709c0-1.439,0.238-2.728,0.713-3.865c0.476-1.137,1.114-2.094,1.915-2.872
			c0.801-0.777,1.724-1.369,2.768-1.775s2.124-0.609,3.238-0.609s2.188,0.203,3.221,0.609c1.032,0.406,1.95,0.998,2.75,1.775
			c0.801,0.778,1.445,1.735,1.932,2.872c0.487,1.138,0.731,2.426,0.731,3.865s-0.244,2.728-0.731,3.864
			c-0.487,1.138-1.131,2.095-1.932,2.872c-0.801,0.778-1.718,1.37-2.75,1.776c-1.033,0.405-2.106,0.609-3.221,0.609
			s-2.193-0.204-3.238-0.609c-1.044-0.406-1.967-0.998-2.768-1.776c-0.801-0.777-1.439-1.734-1.915-2.872
			C78.375,375.437,78.137,374.148,78.137,372.709z M84.265,372.709c0,1.323,0.191,2.373,0.575,3.15
			c0.383,0.778,1.027,1.167,1.932,1.167s1.549-0.389,1.932-1.167c0.383-0.777,0.575-1.827,0.575-3.15s-0.191-2.373-0.575-3.151
			c-0.383-0.777-1.027-1.166-1.932-1.166s-1.549,0.389-1.932,1.166C84.456,370.336,84.265,371.386,84.265,372.709z"/>
		<path fill="#1A1A1A" d="M97.634,372.709c0-1.439,0.255-2.728,0.766-3.865c0.51-1.137,1.195-2.094,2.054-2.872
			c0.858-0.777,1.851-1.369,2.977-1.775c1.125-0.406,2.303-0.609,3.534-0.609c1.044,0,2.002,0.174,2.873,0.522
			c0.87,0.348,1.607,0.824,2.21,1.428l-2.715,3.69c-0.395-0.325-0.749-0.546-1.062-0.662c-0.313-0.115-0.633-0.174-0.958-0.174
			c-1.114,0-1.984,0.389-2.611,1.166c-0.626,0.778-0.94,1.828-0.94,3.151s0.319,2.373,0.958,3.15
			c0.638,0.778,1.433,1.167,2.385,1.167c0.557,0,1.062-0.116,1.515-0.349c0.453-0.231,0.876-0.487,1.271-0.766l2.367,3.76
			c-0.882,0.766-1.851,1.317-2.907,1.654c-1.056,0.336-2.037,0.505-2.942,0.505c-1.23,0-2.379-0.204-3.447-0.609
			c-1.068-0.406-1.997-0.998-2.785-1.776c-0.79-0.777-1.41-1.734-1.863-2.872C97.86,375.437,97.634,374.148,97.634,372.709z"/>
		<path fill="#1A1A1A" d="M114.833,364.005h5.989v9.957c0,1.114,0.139,1.857,0.417,2.229c0.279,0.371,0.719,0.557,1.323,0.557
			c0.557,0,1.015-0.115,1.375-0.348c0.36-0.231,0.737-0.627,1.132-1.184v-11.211h5.988v17.408h-4.875l-0.417-2.298h-0.139
			c-0.697,0.835-1.468,1.497-2.315,1.984c-0.848,0.487-1.863,0.731-3.046,0.731c-0.952,0-1.771-0.169-2.455-0.505
			c-0.685-0.337-1.248-0.813-1.688-1.428c-0.441-0.615-0.766-1.358-0.975-2.229s-0.313-1.851-0.313-2.941V364.005z"/>
		<path fill="#1A1A1A" d="M135.096,364.005h4.874l0.418,2.124h0.139c0.696-0.673,1.445-1.266,2.246-1.776
			c0.801-0.51,1.793-0.766,2.977-0.766c1.184,0,2.164,0.238,2.942,0.714c0.777,0.476,1.398,1.166,1.862,2.071
			c0.719-0.742,1.497-1.393,2.333-1.949c0.835-0.558,1.845-0.836,3.029-0.836c1.903,0,3.296,0.645,4.178,1.933
			c0.882,1.288,1.323,3.012,1.323,5.17v10.724h-5.988v-9.958c0-1.114-0.139-1.856-0.418-2.228c-0.278-0.371-0.72-0.558-1.323-0.558
			c-0.743,0-1.556,0.441-2.437,1.323v11.42h-5.989v-9.958c0-1.114-0.139-1.856-0.417-2.228c-0.279-0.371-0.72-0.558-1.323-0.558
			c-0.743,0-1.555,0.441-2.437,1.323v11.42h-5.988V364.005z"/>
		<path fill="#1A1A1A" d="M164.411,372.709c0-1.416,0.238-2.687,0.713-3.813s1.103-2.083,1.88-2.872
			c0.777-0.789,1.665-1.393,2.664-1.811c0.998-0.418,2.031-0.627,3.099-0.627c1.276,0,2.39,0.221,3.342,0.661
			c0.951,0.441,1.741,1.045,2.367,1.811c0.627,0.767,1.097,1.66,1.41,2.681c0.313,1.022,0.47,2.113,0.47,3.273
			c0,0.534-0.029,1.01-0.087,1.427c-0.059,0.418-0.111,0.731-0.157,0.94h-9.923c0.279,1.114,0.777,1.88,1.497,2.298
			c0.719,0.418,1.567,0.627,2.542,0.627c0.604,0,1.189-0.087,1.758-0.262c0.568-0.174,1.167-0.435,1.793-0.783l1.95,3.552
			c-0.952,0.673-2.002,1.178-3.151,1.515c-1.149,0.336-2.21,0.505-3.186,0.505c-1.277,0-2.46-0.204-3.551-0.609
			c-1.091-0.406-2.037-0.998-2.837-1.776c-0.801-0.777-1.434-1.734-1.897-2.872C164.642,375.437,164.411,374.148,164.411,372.709z
			 M175.273,370.759c0-0.742-0.168-1.369-0.504-1.88c-0.337-0.51-0.958-0.766-1.863-0.766c-0.673,0-1.259,0.197-1.758,0.592
			c-0.5,0.395-0.842,1.079-1.027,2.054H175.273z"/>
		<path fill="#1A1A1A" d="M183.629,364.005h4.874l0.418,2.089h0.139c0.696-0.673,1.491-1.259,2.385-1.758s1.933-0.749,3.116-0.749
			c1.903,0,3.284,0.645,4.143,1.933c0.858,1.288,1.288,3.012,1.288,5.17v10.724h-5.988v-9.958c0-1.114-0.139-1.856-0.418-2.228
			c-0.278-0.371-0.72-0.558-1.323-0.558c-0.557,0-1.021,0.116-1.393,0.349c-0.372,0.232-0.79,0.557-1.253,0.975v11.42h-5.988
			V364.005z"/>
		<path fill="#1A1A1A" d="M204.657,368.67h-2.298v-4.456l2.646-0.209l0.696-4.526h4.944v4.526h3.969v4.665h-3.969v5.954
			c0,0.975,0.208,1.642,0.626,2.002c0.418,0.359,0.905,0.539,1.462,0.539c0.278,0,0.551-0.028,0.818-0.087
			c0.267-0.058,0.505-0.122,0.714-0.191l0.905,4.317c-0.464,0.139-1.021,0.278-1.671,0.418c-0.65,0.139-1.462,0.209-2.437,0.209
			c-1.137,0-2.106-0.169-2.907-0.505c-0.801-0.337-1.462-0.818-1.984-1.445s-0.905-1.375-1.149-2.245
			c-0.244-0.871-0.366-1.84-0.366-2.907V368.67z"/>
	</g>
</g>
<g>
	<g>
		<path fill="#1A1A1A" d="M57.705,286.63h17.707v6.07H64.957v4.301h8.938v6.07h-8.938v4.891h10.877v6.07H57.705V286.63z"/>
		<path fill="#1A1A1A" d="M79.627,303.493c0-1.714,0.246-3.261,0.738-4.638c0.492-1.377,1.138-2.536,1.939-3.478
			c0.801-0.941,1.721-1.666,2.761-2.172c1.04-0.506,2.093-0.759,3.162-0.759c1.152,0,2.093,0.189,2.824,0.569
			c0.73,0.38,1.419,0.893,2.066,1.539l-0.253-3.036v-6.829h7.251v29.342h-5.902l-0.506-1.939H93.54
			c-0.731,0.731-1.567,1.322-2.508,1.771c-0.942,0.449-1.876,0.674-2.803,0.674c-1.322,0-2.509-0.253-3.563-0.759
			c-1.054-0.506-1.954-1.236-2.698-2.192c-0.745-0.955-1.321-2.114-1.729-3.478C79.831,306.746,79.627,305.208,79.627,303.493z
			 M87.047,303.408c0,1.912,0.274,3.261,0.822,4.048c0.548,0.787,1.313,1.18,2.297,1.18c0.562,0,1.054-0.104,1.476-0.315
			c0.422-0.211,0.829-0.611,1.223-1.202v-7.757c-0.421-0.394-0.885-0.66-1.391-0.801s-0.998-0.211-1.476-0.211
			c-0.759,0-1.441,0.38-2.045,1.139C87.349,300.247,87.047,301.554,87.047,303.408z"/>
		<path fill="#1A1A1A" d="M108.632,290.34c-1.181,0-2.15-0.338-2.909-1.012c-0.759-0.675-1.139-1.546-1.139-2.614
			c0-1.067,0.379-1.939,1.139-2.613c0.759-0.675,1.728-1.013,2.909-1.013c1.18,0,2.15,0.338,2.909,1.013
			c0.759,0.674,1.139,1.546,1.139,2.613c0,1.068-0.379,1.939-1.139,2.614C110.782,290.002,109.812,290.34,108.632,290.34z
			 M105.006,292.953h7.251v21.079h-7.251V292.953z"/>
		<path fill="#1A1A1A" d="M118.075,298.603h-2.782v-5.396l3.204-0.253l0.843-5.48h5.987v5.48h4.806v5.649h-4.806v7.209
			c0,1.181,0.253,1.989,0.759,2.424c0.506,0.437,1.096,0.654,1.771,0.654c0.337,0,0.667-0.035,0.991-0.105
			c0.323-0.07,0.611-0.148,0.864-0.232l1.096,5.228c-0.563,0.169-1.237,0.338-2.023,0.506c-0.788,0.169-1.771,0.253-2.951,0.253
			c-1.377,0-2.551-0.204-3.521-0.611c-0.969-0.407-1.771-0.99-2.403-1.749s-1.096-1.665-1.391-2.72
			c-0.295-1.054-0.443-2.227-0.443-3.52V298.603z"/>
		<path fill="#1A1A1A" d="M132.493,303.493c0-1.742,0.288-3.303,0.864-4.68c0.576-1.377,1.349-2.536,2.319-3.479
			c0.969-0.941,2.086-1.657,3.352-2.149c1.265-0.492,2.571-0.738,3.92-0.738s2.649,0.246,3.9,0.738
			c1.25,0.492,2.361,1.208,3.331,2.149c0.969,0.942,1.75,2.102,2.339,3.479c0.59,1.377,0.886,2.938,0.886,4.68
			c0,1.743-0.295,3.303-0.886,4.68c-0.59,1.377-1.37,2.536-2.339,3.478c-0.97,0.942-2.081,1.659-3.331,2.15
			c-1.251,0.491-2.551,0.737-3.9,0.737s-2.656-0.246-3.92-0.737c-1.265-0.491-2.382-1.208-3.352-2.15
			c-0.97-0.941-1.743-2.101-2.319-3.478C132.781,306.796,132.493,305.236,132.493,303.493z M139.913,303.493
			c0,1.602,0.232,2.874,0.695,3.815c0.464,0.941,1.244,1.412,2.34,1.412s1.876-0.471,2.34-1.412s0.696-2.214,0.696-3.815
			c0-1.603-0.232-2.874-0.696-3.815s-1.244-1.412-2.34-1.412s-1.876,0.471-2.34,1.412
			C140.145,300.619,139.913,301.891,139.913,303.493z"/>
		<path fill="#1A1A1A" d="M157.198,292.953h5.902l0.506,3.626h0.169c0.787-1.434,1.721-2.48,2.803-3.141s2.143-0.991,3.183-0.991
			c0.646,0,1.166,0.036,1.56,0.105c0.393,0.07,0.744,0.176,1.054,0.316l-1.18,6.239c-0.394-0.084-0.766-0.161-1.117-0.231
			c-0.352-0.07-0.766-0.105-1.244-0.105c-0.759,0-1.554,0.26-2.382,0.779c-0.829,0.521-1.497,1.441-2.002,2.762v11.72h-7.251
			V292.953z"/>
		<path fill="#1A1A1A" d="M178.445,290.34c-1.181,0-2.15-0.338-2.909-1.012c-0.759-0.675-1.139-1.546-1.139-2.614
			c0-1.067,0.379-1.939,1.139-2.613c0.759-0.675,1.728-1.013,2.909-1.013c1.18,0,2.15,0.338,2.909,1.013
			c0.759,0.674,1.139,1.546,1.139,2.613c0,1.068-0.379,1.939-1.139,2.614C180.595,290.002,179.625,290.34,178.445,290.34z
			 M174.82,292.953h7.251v21.079h-7.251V292.953z"/>
		<path fill="#1A1A1A" d="M186.287,308.046c0-2.192,0.899-3.913,2.698-5.164c1.798-1.25,4.722-2.087,8.769-2.509
			c-0.169-1.461-1.153-2.192-2.951-2.192c-0.759,0-1.56,0.147-2.403,0.443c-0.843,0.295-1.813,0.737-2.909,1.327l-2.529-4.722
			c1.489-0.898,2.993-1.587,4.511-2.065c1.518-0.478,3.105-0.717,4.764-0.717c2.726,0,4.869,0.78,6.429,2.34
			c1.56,1.56,2.34,4.068,2.34,7.525v11.72h-5.902l-0.506-2.023h-0.169c-0.843,0.759-1.736,1.37-2.677,1.834
			c-0.942,0.464-1.989,0.695-3.141,0.695c-0.984,0-1.869-0.176-2.656-0.526c-0.787-0.352-1.455-0.822-2.002-1.413
			c-0.548-0.59-0.963-1.278-1.244-2.065C186.427,309.747,186.287,308.918,186.287,308.046z M193.201,307.456
			c0,1.012,0.646,1.518,1.939,1.518c0.59,0,1.075-0.133,1.454-0.4c0.379-0.267,0.766-0.611,1.16-1.033v-2.866
			c-1.743,0.253-2.938,0.632-3.583,1.138C193.523,306.317,193.201,306.865,193.201,307.456z"/>
		<path fill="#1A1A1A" d="M209.811,284.69h7.251v22.175c0,0.731,0.133,1.223,0.4,1.476s0.527,0.38,0.78,0.38c0.14,0,0.259,0,0.358,0
			c0.098,0,0.231-0.028,0.4-0.085l0.843,5.313c-0.394,0.169-0.879,0.309-1.455,0.422c-0.577,0.111-1.272,0.168-2.087,0.168
			c-1.237,0-2.27-0.189-3.099-0.569c-0.829-0.379-1.497-0.92-2.002-1.623c-0.506-0.702-0.864-1.538-1.075-2.508
			c-0.21-0.97-0.316-2.045-0.316-3.226V284.69z"/>
	</g>
</g>
<g>
	<path fill="#1A1A1A" d="M425.246,458.341v-24.72h9.505c2.042,0,3.841,0.325,5.396,0.975c1.556,0.65,2.854,1.532,3.899,2.646
		s1.834,2.42,2.367,3.917c0.534,1.497,0.801,3.093,0.801,4.787c0,1.88-0.295,3.58-0.887,5.101s-1.434,2.819-2.525,3.899
		c-1.091,1.079-2.402,1.915-3.934,2.507s-3.238,0.888-5.118,0.888H425.246z M440.322,445.946c0-0.952-0.129-1.822-0.383-2.611
		c-0.256-0.789-0.622-1.463-1.098-2.02s-1.062-0.992-1.758-1.306s-1.475-0.47-2.333-0.47h-2.716v12.882h2.716
		c0.882,0,1.671-0.162,2.368-0.487c0.695-0.325,1.281-0.777,1.758-1.358c0.476-0.579,0.836-1.265,1.079-2.054
		S440.322,446.875,440.322,445.946z"/>
	<path fill="#1A1A1A" d="M450.174,458.341v-24.72h6.789v24.72H450.174z"/>
	<path fill="#1A1A1A" d="M477.992,456.286c-1.764,1.486-3.795,2.229-6.093,2.229c-1.602,0-3.134-0.284-4.596-0.853
		c-1.462-0.569-2.739-1.398-3.83-2.49c-1.091-1.09-1.962-2.425-2.611-4.004c-0.649-1.578-0.975-3.377-0.975-5.396
		c0-1.74,0.325-3.359,0.975-4.856s1.544-2.797,2.681-3.899s2.479-1.973,4.021-2.611c1.543-0.638,3.209-0.957,4.996-0.957
		c1.114,0,2.182,0.121,3.203,0.365s1.967,0.604,2.838,1.079c0.87,0.477,1.654,1.045,2.35,1.706c0.697,0.662,1.266,1.41,1.707,2.246
		l-5.049,3.864c-0.488-0.975-1.219-1.758-2.193-2.35s-2.008-0.889-3.1-0.889c-0.813,0-1.555,0.163-2.228,0.488
		s-1.253,0.777-1.741,1.357c-0.486,0.58-0.87,1.271-1.148,2.071c-0.279,0.801-0.418,1.678-0.418,2.629
		c0,0.975,0.139,1.857,0.418,2.646c0.278,0.789,0.667,1.468,1.166,2.036c0.499,0.569,1.097,1.01,1.793,1.323
		c0.697,0.313,1.475,0.47,2.333,0.47c1.973,0,3.714-0.812,5.222-2.437h-4.281v-4.875h10.166v13.161h-5.605V456.286z"/>
	<path fill="#1A1A1A" d="M486.939,458.341v-24.72h6.789v24.72H486.939z"/>
	<path fill="#1A1A1A" d="M517.228,439.54h-7.102v18.801h-6.789V439.54H496.2v-5.919h21.028V439.54z"/>
	<path fill="#1A1A1A" d="M523.844,433.621h6.197l8.565,24.72h-6.895l-1.496-4.84h-6.58l-1.463,4.84h-6.929L523.844,433.621z
		 M529.136,448.975l-2.193-7.659l-2.298,7.659H529.136z"/>
	<path fill="#1A1A1A" d="M540.66,458.341v-24.72h6.789v18.801h11.211v5.919H540.66z"/>
</g>
<g>
	<path fill="#1A1A1A" d="M442.863,482.161v5.919h-17.617v-24.72h17.304v5.919h-10.515v3.481h8.982v5.501h-8.982v3.899H442.863z"/>
	<path fill="#1A1A1A" d="M450.871,463.36l4.49,7.799l4.492-7.799h7.311l-8.251,12.534l7.973,12.186h-7.312l-4.213-7.45l-4.213,7.45
		h-7.346l7.973-12.186l-8.251-12.534H450.871z"/>
	<path fill="#1A1A1A" d="M468.906,488.08v-24.72h10.652c1.207,0,2.321,0.25,3.344,0.748c1.021,0.5,1.896,1.149,2.628,1.95
		s1.306,1.718,1.724,2.751s0.627,2.071,0.627,3.115c0,1.092-0.197,2.154-0.592,3.186c-0.396,1.033-0.947,1.95-1.654,2.751
		c-0.709,0.801-1.566,1.439-2.576,1.915c-1.01,0.477-2.119,0.714-3.325,0.714h-4.038v7.59H468.906z M475.695,474.571h3.586
		c0.418,0,0.806-0.191,1.166-0.574c0.359-0.383,0.539-1.073,0.539-2.072c0-1.021-0.209-1.717-0.627-2.088
		c-0.417-0.371-0.835-0.558-1.253-0.558h-3.411V474.571z"/>
	<path fill="#1A1A1A" d="M508.212,482.161v5.919h-17.617v-24.72h17.303v5.919h-10.514v3.481h8.982v5.501h-8.982v3.899H508.212z"/>
	<path fill="#1A1A1A" d="M511.38,488.08v-24.72h11.35c1.207,0,2.32,0.25,3.342,0.748c1.021,0.5,1.898,1.149,2.629,1.95
		s1.306,1.718,1.724,2.751c0.417,1.033,0.626,2.071,0.626,3.115c0,1.439-0.313,2.78-0.939,4.021
		c-0.627,1.242-1.497,2.258-2.611,3.047l5.223,9.087h-7.66l-4.352-7.59h-2.541v7.59H511.38z M518.169,474.571h4.281
		c0.418,0,0.807-0.231,1.167-0.696c0.359-0.464,0.54-1.114,0.54-1.95c0-0.857-0.209-1.514-0.627-1.967
		c-0.418-0.452-0.836-0.679-1.254-0.679h-4.107V474.571z"/>
	<path fill="#1A1A1A" d="M534.88,488.08v-24.72h6.789v24.72H534.88z"/>
	<path fill="#1A1A1A" d="M563.533,482.161v5.919h-17.616v-24.72h17.304v5.919h-10.515v3.481h8.982v5.501h-8.982v3.899H563.533z"/>
	<path fill="#1A1A1A" d="M573.49,475.929v12.151h-6.789v-24.72h5.293l9.922,12.568V463.36h6.789v24.72h-5.396L573.49,475.929z"/>
	<path fill="#1A1A1A" d="M591.595,475.511c0-1.508,0.283-2.994,0.853-4.455c0.568-1.463,1.397-2.773,2.489-3.936
		c1.091-1.16,2.414-2.1,3.969-2.819s3.33-1.079,5.327-1.079c2.39,0,4.462,0.493,6.215,1.479c1.752,0.987,3.058,2.292,3.917,3.917
		l-5.188,3.689c-0.232-0.603-0.54-1.102-0.924-1.496c-0.383-0.395-0.807-0.708-1.27-0.94c-0.465-0.231-0.947-0.395-1.445-0.487
		c-0.5-0.092-0.98-0.139-1.445-0.139c-0.975,0-1.816,0.191-2.523,0.574c-0.709,0.383-1.289,0.882-1.741,1.496
		c-0.452,0.615-0.79,1.313-1.01,2.09c-0.221,0.777-0.331,1.549-0.331,2.314c0,0.859,0.128,1.684,0.383,2.473
		c0.256,0.789,0.627,1.485,1.115,2.089c0.486,0.604,1.084,1.085,1.793,1.444c0.707,0.361,1.502,0.54,2.385,0.54
		c0.464,0,0.939-0.052,1.428-0.157c0.486-0.104,0.957-0.277,1.41-0.521c0.451-0.244,0.857-0.557,1.218-0.939
		c0.36-0.384,0.644-0.854,0.853-1.41l5.536,3.307c-0.372,0.906-0.935,1.719-1.688,2.438c-0.754,0.72-1.613,1.323-2.576,1.811
		s-1.996,0.859-3.099,1.113c-1.103,0.256-2.177,0.384-3.221,0.384c-1.834,0-3.511-0.366-5.03-1.097
		c-1.521-0.731-2.832-1.7-3.936-2.907c-1.102-1.206-1.955-2.577-2.559-4.108S591.595,477.091,591.595,475.511z"/>
	<path fill="#1A1A1A" d="M634.627,482.161v5.919h-17.616v-24.72h17.303v5.919H623.8v3.481h8.982v5.501H623.8v3.899H634.627z"/>
</g>
<path fill="#1A1A1A" d="M532.786,314.466c-0.015-0.076-0.043-0.146-0.064-0.22c-0.024-0.083-0.043-0.166-0.076-0.247
	c-0.037-0.087-0.086-0.167-0.132-0.249c-0.033-0.06-0.06-0.123-0.099-0.181c-0.183-0.275-0.419-0.511-0.693-0.694
	c-0.057-0.038-0.118-0.063-0.178-0.096c-0.083-0.047-0.164-0.097-0.253-0.134c-0.079-0.032-0.162-0.051-0.244-0.075
	c-0.074-0.022-0.145-0.051-0.222-0.066c-0.161-0.032-0.325-0.049-0.489-0.049H509.82c-1.381,0-2.5,1.119-2.5,2.5s1.119,2.5,2.5,2.5
	h14.48l-49.732,49.732c-0.977,0.977-0.977,2.56,0,3.535c0.488,0.488,1.128,0.732,1.768,0.732s1.279-0.244,1.768-0.732l49.732-49.732
	v14.479c0,1.381,1.119,2.5,2.5,2.5s2.5-1.119,2.5-2.5v-20.515C532.835,314.791,532.818,314.627,532.786,314.466z"/>
</svg>
