<?xml version="1.0" encoding="utf-8"?>
<!-- Generator: Adobe Illustrator 16.0.3, SVG Export Plug-In . SVG Version: 6.00 Build 0)  -->
<!DOCTYPE svg PUBLIC "-//W3C//DTD SVG 1.1//EN" "http://www.w3.org/Graphics/SVG/1.1/DTD/svg11.dtd">
<svg version="1.1" id="Layer_1" xmlns="http://www.w3.org/2000/svg" xmlns:xlink="http://www.w3.org/1999/xlink" x="0px" y="0px"
	 width="680.951px" height="212.989px" viewBox="0 0 680.951 212.989" enable-background="new 0 0 680.951 212.989"
	 xml:space="preserve">
<g>
	<path d="M149.423,92.208c-0.12,0-0.236,0-0.236,0.119c0,0.472,0,0.708,0.116,0.708c0.12,0,0.236,0,0.355,0s0.236,0,0.236-0.117
		c0-0.057,0-0.109-0.014-0.153c-0.035,0.013-0.059,0.012-0.104,0.034c0-0.055-0.021-0.098-0.026-0.151
		c-0.08-0.049-0.093-0.217-0.093-0.321C149.658,92.327,149.539,92.208,149.423,92.208z"/>
	<path d="M149.303,92.091c0,0,0.07-0.012,0.186-0.038c-0.024-0.023-0.036-0.066-0.065-0.08c-0.038-0.021-0.064-0.013-0.099-0.026
		c-0.004,0.011-0.021,0.011-0.021,0.022C149.303,92.091,149.303,92.091,149.303,92.091z"/>
	<path d="M172.613,81.087c-0.024,0-0.046,0.017-0.066,0.022c0.069,0.007,0.111,0.021,0.168,0.032
		C172.718,81.107,172.693,81.087,172.613,81.087z"/>
	<polygon points="92.633,73.988 92.633,73.988 92.641,73.992 92.633,73.988 	"/>
	<path d="M64.475,80.614c-0.014-0.028-0.014-0.063-0.025-0.092c-0.053,0.049-0.102,0.1-0.15,0.151
		C64.358,80.65,64.404,80.639,64.475,80.614z"/>
	<path d="M172.258,81.206c0.094,0,0.191-0.068,0.289-0.096c-0.112-0.012-0.259-0.015-0.409-0.017
		C172.138,81.202,172.14,81.206,172.258,81.206z"/>
	<path d="M172.967,81.441c0.147-0.149,0.039-0.245-0.252-0.3c-0.004,0.049-0.106,0.146-0.305,0.3
		c0.077,0.061,0.152,0.119,0.203,0.119L172.967,81.441z"/>
	<path d="M17.008,24.518v168.277h645.432V24.518H17.008z M31.228,93.511c0.237,0,0.475,0.117,0.591,0.472
		c0.12,0.355,0.236,0.472,0.357,0.472c0.472,0,0.71,0,0.472,0.119c-0.354,0.119-0.829-0.119-1.42-0.473V93.511z M648.228,178.576
		H29.926V131.25c0.237,0,0.592-0.117,0.946-0.354c0.83-0.594,2.014-0.945,3.432-0.945c0.12,0,0.236,0.117,0.236,0.117
		c0,0.117,0.119,0.117,0.237,0.117l0.355-0.117c0.117,0,0.234,0.117,0.234,0.117c0,0.117,0.121,0.117,0.238,0.117
		c0.237,0,0.59-0.117,0.945-0.234c0.357-0.117,0.83-0.237,1.184-0.237c0.474,0,0.711,0,0.949,0.12c0.117,0,0.353,0,0.589,0
		c0.354,0,0.473,0.117,0.593,0.473c0.117,0.238,0.117,0.473,0.117,0.71c0,0.238,0,0.355,0.121,0.355c0.116,0,0.59,0.117,1.183,0.355
		c0.116,0.116,0.233,0.354,0.355,0.593c0.116,0.234,0.235,0.354,0.471,0.234c0.211-0.318,0.726-0.533,1.425-0.574
		c0.003-0.155,0.019-0.253,0.113-0.253c0.118,0,0.118,0,0.118,0.116c0,0.117,0,0.117-0.118,0.117v0.012
		c0.041-0.004,0.075-0.012,0.118-0.012c0.235,0,0.355,0.121,0.475,0.359c0.116,0.354,0.237,0.354,0.354,0.116
		c0-0.116,0.117-0.237,0.117-0.476c0.119-0.233,0.238-0.354,0.591-0.354c0.236,0,0.357,0.121,0.591,0.237
		c0.238,0.117,0.357,0.238,0.594,0.238c-0.117-0.354,0-0.593,0.236-0.827c0.236-0.238,0.474-0.238,0.829,0
		c0.116,0.117,0.116,0.234,0.116,0.352c0,0.121,0,0.121,0.121,0.121c0.236,0,0.473-0.121,0.59-0.355
		c0.119-0.117,0.237-0.238,0.354-0.117c0.238,0.117,0.593,0.117,0.829,0.117s0.475-0.117,0.709-0.473
		c0.237-0.354,0.593-0.593,0.947-0.593c0.473,0,0.71-0.121,0.948-0.238c0.117,0,0.236-0.117,0.589-0.234
		c0.354-0.12,0.594-0.237,0.947-0.237c0.118,0,0.236,0,0.236,0.117c0,0.12,0.119,0.12,0.237,0c0.118-0.117,0.235-0.117,0.593-0.117
		c0,0.117,0,0.117,0.116,0.117c0.117,0,0.238,0.12,0.355,0.12c0.237,0,0.354,0,0.591-0.12c0.591-0.355,1.42-0.473,2.487-0.473
		c0.117,0,0.117,0,0.117-0.117c0-0.12,0-0.12,0.119-0.12c0.472,0,0.824-0.117,1.182-0.355c0.355-0.234,0.591-0.354,0.827-0.354
		c0.119,0,0.237,0.121,0.237,0.237c0,0.117,0.119,0.238,0.237,0.238c0.355,0,0.709,0,1.182,0.117
		c0.477,0.117,0.948,0.117,1.304,0.117c0.234,0,0.472-0.117,0.709-0.355c0.237-0.354,0.355-0.354,0.355-0.117
		c0,0.117,0.117,0.238,0.117,0.355c0,0.237,0.119,0.237,0.236,0.117c0.118-0.234,0.356-0.355,0.591-0.355
		c0.238,0,0.357,0,0.357-0.117c0-0.354,0.119-0.472,0.354-0.354c0.236,0.117,0.353,0.117,0.592,0.117
		c0.237,0,0.593-0.117,0.946-0.352c0.354-0.238,0.59-0.355,0.945-0.355c0.238,0,0.354,0,0.475,0.117
		c0.235,0.238,0.591,0.238,1.3,0.238c0.711,0,1.065-0.121,1.304-0.355c0.117,0.234,0.236,0.355,0.473,0.472
		c0.235,0.117,0.354,0.117,0.472,0c0.116-0.117,0.593-0.355,1.42-0.355c0.828,0,1.302-0.117,1.658-0.238
		c0.946-0.472,1.775-0.71,2.131-0.71l0.472-0.117c0.354,0,0.71-0.117,1.301-0.472c0.592-0.358,0.945-0.476,1.185-0.476
		c0.235,0,0.354,0,0.472,0.117c0.593,0.476,1.065,0.714,1.42,0.714c0.236,0,0.354,0,0.473-0.121c0-0.117,0.116-0.234,0.116-0.234
		c0-0.121,0.121-0.121,0.239-0.121l0.354,0.121c0.355,0.234,0.828,0.355,1.421,0.355h1.539c0.236,0,0.472-0.121,0.827-0.238
		c0.236-0.238,0.474-0.238,0.591-0.117c0.238,0.234,0.355,0.355,0.474,0.355l1.421-0.121c0.236,0,0.353,0.121,0.353,0.355
		c0,0.121,0,0.355-0.116,0.355c-0.118,0-0.118,0.117-0.118,0.237c0.59,0.593,1.302,0.945,2.127,0.945
		c0.121,0,0.238-0.117,0.477-0.352c0,0.589,0.235,1.182,0.709,1.537c0.473,0.354,1.065,0.589,1.655,0.589
		c0.593,0,0.948,0.117,0.948,0.477c0,0.234,0,0.354,0.118,0.472c0.117,0.117,0.235,0.355,0.235,0.827
		c0.118,0.477,0.237,0.711,0.594,0.711c0.117,0,0.234,0,0.473,0c0.235,0,0.354,0,0.472-0.118l0.354-0.947h0.355
		c0.119,0.117,0.119,0.238,0.119,0.472c0,0.238,0,0.359-0.119,0.359c-0.355,0-0.591,0.116-0.71,0.472
		c-0.117,0.355-0.236,0.71-0.236,0.944c0,0.237,0.119,0.593,0.236,0.83c0.238,0.234,0.354,0.355,0.593,0.355
		c0.354,0,0.473,0.118,0.473,0.355c0,0.234-0.118,0.355-0.118,0.472c-0.118,0.117-0.118,0.237-0.118,0.355
		c0,0.354,0.118,0.472,0.474,0.472c0.234,0,0.354,0,0.59-0.117c0.121,0,0.237,0.117,0.354,0.117c0.121,0,0.121,0.121,0,0.238
		c-0.354,0.354-0.473,0.589-0.473,0.943c0.118,0.121,0.355,0.239,0.594,0.477c0.236,0.237,0.353,0.355,0.236,0.472
		c-0.475,0.355-0.591,0.59-0.357,0.59c0.121,0,0.238,0.121,0.474,0.476c0.236-0.238,0.592-0.238,0.829-0.238
		c0.238,0.121,0.355,0.238,0.238,0.594c-0.355,0-0.476,0-0.355,0.117c0.117,0.12,0.234,0.237,0.473,0.354
		c0.119,0.117,0.236,0.238,0.119,0.355c-0.236,0.237-0.236,0.476-0.119,0.709c0.236,0.239,0.354,0.355,0.591,0.355l0.829-0.116
		v0.116c0,0.239,0,0.355-0.117,0.472c-0.121,0.121-0.121,0.239,0,0.355c0.354,0.711,0.59,0.948,0.825,0.711
		c0.119-0.118,0.119-0.234,0.119-0.234c0-0.117,0-0.117,0.117-0.117c0.238,0,0.477,0.117,0.593,0.233
		c0.238,0.118,0.238,0.238,0.119,0.355s-0.235,0.234-0.357,0.355c-0.116,0.117-0.116,0.238-0.116,0.354
		c0,0.118,0.116,0.118,0.238,0.118c0.116,0,0.235,0,0.354,0.12c0.59,0.589,0.945,0.944,0.945,1.065c0,0.354,0.354,0.472,0.828,0.472
		h0.118c0.117,0.117,0.237,0.117,0.355,0.117c0.117,0,0.238,0,0.354,0.12c0,0.234,0.355,0.352,0.711,0.59s0.588,0.476,0.711,0.827
		c0,0.476,0.471,0.594,1.181,0.354c0-0.116,0-0.234,0.118-0.116c0.12,0.116,0.12,0.237,0.12,0.355
		c-0.12,0.116-0.12,0.237-0.12,0.354c0,0.239,0.12,0.473,0.354,0.594c0.238,0.234,0.474,0.234,0.829,0.117
		c0,0.117,0.119,0.354,0.354,0.354c0.237,0,0.475,0.117,0.711,0.234c0.119,0.121,0.475,0.238,0.946,0.238
		c0.475,0.12,0.71,0.238,0.71,0.593c0,0.117,0.12,0.233,0.355,0.354c0.237,0.118,0.355,0.234,0.472,0.355
		c0.121,0,0.239-0.121,0.357-0.121c0.119,0,0.119,0,0.119,0.237c0,0.121,0,0.239-0.119,0.239c-0.118,0-0.118,0.116,0,0.237
		c0.354,0.352,0.591,0.472,0.946,0.352c0.116,0.12,0.116,0.238,0.116,0.354c0,0.121,0,0.121,0.121,0.121h0.354l0.474,0.594
		c0-0.121,0.117-0.359,0.234-0.359c0.121,0,0.238,0,0.238,0.121c0,0.117,0.116,0.117,0.237,0.117c0.236,0,0.236,0,0.118,0.121
		c-0.118,0.116-0.118,0.234-0.118,0.589c0,0.117,0.118,0.354,0.355,0.354c0.236,0,0.353,0.118,0.472,0.239
		c0.118,0.116,0.118,0.232,0,0.232c-0.119,0.121-0.119,0.121,0,0.121c0.355,0,0.593,0.234,0.711,0.59
		c0.119,0.355,0.119,0.593,0.119,0.71c0.118,0,0.354,0,0.707,0.355c0.238,0.354,0.477,0.472,0.593,0.472l0.355-0.117
		c0.355-0.354,0.473-0.472,0.473-0.354c0,0.116,0.118,0.237,0.238,0.593c0.116,0.355,0.116,0.472-0.12,0.472
		c-0.354,0-0.471,0-0.471,0.121c0,0.351,0.116,0.59,0.471,0.59c0.12,0,0.12,0,0.12-0.118c0-0.121,0-0.121,0.116,0
		c0.238,0.118,0.477,0.473,0.71,0.945c0.238,0.476,0.475,0.71,0.71,0.71l0.355-0.117c0.117-0.117,0.355-0.117,0.594-0.117
		c0.232,0,0.353,0,0.232,0.117c-0.116,0.117-0.232,0.233-0.353,0.233c-0.235,0-0.235,0.121-0.118,0.238
		c0.118,0.117,0.354,0.117,0.591,0.117c0.235,0,0.356,0,0.235,0.121c-0.235,0.237-0.355,0.355-0.355,0.593
		c0,0.234,0.12,0.351,0.355,0.472c0.121,0.118,0.238,0.234,0.355,0.355c0.121,0.116,0.237,0.237,0.357,0.237
		c0.118-0.121,0.235-0.237,0.471-0.475c0,0.116-0.117,0.237-0.117,0.354c0,0.121,0,0.239,0.117,0.355
		c0.12,0.238,0.236,0.594,0.355,0.948c0.236,0.354,0.357,0.589,0.591,0.589l0.12-0.116c0.119-0.118,0.235-0.118,0.355-0.118
		c0.118,0,0.235,0,0.235,0.118c0,0.354,0,0.472,0.117,0.472c0.12,0,0.238,0.121,0.354,0.237c0.121,0.118,0.238,0.234,0.357,0.234
		s0.235-0.116,0.354-0.116c0.118,0,0.118,0,0.118,0.116v0.714c0.235,0,0.354,0.117,0.59,0.352c0.238,0.238,0.355,0.355,0.477,0.355
		c0.117,0,0.354,0,0.708-0.117c0.236-0.117,0.474-0.117,0.592,0c0.12,0.117,0.237,0.117,0.593,0.117
		c0.235-0.117,0.472-0.117,0.709-0.117v-0.355c0.118-0.117,0.238-0.117,0.473,0.117c0.238,0.238,0.238,0.355,0,0.355h-0.354
		c0.12,0,0.12,0,0.12,0.12c0,0.117,0,0.355,0.117,0.594c0.117,0.234,0.235,0.351,0.591,0.234c0.118,0.116,0.236,0.354,0.475,0.354
		c0.234,0,0.355,0.118,0.591,0.355c0.118,0,0.236,0,0.353,0.118c0.119,0.119,0.239,0.119,0.239-0.118h0.709
		c0-0.121-0.116-0.237-0.237-0.237c-0.118,0-0.236-0.118-0.236-0.234c0-0.121,0.236-0.121,0.591-0.121c0.474,0,0.593,0,0.474,0.121
		c-0.118,0.234-0.118,0.351,0,0.472c0.119,0.118,0.119,0.237,0,0.355c0.119,0,0.237,0.116,0.237,0.116s0.116,0,0.237-0.116
		c0.117,0,0.355-0.355,0.355-0.948c0.116-0.589,0.235-0.944,0.591-1.182c0.353-0.473,0.591-0.711,0.591-0.945l-0.354-0.358
		c-0.119-0.116-0.355-0.116-0.592-0.116c-0.235,0-0.356,0-0.356-0.118c-0.355,0-0.59,0-0.59-0.116c0-0.238,0-0.355,0.118-0.477
		c0.116-0.116,0.116-0.116,0-0.116c-0.237,0-0.355-0.118-0.473-0.355c-0.119-0.238-0.119-0.355,0-0.472
		c0.354-0.238,0.473-0.355,0.354-0.473c-0.119-0.237-0.119-0.355-0.119-0.593s0-0.355-0.118-0.355c-0.117,0-0.236,0-0.236,0.118
		c0,0.116-0.119,0.116-0.236,0c-0.593-0.355-0.829-0.827-0.948-1.421c-0.116,0.117-0.234,0.117-0.353,0.117
		c-0.119,0-0.235-0.117-0.235-0.234c0-0.593-0.121-1.065-0.477-1.42c-0.117-0.121-0.235-0.473-0.354-0.944
		c-0.118-0.477-0.235-0.714-0.591-0.714c-0.121,0-0.237-0.117-0.237-0.117c-0.118,0-0.118,0-0.239,0.117
		c-0.116-0.234-0.234-0.472-0.353-0.589c-0.119-0.117-0.235-0.238-0.354-0.355c-0.236,0-0.354,0-0.354-0.121
		c0-0.354-0.238-0.589-0.593-0.706c-0.354-0.237-0.592-0.355-0.592-0.593c0.118-0.477,0.118-0.71,0-0.948
		c-0.118-0.116-0.356-0.234-0.712-0.351c-0.354-0.238-0.59-0.359-0.59-0.594c0-0.121,0-0.237,0.118-0.237
		c0-0.118,0-0.118-0.355-0.118c-0.235,0-0.472-0.12-0.593-0.472c-0.116-0.237,0-0.477,0.121-0.593
		c0.117-0.121,0.236-0.237,0.236-0.355c0-0.121-0.119-0.354-0.119-0.593c0-0.234-0.117-0.354-0.354-0.354
		c-0.355,0-0.473-0.117-0.473-0.355v-0.117c-0.238,0-0.474-0.12-0.71-0.354c-0.238-0.238-0.354-0.355-0.354-0.472
		c0-0.118,0-0.118,0.116-0.118c0.121,0,0.121,0,0.121-0.121c0-0.116,0-0.237-0.121-0.354c-0.116-0.118-0.116-0.239-0.116-0.594
		c0-0.352-0.12-0.473-0.355-0.352c-0.355,0-0.591-0.121-0.711-0.593c-0.237-0.473-0.354-0.71-0.593-0.71
		c-0.116,0-0.472-0.237-0.943-0.593c-0.355-0.355-0.712-0.59-0.949-0.59l-1.419,0.118c-0.353,0-0.589-0.239-0.589-0.593
		c0-0.355-0.121-0.473-0.355-0.473c0-0.238,0.116-0.355,0.116-0.473c0-0.12,0-0.238-0.116-0.354
		c-0.121-0.117-0.356-0.117-0.712-0.117c-0.236,0-0.472,0-0.591-0.121c0,0.238-0.118,0.354-0.238,0.593
		c-0.117,0.234-0.236,0.234-0.354-0.12c-0.118-0.234,0-0.352,0.237-0.473c0.237-0.117,0.355-0.233,0.355-0.354l-0.946-1.066
		c-0.12,0-0.236,0.121-0.355,0.121c-0.118,0-0.236,0-0.236-0.121c0-0.116,0-0.233,0.236-0.354c0.235-0.118,0.235-0.234,0.119-0.355
		c-0.237-0.117-0.355-0.238-0.593-0.355c-0.238-0.117-0.355-0.234-0.591-0.234h-0.355c0-0.12,0-0.12,0.118-0.12s0.118,0,0-0.117
		s-0.237-0.238-0.472-0.355c-0.237-0.117-0.356-0.238-0.356-0.476c0-0.234-0.236-0.472-0.592-0.706
		c-0.354-0.238-0.593-0.355-0.593-0.593c0-0.594-0.234-0.828-0.591-0.944c-0.354-0.121-0.591-0.121-0.708-0.121
		c0.354-0.355,0.236-0.593-0.117-0.945c-0.121-0.237-0.237-0.237-0.237-0.12c0,0.12-0.121,0.238-0.239,0.238l-0.354-0.355
		c0-0.116,0-0.237,0.118-0.355c0.119-0.116,0.119-0.237,0-0.354c-0.118-0.118-0.236-0.239-0.474-0.355
		c-0.234-0.118-0.355-0.238-0.355-0.355c0-0.472-0.237-0.827-0.711-1.182c-0.589-0.355-0.826-0.593-0.826-0.948
		c0.117-0.355-0.117-0.593-0.474-0.71c-0.355-0.117-0.592-0.234-0.592-0.355c0.119-0.352-0.117-0.71-0.471-1.065
		c-0.355-0.234-0.594-0.472-0.594-0.589h0.117c0.477,0,0.593,0,0.354-0.117c0-0.121,0.123-0.238,0.123-0.476
		c0-0.238,0-0.355-0.239-0.472c-0.116-0.121-0.237-0.355-0.237-0.593c0-0.355-0.117-0.473-0.354-0.593
		c-0.119-0.117-0.236-0.234-0.475-0.352c-0.233-0.121-0.354-0.238-0.472-0.476c-0.118-0.117-0.118-0.234-0.118-0.355
		c0-0.117,0-0.234-0.12-0.355c-0.354-0.234-0.471-0.355-0.471-0.589c0-0.117,0-0.238,0.116-0.355c0.119-0.117,0.119-0.238,0-0.355
		c-0.116-0.238-0.234-0.355-0.116-0.593c0.235-0.589,1.181-1.42,2.72-2.603v-0.121l0.473-0.351c0.119-0.121,0.119-0.238,0-0.355
		c-0.117-0.117-0.117-0.238,0-0.238c0.119,0,0.236,0,0.236,0.121c0,0.117,0.119,0.117,0.237,0c0.118-0.121,0.355-0.238,0.711-0.593
		c0.354-0.355,0.826-0.476,1.182-0.476c0.237,0,0.593,0,0.829-0.117c0.235-0.117,0.475-0.117,0.712-0.117
		c0.234,0,0.472,0.117,0.709,0.355c0.116,0.234,0.473,0.234,0.946,0.234c0.354-0.117,0.709-0.117,0.945-0.117
		c0.235,0,0.474,0.117,0.71,0.355c0.355,0.238,0.474,0.355,0.591,0.355c0.355,0,0.711,0.238,1.185,0.593
		c0.354,0.351,0.708,0.589,0.946,0.589l0.354-0.117c0.118-0.121,0-0.238-0.117-0.355c-0.237-0.116-0.237-0.116-0.118-0.116h0.354
		c0-0.121-0.118-0.238-0.118-0.355s0-0.238,0.118-0.238c0.236,0,0.354,0.238,0.354,0.593c0,0.351,0,0.589,0.12,0.709l0.712,0.71
		c0.116,0.117,0.236,0.234,0.589,0.473c0.593,0.354,0.947,0.472,1.064,0.472l0.354,0.121c0.12,0,0.474,0.234,0.949,0.707
		c0.117,0.121,0.235,0.121,0.355,0.121c0.116,0,0.232,0,0.232,0.117c0,0.117,0,0.117,0.12,0l0.356,0.355
		c0.234-0.117,0.472-0.117,0.592,0c0.118,0.238,0.471,0.355,1.063,0.355c0.594,0,0.948,0.121,1.065,0.472
		c0.117,0.355,0.355,0.593,0.593,0.71c0.355,0.121,0.472,0.238,0.591,0.355c0-0.117,0.118-0.234,0.118-0.234s0.118,0,0.235,0.117
		c0.119,0.117,0.238,0.355,0.354,0.593c0.121,0.352,0.238,0.352,0.355,0.117l0.356-0.117c0.118,0,0.118,0,0.118,0.117
		s0.119,0.234,0.354,0.472c0.119,0.121,0.236,0.238,0.592,0.355c0.237,0.121,0.474,0.238,0.593,0.472
		c0.235,0,0.472,0.121,0.588,0.354c0.239,0.238,0.359,0.355,0.594,0.355c0.118,0,0.118,0,0.118-0.117l0.355-0.355
		c0.236,0,0.354,0.238,0.354,0.71c0,0.121-0.117,0.238-0.235,0.355c-0.236,0.117-0.236,0.117-0.118,0.117
		c0.236,0,0.475,0,0.591,0.12c0.239,0.117,0.355,0.117,0.593,0.117c0-0.354,0-0.472,0.118-0.354
		c0.116,0.117,0.235,0.117,0.472,0.117c0.477,0,0.71,0,0.71,0.12c0,0.473,0.238,0.828,0.593,1.065
		c-0.354,0.234-0.474,0.473-0.354,0.59c0.235,0.117,0.354,0.238,0.589,0.593c0.121,0.354,0.355,0.473,0.712,0.473h0.592
		c0,0.237,0,0.354,0.116,0.354c0.121,0,0.238-0.117,0.355-0.117c0.121,0,0.237,0,0.357,0.117c0.118,0.117,0.354,0.238,0.354,0.593
		c0,0.355,0.116,0.472,0.236,0.472c0.235-0.233,0.473-0.116,0.593,0.238c0.117,0.354,0.233,0.589,0.355,0.589
		c0.235,0,0.354-0.116,0.471-0.116c0.118,0,0.237,0,0.355,0.116c0-0.354,0.234-0.589,0.593-0.827
		c0.118,0.121,0.234,0.355,0.354,0.593c0.12,0.234,0.12,0.474-0.235,0.711l-0.355,0.589c0.237,0,0.472,0.12,0.591,0.238
		c0.12,0.234,0.355,0.234,0.709,0.116c0,0.238,0.12,0.477,0.354,0.594c0.356,0.238,0.476,0.354,0.594,0.589l0.472,0.476
		c0.119,0.118,0.237,0.118,0.477,0.118c0.232,0,0.353,0,0.472,0.237c0.116,0.237,0.116,0.355,0.116,0.59
		c0,0.237,0,0.354,0.119,0.475l0.592,0.355c0.12,0.117,0.237,0.473,0.354,1.062c0.118,0.714,0.355,0.947,0.71,0.831
		c0.354-0.117,0.71,0,0.829,0.355c0.118,0.355,0.236,0.588,0.355,0.588c0.236-0.116,0.472-0.232,0.708-0.354
		c0.354-0.118,0.476-0.234,0.593-0.234c0.119,0,0.119,0,0.119,0.116c0,0.239,0.116,0.355,0.235,0.593
		c0.236,0.239,0.236,0.355,0.118,0.355s-0.237,0-0.237,0.117c0,0.121-0.116,0.121-0.235,0c-0.117-0.117,0-0.233,0.119-0.233
		c0.235-0.121,0.235-0.121,0.116-0.121h-1.184c0.119,0.237,0.477,0.476,1.067,0.709c0.441,0.178,0.75,0.42,0.879,0.681
		c0.101-0.076,0.201-0.091,0.305-0.091c0.118,0,0.118,0.121,0,0.238c-0.144,0-0.219-0.005-0.271-0.008
		c0.01,0.041,0.033,0.083,0.033,0.129c0,0.354,0.116,0.588,0.472,0.588c0.119,0,0.237,0,0.475-0.116
		c0.235-0.117,0.353-0.117,0.353,0.116c0,0.121,0,0.355,0,0.593c0,0.239,0.121,0.355,0.356,0.355h0.119c0,0.355,0,0.473,0.117,0.473
		c0.238,0,0.355,0.238,0.591,0.71c0-0.117,0-0.117,0.119-0.117c0.117,0,0.117,0,0.117,0.117h-0.236
		c0.236,0.593,0.357,0.827,0.475,0.827c0.116,0,0.238,0.12,0.355,0.238c0.236,0.237,0.354,0.237,0.591,0.116
		c0.236-0.116,0.474-0.116,0.829-0.116c0.235,0,0.355,0.116,0.117,0.355c-0.354,0.354-0.473,0.593-0.354,0.826
		c0.12,0.121,0.12,0.238,0.12,0.355s0,0.117,0.117,0.117c0.235,0,0.355-0.117,0.472-0.352c0.119-0.238,0.119-0.238,0.119,0
		c0,0.117,0,0.117,0.119,0.117c0.116,0,0.116,0,0.116,0.117c0,0.237-0.116,0.593-0.116,0.948c0,0.354,0.234,0.827,0.589,1.181
		c0.12,0.121,0.357,0.121,0.594,0.121c0.355-0.121,0.472-0.121,0.593-0.121c0-0.116-0.121-0.232-0.121-0.354
		c0-0.118,0-0.239,0.121-0.239c0.116,0,0.233,0,0.355,0c0.116,0,0.235,0.121,0.235,0.36c0,0.116-0.119,0.232-0.119,0.232
		c-0.116,0-0.116,0.121-0.116,0.239c0,0.354,0.235,0.472,0.591,0.472c0.353,0,0.591,0.117,0.591,0.355
		c0,0.116-0.119,0.116-0.355,0.116c-0.235,0-0.355,0-0.235,0.121c0.116,0.117,0.116,0.238,0.116,0.355s0,0.238,0.119,0.238
		c0.236,0,0.473-0.121,0.71-0.355c0.238-0.238,0.355-0.238,0.355,0c0,0.234,0,0.472,0.117,0.706c0.118,0.355,0.118,0.477,0,0.593
		c0.118,0,0.237,0.118,0.237,0.355s0.118,0.355,0.236,0.472c0.235,0.121,0.354,0,0.591-0.116c0.238-0.239,0.355-0.355,0.355-0.593
		c0.237,0,0.591,0.121,0.948,0.237c0.354,0.116,0.472,0.237,0.354,0.355c-0.476,0.354-0.593,0.589-0.354,0.589
		c0.354,0,0.591,0.12,0.591,0.476v0.355c0.591-0.238,1.184-0.238,1.537,0c0-0.117-0.117-0.238-0.117-0.355s0-0.237,0.117-0.355
		c0.37-0.185,0.641-0.268,0.832-0.26c0-0.034-0.003-0.053-0.003-0.095c0-0.238,0-0.354-0.121-0.354
		c0.238-0.355,0.476-0.355,0.712-0.239c0.236,0.121,0.355,0.477,0.236,0.828c0.354-0.234,0.826-0.234,1.303,0
		c0.472,0.238,0.709,0.354,0.709,0.354s0.235,0,0.356,0.121c0.233,0,0,0.355-0.476,0.827c0,0.238-0.354,0.238-0.709-0.117
		c-0.357-0.354-0.711-0.593-1.064-0.593c0-0.117-0.119-0.238-0.355-0.473h-0.236c0.117,0.238,0.117,0.473,0.117,0.594
		c-0.117,0.117-0.117,0.234-0.117,0.351c-0.237-0.116-0.476-0.233-0.71-0.351c-0.237-0.121-0.354-0.121-0.354,0.117
		c0,0.233,0,0.354-0.119,0.354c0,0.117-0.117,0.234-0.117,0.593c0,0.355,0,0.473,0.236,0.473c0.472,0,0.827,0,1.182-0.117
		c0.238-0.121,0.71-0.121,1.065-0.121c0.237,0,0.474,0,0.593,0.121c0.117,0.117,0.236,0.117,0.354,0.117
		c0.236,0,0.591,0.117,1.066,0.117c0.473,0,0.709-0.234,0.709-0.59v-0.476c0.712-0.71,1.064-1.42,1.064-2.01
		c0-0.354-0.118-0.475-0.474-0.475c-0.118,0-0.237,0-0.237-0.118c0-0.116,0-0.237,0.119-0.354c0.474-0.589,0.711-1.065,0.711-1.42
		c0-0.118-0.119-0.473-0.355-0.827c-0.116-0.118-0.116-0.118-0.355-0.118c-0.237,0-0.237,0-0.119-0.121
		c0.358-0.354,0.593-0.943,0.593-1.653c0-0.476-0.118-0.831-0.355-1.064l-0.355-0.355c-0.116-0.121-0.355-0.121-0.708-0.121
		c-0.357,0-0.591,0-0.829-0.116c0-0.118,0-0.239,0.117-0.355c0.121-0.118,0.121-0.238-0.117-0.238h-0.118h-0.237v-0.589l0.594,0.116
		c0,0.121-0.121,0.238-0.356,0.473c0.474,0,0.711,0,0.711-0.117s0.117-0.355,0.117-0.589c0-0.359,0-0.477-0.238-0.593
		c-0.116,0-0.233-0.118-0.59-0.238c-0.237-0.117-0.473-0.473-0.592-0.828c-0.117,0-0.236-0.116-0.473-0.237
		c-0.237-0.116-0.475-0.234-0.828-0.355c-0.355-0.116-0.829-0.233-1.302-0.472c-0.354-0.234-0.709-0.354-0.948-0.472
		c0-0.121,0.121-0.121,0.475-0.121h0.355c-0.236-0.589-0.355-0.944-0.119-1.182c0.119-0.118,0.237-0.355,0.354-0.593
		c0.238-0.234,0.238-0.353,0.117-0.353c-0.117,0-0.234-0.121-0.353-0.121c-0.119,0-0.236,0-0.355,0.121
		c-0.475,0.474-0.828,0.706-1.184,0.706c-0.234,0-0.354-0.116-0.354-0.472c0-0.116,0.119-0.234,0.235-0.234
		c0.118,0,0.118-0.121-0.116-0.237c-0.594-0.237-0.948-0.472-0.948-0.831c0-0.117,0-0.117-0.119-0.117c-0.116,0-0.116,0-0.116-0.117
		c0.116-0.354,0.116-0.593-0.119-0.593c-0.592,0-0.948-0.117-0.948-0.472c0-0.121-0.118-0.355-0.354-0.711
		c-0.236-0.234-0.355-0.472-0.355-0.593l0.119-0.355c0.118-0.116,0.236-0.233,0.355-0.472c0.116-0.233,0.116-0.354,0-0.354
		c-0.237,0-0.475,0.121-0.71,0.354c-0.355,0.238-0.473,0.238-0.593,0c-0.117-0.117-0.236-0.354-0.355-0.71
		c-0.117-0.355-0.473-0.59-0.943-0.71c-1.422-0.589-2.369-1.3-2.722-2.247l-0.119,0.354c-0.117-0.116-0.117-0.233-0.117-0.354
		c0-0.117,0.117-0.117,0.236-0.117c-0.119-0.121-0.119-0.238-0.119-0.354c0-0.121-0.117-0.238-0.355-0.355
		c-0.121-0.117-0.237-0.237-0.237-0.355c-0.118-0.116-0.236-0.237-0.591-0.354c-0.236-0.117-0.476-0.117-0.592-0.117
		c-0.117,0.117-0.238,0.117-0.355,0.117c-0.119-0.117-0.354-0.238-0.71-0.354c-0.354,0-0.593-0.355-0.593-0.711
		c0-0.117,0-0.237-0.117-0.237s-0.117-0.117-0.117-0.234c0-0.121,0.117-0.121,0.234-0.121c0.121,0,0.238,0,0.238-0.117v-0.121
		c-0.117-0.234-0.238-0.472-0.591-0.589c-0.237-0.117-0.475-0.117-0.709,0.117c-0.355,0.354-0.476,0.472-0.476,0.354
		c0-0.234-0.117-0.354-0.236-0.589c-0.118-0.238-0.236-0.355-0.355-0.593c0-0.117,0.119-0.238,0.237-0.238s0.118-0.117-0.118-0.234
		c-0.235-0.238-0.354-0.355-0.472-0.355c-0.119,0-0.237,0.117-0.476,0.472l-0.117-0.354c0.238,0,0.355,0,0.355-0.117
		c0-0.238-0.238-0.593-0.594-0.831c-0.472-0.234-0.59-0.473-0.59-0.707c0-0.593,0-0.948-0.118-0.948
		c-0.119,0-0.235,0.117-0.356,0.234c-0.118,0.238-0.118,0.238-0.118,0.121c0-0.593-0.116-0.945-0.354-1.183
		c-0.118-0.121-0.354-0.238-0.71-0.355c-0.354-0.121-0.472-0.238-0.472-0.476c0-0.117,0-0.117,0.117-0.117
		c-0.117,0-0.238-0.117-0.355-0.472c-0.117-0.355-0.236-0.476-0.472-0.476c-0.119-0.355-0.236-0.472-0.355-0.472
		c-0.116,0-0.237-0.117-0.355-0.117c-0.116,0-0.116,0-0.116,0.117c0,0.593-0.121,0.948-0.357,0.948
		c-0.235,0-0.235-0.238-0.119-0.593c0.238-0.355,0.238-0.589,0.119-0.709c-0.235-0.234-0.354-0.473-0.473-0.71
		c-0.118-0.238-0.235-0.473-0.474-0.827l-0.472-0.472c-0.119,0-0.238,0.117-0.238,0.117s-0.116,0-0.236-0.117
		c-0.119-0.121-0.235-0.238-0.354-0.593c-0.119-0.355-0.237-0.473-0.475-0.473c-0.236,0-0.355,0-0.355-0.117
		c0.119-0.238,0.119-0.359,0-0.359c-0.235,0-0.472-0.117-0.589-0.355c-0.12-0.234-0.238-0.352-0.355-0.352
		c-0.357,0-0.713-0.237-0.948-0.71c-0.235-0.476-0.472-0.709-0.71-0.709c-0.474,0-0.71,0-0.71-0.121v-0.352
		c-0.827,0-1.537-0.358-2.364-1.186c-0.121-0.117-0.237-0.117-0.477-0.117c-0.234,0-0.353,0-0.472-0.116
		c-0.235-0.121-0.593-0.238-0.946-0.594c-0.355-0.355-0.828-0.476-1.184-0.476c-0.118,0-0.355,0-0.591,0.121
		c-0.236,0.117-0.354,0.117-0.354,0c0-0.121,0.117-0.238,0.117-0.355c0-0.117,0-0.117-0.117-0.117c-0.593,0-1.185-0.355-1.658-0.831
		c-0.117-0.117-0.117-0.238-0.117-0.355c0-0.117,0-0.117-0.121-0.117c-0.234,0-0.59-0.117-0.943-0.355
		c-0.355-0.238-0.593-0.355-0.711-0.355h-0.354l-0.354-0.473c-0.119-0.119-0.355-0.119-0.594-0.119c-0.234,0-0.355,0-0.355-0.117
		c0-0.357-0.236-0.474-0.589-0.474c-0.354,0-0.593,0-0.831,0c-0.116,0-0.235-0.117-0.355-0.117c-0.232,0-0.353-0.121-0.588-0.357
		c-0.119-0.117-0.119-0.236-0.119-0.236s0-0.117-0.119-0.236c-0.237-0.119-0.711-0.354-1.537-0.354
		c-0.829-0.12-1.301-0.237-1.537-0.591c0-0.355-0.354-0.591-0.948-0.71c-0.473-0.117-0.827-0.354-0.947-0.71
		c-0.118-0.355,0-0.591,0.237-0.827c0.355-0.238,0.475-0.355,0.593-0.476c0.117-0.236,0.354-0.236,0.711-0.236
		c0.233,0.119,0.471,0.119,0.591,0.119c0.235,0,0.355,0,0.355-0.119c0.116-0.236,0.353-0.355,0.591-0.355
		c0.354,0,0.472,0,0.593,0.119c0.116,0.236,0.354,0.236,0.588,0.236c0.355,0,0.474,0,0.594,0.119
		c0.591,0.238,0.943,0.355,1.183,0.355c0.116,0,0.472,0.117,0.947,0.355c0.473,0.355,0.828,0.472,1.183,0.591
		c0.118,0,0.118-0.12,0.118-0.355c0-0.117,0.118-0.117,0.237-0.117c0.116,0.117,0.236,0.117,0.354,0.117
		c0.117,0,0.234-0.117,0.234-0.236c0.12-0.238,0.12-0.238,0.12-0.117c0.118,0.117,0.239,0.117,0.355,0.117c0.117,0,0.117,0,0,0.119
		c-0.116,0.236-0.116,0.472,0.117,0.591c0.238,0.117,0.474,0.238,0.827,0.238l0.354-0.121c0.712,0,1.185,0.238,1.421,0.712
		c0.355,0.353,0.829,0.591,1.42,0.591l0.476-0.119c0.117,0,0.234,0,0.234,0.119c0,0.117,0.118,0.117,0.355,0.117
		c0.118,0,0.237-0.117,0.354-0.236c0.117-0.236,0.117-0.236,0.117-0.119c0,0.119-0.117,0.238-0.117,0.355
		c0,0.117,0,0.117,0.117,0.117l1.42-0.117c0.477,0,0.712,0,0.829,0.117c0.236,0.121,0.592,0.238,1.185,0.238
		c0.591,0.12,0.943,0.355,1.304,0.71c0.471,0.472,0.823,0.71,1.182,0.71h0.117c0.237-0.117,0.71,0,1.419,0.354
		c0.711,0.355,1.066,0.59,1.302,0.59s0.354,0,0.474-0.117c0-0.118,0-0.354,0-0.589c0-0.238,0.117-0.355,0.355-0.355
		c0.235,0,0.354,0,0.354,0.117l-0.119,0.71c0,0.59,0.709,0.828,2.129,0.828l0.355,0.117c0.12,0,0.237-0.117,0.473-0.355
		c0,0.121,0.12,0.121,0.12,0.121c0.117,0,0.117,0,0.117,0.117s0,0.238-0.117,0.238c-0.12,0-0.12,0.117,0,0.234
		c0.354,0.355,0.947,0.593,1.537,0.593h0.827h0.476l-0.119,0.354c0,0.238,0.236,0.355,0.709,0.355c0.475,0,0.709,0.117,0.709,0.234
		c0,0.121,0,0.121,0.121,0.121c0.118,0,0.234,0,0.354,0.117c0.236,0.117,0.474,0.355,0.712,0.355c0.234,0,0.472,0.121,0.708,0.238
		c0.236,0,0.475,0,0.829,0c0.355,0,0.591,0.117,0.591,0.354v0.473c1.064,0,1.893,0.238,2.366,0.593c0.117-0.121,0.238-0.121,0.354,0
		l0.355,0.589c0.118,0,0.236,0,0.354,0.121c0.12,0.117,0.236,0.117,0.357,0c0-0.121,0-0.238,0.116-0.355
		c0.117-0.117,0.239-0.117,0.355-0.117c0.119,0,0.238,0.117,0.119,0.352c-0.119,0.355-0.119,0.472,0,0.593c0,0.117,0,0,0.119-0.121
		c0.116-0.234,0.236-0.234,0.353-0.117c0.236,0.117,0.475,0.355,0.712,0.593c0.236,0.355,0.473,0.473,0.827,0.593
		c0,0.352,0,0.473,0.118,0.352c0.118-0.117,0.237-0.234,0.475-0.352c0.234-0.237,0.354-0.237,0.473-0.12
		c0.117,0.12,0.236,0.237,0.354,0.472c0.118,0.238,0.237,0.359,0.355,0.359c0.827,0,1.3,0.234,1.418,0.706
		c0.119,0,0.237,0.121,0.356,0.238c0.118,0.117,0.234,0.238,0.474,0.238c0.591,0,0.826,0.355,0.591,0.944c0.22,0,0.67,0,1.301,0
		c-0.117-0.117-0.117-0.117,0-0.117c0.119,0,0.235,0,0.354,0.117c-0.008,0.007-0.005,0.015-0.011,0.023
		c0.552,0.049,0.854,0.271,0.959,0.687c0.354-0.238,0.59-0.238,0.59,0c0,0.593,0.237,0.948,0.712,0.948
		c0.235,0,0.354-0.117,0.591-0.117s0.355,0,0.355,0.117v0.355c0.237,0,0.354,0,0.593,0.117c0.116,0,0.234-0.117,0.353-0.355
		c0.119-0.117,0.237-0.234,0.354-0.117c0.12,0.117,0.236,0.234,0.354,0.355c0.238,0.117,0.238,0.234,0.122,0.354v0.355
		c0.116,0,0.235,0.117,0.235,0.472c0,0.354,0.118,0.472,0.235,0.354c0.593,0,1.066-0.354,1.421-0.71
		c0.118,0.121,0.118,0.121,0.354,0.121s0.355,0,0.593,0.117c0.117-0.238,0.355-0.355,0.827-0.355c0.473,0,0.711,0.117,0.711,0.355
		c0,0.117-0.122,0.234-0.355,0.355c-0.237,0.117-0.237,0.234,0,0.355c0.233,0.117,0.355,0.234,0.355,0.355c0,0.117,0,0.238,0,0.355
		h-0.475v1.42c0.236,0,0.353,0,0.475,0.117c0.117,0.117,0.238,0.117,0.354,0c0.118-0.117,0.236-0.238,0.355-0.472
		c0.236-0.121,0.353-0.237,0.59-0.121c0.237,0.08,0.41,0.091,0.593,0.117c-0.002-0.095,0.023-0.211,0.119-0.355
		c0.234-0.352,0.472-0.472,0.827-0.234c0.104,0.208,0.019,0.404-0.082,0.532c0.11,0.215,0.229,0.424,0.555,0.533
		c0.355,0.117,0.473,0.238,0.473,0.355s-0.117,0.117-0.353,0.117c-0.236,0-0.357,0-0.357,0.117c0,0.358-0.117,0.476-0.355,0.476
		c-0.117,0-0.117,0-0.354,0c-0.235,0-0.235,0-0.119,0.117c0.119,0.238,0.355,0.355,0.711,0.355c0.354,0,0.594,0,0.827-0.234
		l-0.117-0.476c0-0.117,0.117-0.237,0.355-0.354c0.235-0.117,0.355-0.234,0.355-0.473c0-0.117,0-0.238-0.12-0.355
		c-0.119-0.117-0.119-0.117,0-0.117c0.12,0,0.357-0.121,0.592-0.237c0.237-0.121,0.354-0.121,0.354,0.117s0.119,0.355,0.354,0.355
		c0.118,0,0.238,0,0.355-0.117s0.117-0.117,0.117,0s0.121,0.117,0.357,0.117c0.235,0,0.354,0.121,0.354,0.355
		c-0.235,0-0.474,0.121-0.712,0.238c-0.117,0.117-0.354,0.234-0.708,0.234c0.119,0.237,0.119,0.476-0.119,0.831
		c0.593,0.117,0.827,0.117,0.948,0c0.236-0.117,0.591-0.472,0.943-0.831c0.477-0.352,0.711-0.59,0.948-0.59h0.119
		c0.472,0.117,0.825,0,1.185-0.117c0.354-0.121,0.589-0.238,0.944-0.355c0.475-0.121,0.948-0.121,1.42-0.121
		s0.829-0.117,1.065-0.355c0.117,0,0.117-0.355,0.117-0.707c-0.117,0-0.235,0-0.235,0.117c-0.118,0.117-0.118,0.117-0.118-0.117
		c0.118,0,0.236-0.121,0.236-0.238c0-0.238,0.117-0.238,0.235-0.121c0.354,0.476,0.475,0.593,0.475,0.358
		c0-0.121,0-0.358-0.12-0.831c0-0.472,0-0.71,0.358-0.71c0.116,0,0.233,0.121,0.472,0.473c0.116-0.352,0.354-0.589,0.354-0.945
		c0-0.238,0.117-0.476,0.354-0.593c1.064-0.827,1.537-1.538,1.537-2.009c0-0.238,0.118-0.593,0.474-0.948
		c0.356-0.355,0.474-0.589,0.474-0.827c0-0.355,0.235-0.593,0.591-0.828c0.477-0.12,0.712-0.354,0.948-0.71
		c-0.119,0-0.355,0.117-0.593,0.234c-0.234,0.238-0.355,0.238-0.355,0.121c0-0.121,0-0.238-0.116-0.355
		c0.116-0.121,0.237-0.238,0.237-0.358c0-0.117,0-0.117-0.121-0.117c-0.116,0-0.236,0-0.591,0c-0.236,0-0.474-0.117-0.708-0.355
		c-0.239-0.472-0.948-0.71-2.131-0.71c-0.474,0-0.71,0.121-0.947,0.476c0,0.234-0.355,0.234-0.71,0.234
		c-0.354,0-0.711-0.117-1.066-0.234c-0.235-0.117-0.353-0.117-0.116-0.117c0.472,0,0.71,0,0.593-0.121
		c-0.238-0.117-0.593-0.355-0.948-0.355c-0.472,0-0.709-0.117-0.948-0.238c-0.116,0-0.235,0-0.588-0.117
		c-0.355-0.117-0.473-0.238-0.473-0.355v-0.354c-0.359-0.117-0.713-0.473-1.304-0.948c-0.593-0.472-0.948-0.707-1.301-0.707
		c-0.235,0-0.354,0.117-0.474,0.355c0,0.113-0.233,0.23-0.672,0.453c0.033,0.072,0.079,0.136,0.079,0.136
		c-0.234,0.117-0.234,0-0.354,0c0-0.117,0-0.117,0.119-0.117l0.034-0.034c-0.129-0.072-0.31-0.087-0.508-0.087
		c-0.237,0-0.354,0-0.354-0.117s0-0.355,0.116-0.355c0.118-0.117,0.118-0.117,0-0.117c-1.302,0-2.13-0.354-2.485-1.182v-0.476
		l-0.946-0.355c-0.118,0-0.237,0.121-0.354,0.355c-0.12,0.121-0.236,0.238-0.355,0.121c-0.353-0.238-0.591-0.355-0.591-0.476
		c0-0.117,0-0.117-0.122-0.117c-0.116,0-0.116,0-0.116-0.118c0-0.236-0.117-0.355-0.236-0.472c-0.236-0.121-0.236-0.238-0.118-0.355
		c0.237-0.121,0-0.357-0.711-0.357c-0.591-0.117-0.946-0.236-0.946-0.591v-0.946l-0.117-0.119c-0.118,0-0.356-0.117-0.711-0.236
		c-0.355-0.117-0.59-0.117-0.828,0.119c-0.117,0.117-0.235,0.472-0.593,0.827c-0.022,0.036-0.045,0.053-0.067,0.087
		c0.038,0.026,0.067,0.056,0.067,0.151c0,0.236,0.122,0.472,0.122,0.591c0.116,0.117,0,0.236-0.355,0.353
		c-0.475,0.119-0.711,0.238-0.711,0.119s0-0.236,0.118-0.355c0.118-0.117,0.118-0.236-0.118-0.472
		c0.057-0.058,0.145-0.113,0.238-0.171c0-0.025-0.002-0.036-0.002-0.064c0-0.119,0.119-0.238,0.119-0.355
		c0-0.121,0-0.121-0.119-0.121h-0.353c-0.121-0.117-0.121-0.234,0-0.353c0.116-0.119,0.116-0.119,0-0.119
		c-0.121,0-0.239,0.119-0.355,0.119c-0.237,0-0.356,0-0.593-0.119c-0.119-0.117-0.119-0.236,0-0.589
		c0.116-0.237,0.116-0.476-0.119-0.593c-0.236-0.119-0.472-0.119-0.708,0.117c0-0.117,0-0.236-0.121-0.236
		c-0.117,0-0.117-0.12-0.117-0.236c-0.117,0.117-0.237,0.117-0.355,0.117s-0.235,0-0.354,0.12c0,0.357,0.119,0.59,0.473,0.829
		c0.354,0.236,0.476,0.355,0.476,0.591c-0.238-0.119-0.355-0.119-0.594-0.119c-0.235,0-0.354,0-0.472-0.117
		c0-0.355,0-0.594-0.119-0.594c-0.118,0-0.236-0.116-0.357-0.116c-0.116,0-0.232,0-0.354,0.116c-0.237,0.357-0.473,0.475-0.59,0.475
		c-0.238,0-0.355-0.236-0.355-0.829c0-0.591-0.117-0.944-0.354-1.182c-0.121,0-0.121,0.117-0.121,0.117s0,0-0.117-0.117
		c-0.117,0-0.235-0.238-0.354-0.71c0-0.472-0.354-0.71-0.711-0.71h-0.116c-0.118,0.119-0.237,0.119-0.475-0.117
		c-0.118,0.117-0.236,0.236-0.472,0.117c-0.236-0.117-0.355-0.117-0.475-0.117c-0.237,0.472-0.472,0.591-0.827,0.591
		c-0.354-0.119-0.593-0.236-0.709-0.591c0-0.121,0.116-0.237,0.235-0.476c0.119-0.236,0.119-0.353-0.119-0.472
		c-0.234-0.236-0.591-0.355-0.946-0.355c0.119-0.234,0-0.472-0.235-0.591c-0.238-0.12-0.355-0.236-0.355-0.474
		c-0.117,0-0.237,0-0.354-0.117c-0.119-0.119-0.238-0.119-0.238,0c0,0.117,0,0.236,0.119,0.236s0.119,0.119,0,0.236
		c-0.119,0.12-0.355,0-0.708-0.117c-0.354-0.119-0.594-0.238-0.831-0.238l-0.354,0.119c-0.118,0.119-0.354,0.119-0.592,0.119
		s-0.475,0-0.709,0c-0.119,0-0.119-0.119-0.119-0.238c0-0.117,0-0.236-0.119-0.236c-0.236,0-0.353-0.119-0.589-0.236
		c-0.238-0.117-0.355-0.238-0.476-0.238h-0.355c0-0.236,0.119-0.472,0.119-0.591s0-0.236-0.119-0.236
		c-0.235,0-0.354-0.117-0.472-0.236c-0.117-0.236-0.117-0.357,0-0.591c-0.355,0.117-0.711,0.117-1.065,0.117
		c-0.355,0-0.592-0.117-0.592-0.355v-0.119c0.119-0.236,0.119-0.473,0.119-0.591c0-0.117-0.119-0.236-0.237-0.236
		c-0.238,0-0.473,0-0.591-0.119c-0.119-0.117-0.355-0.238-0.709-0.355c-0.237-0.117-0.476-0.117-0.593,0
		c-0.119,0.117-0.237,0.117-0.355,0.117c-0.119,0-0.235,0.121-0.354,0.121c-0.234,0.117-0.234,0.117-0.118,0.236
		c0.001,0,0.001-0.002,0.001-0.002c0.117,0,0.117,0,0.117,0.121c0,0.011-0.004,0.021-0.004,0.034
		c0.249,0.332,0.313,0.423,0.004,0.321c-0.04-0.042-0.068-0.087-0.1-0.133c-0.01,0.002-0.008,0.013-0.018,0.013
		c0,0.12-0.121,0-0.121-0.119c0-0.057,0.002-0.113,0.015-0.157c-0.041-0.172-0.021-0.36,0.106-0.554
		c0.236-0.472,0.353-0.708,0.353-0.944l-0.116-0.355c-0.946,0.355-1.539,0.472-1.895,0.472c-0.234,0-0.355,0-0.472-0.117
		c0-0.121,0-0.238-0.121-0.355c-0.117-0.121-0.235-0.121-0.354,0c-0.235,0.117-0.355,0.117-0.591,0.117
		c-0.237,0-0.354-0.117-0.476-0.238c0-0.117,0.121-0.236,0.121-0.355c0-0.117,0-0.236-0.121-0.236c-0.354,0-0.589,0-0.944,0.119
		c-0.355,0.117-0.593,0.117-0.829,0.117c-0.354,0-0.473-0.236-0.473-0.589c-0.354,0.117-0.591,0.236-0.711,0.353
		c-0.234,0.119-0.354,0.236-0.589,0.236h-0.12c-0.235-0.117-0.473-0.117-0.709-0.117c-0.237,0.117-0.475,0.117-0.71,0.117
		c-0.354-0.236-0.592-0.708-0.592-1.42c0-0.117,0-0.117,0.238-0.117c0.071,0,0.085,0,0.117,0c-0.117-0.236-0.355-0.472-0.71-0.71
		c-0.355-0.355-0.476-0.472-0.476-0.593c0-0.117,0-0.117,0.12-0.117c0.117,0,0.235-0.119,0.235-0.473
		c0-0.354,0.12-0.472,0.357-0.354c0.117,0.236,0.117,0.472,0.117,0.591c0,0.117,0,0.236,0.116,0.236c0.122,0,0.357,0,0.357-0.119
		c0.118-0.117,0.118-0.117,0.118,0c0,0.236,0.117,0.474,0.354,0.591c0.236,0.238,0.355,0.238,0.592,0.121
		c0.119-0.121,0.119-0.238,0.119-0.238c-0.119,0-0.119-0.117-0.119-0.238c0-0.473,0.237-0.708,0.593-0.827
		c0.354-0.117,0.589,0.119,0.589,0.474c0,0.474,0.12,0.708,0.476,0.708l0.473-0.117c0-0.117,0.116-0.117,0.354-0.117
		c0.117,0,0.238,0,0.117-0.121c-0.236-0.473-0.236-0.708,0-0.944c0.237-0.117,0.355-0.238,0.477-0.117l0.353,0.353
		c0.474,0,0.708,0.119,0.708,0.355c0,0.117,0,0.353-0.117,0.591c-0.117,0.355-0.117,0.474,0,0.593
		c0.117,0.117,0.355,0.117,0.593,0.117c0.235,0,0.355,0,0.355-0.117c0-0.238,0.117-0.355,0.354-0.593l-0.118-0.355
		c0.118-0.236,0.118-0.236,0.118-0.119c0,0.119,0,0.236,0.118,0.236c0.117,0,0.354,0,0.594,0c0.235,0,0.354-0.117,0.354-0.353
		c0-0.12,0-0.355-0.118-0.355c-0.119,0-0.119-0.119,0-0.236c0.197-0.197,0.323-0.208,0.493-0.144
		c0.022-0.081,0.125-0.095,0.334-0.095c0.119,0,0.119,0,0.119,0.117c-0.14,0.047-0.215,0.066-0.289,0.083
		c0.149,0.124,0.236,0.339,0.263,0.594c0.012,0.006,0.012,0.035,0.026,0.035c0.062,0,0.09,0.034,0.104,0.083
		c0.153-0.059,0.252-0.06,0.252,0.034c0,0.119-0.117,0.236-0.117,0.357c0,0.117,0,0.234,0.117,0.355
		c0.118,0.117,0.354,0.236,0.59,0.355c0.237,0.117,0.355,0.353,0.355,0.708c0.119-0.119,0.356-0.119,0.591-0.119
		c0.355,0.119,0.475,0.119,0.593,0.119c-0.237-0.708-0.237-1.063,0-0.946c0.355,0.119,0.828,0.119,1.302,0.119
		c0.472,0,0.708-0.119,0.591-0.357c-0.119-0.234-0.119-0.472-0.119-0.591c0-0.117,0.119-0.236,0.236-0.236
		c0.594,0,0.947-0.117,1.065-0.472c0,0.117,0,0.117,0.119,0.117c0.118-0.117,0.353-0.117,0.592-0.117c0.237,0,0.354,0,0.354-0.117
		l-0.117-0.476c0-0.117,0-0.117,0.117-0.117c0.118,0,0.238,0,0.354,0.117c0.119,0.119,0.238,0.119,0.354,0.119
		c0.118,0,0.238-0.119,0.238-0.119c0-0.117,0.117-0.117,0.238-0.117c0.234,0,0.472,0.117,0.59,0.472
		c0.118,0.355,0.235,0.474,0.355,0.474l0.116-0.119c0-0.117-0.116-0.234-0.236-0.472c-0.117-0.238,0.12-0.355,0.591-0.355
		c0.238,0,0.593,0.117,0.829,0.355c0.236,0.117,0.355,0.355,0.355,0.709c1.42-0.354,2.485-0.472,3.431-0.472
		c0.119,0,0.119,0,0.119,0.117s0,0.117,0.119,0c0-0.117,0.117-0.238,0.236-0.355c0.235-0.119,0.354-0.119,0.591,0
		c0.237,0.355,0.711,0.472,1.183,0.472s0.947,0,1.42-0.117s0.947-0.117,1.303-0.117c0.117,0,0.117,0,0.117-0.121
		c0-0.117,0-0.117,0.119-0.117c0.117,0,0.235,0,0.235,0.117c0,0.121,0.118,0.121,0.238,0.121c0.71,0,1.299-0.121,1.654-0.357
		c0.355-0.119,0.829-0.119,1.42-0.119c0.117,0,0.239,0,0.239-0.117c0-0.119,0.116-0.119,0.235-0.119l1.892,0.119
		c0.475,0,0.712,0,0.946-0.119c0.238-0.119,0.475-0.236,0.711-0.355c0.237-0.116,0.471-0.116,0.71-0.116
		c0-0.12-0.117-0.237-0.117-0.358c0-0.116,0-0.233,0.117-0.233h0.355c0-0.121,0-0.238,0.118-0.238c0.119,0,0.235-0.119,0.472-0.236
		l0.119-0.354c0.237,0,0.593,0,0.948,0.119c0.354,0.117,0.589,0.236,0.589,0.353c0,0.119-0.117,0.119-0.235,0.119
		c-0.237,0-0.237,0-0.118,0.117c0.709,0.476,1.064,0.476,1.186,0.121c0.116-0.357,0.116-0.593,0.116-0.949
		c0-0.237,0-0.472-0.116-0.71c-0.121-0.119-0.121-0.119-0.121,0c0,0.117,0,0.117-0.118,0.117c-0.237,0-0.354,0-0.354-0.117
		c0-0.119,0.117-0.236,0.117-0.355c0-0.117,0-0.117-0.117-0.117c-0.238,0-0.474,0-0.592,0.117c-0.119,0.119-0.235,0.119-0.354,0.119
		c-0.119,0-0.358-0.119-0.358-0.355s0-0.353,0.239-0.353c0.237,0,0.354,0,0.354-0.121c0-0.237-0.116-0.472-0.354-0.71
		c-0.355-0.236-0.355-0.355-0.118-0.236c0.118,0,0.237-0.119,0.355-0.119c0.116,0,0.235,0,0.354,0.119
		c0.118,0.119,0.355,0.119,0.712,0.119c0.355,0,0.589-0.119,0.589-0.355c0-0.354-0.117-0.71-0.233-0.948
		c-0.121-0.353-0.239-0.472-0.239-0.589h0.118c0,0.117,0,0.117,0.121,0.117h1.181l0.118,0.355c0-0.119,0.119-0.355,0.354-0.71
		c0.238-0.355,0.354-0.593,0.354-0.946l-0.116-0.474l0.116-0.354c0-0.236-0.116-0.591-0.116-0.947c0-0.353,0-0.946,0.116-1.539
		c-0.354,0-0.59,0-0.709-0.117c-0.238-0.117-0.355-0.236-0.592-0.355c-0.354-0.117-0.946-0.117-1.656,0
		c-0.709,0.119-1.302,0.119-1.655,0.119c-0.12,0-0.236,0-0.236,0.119c0,0.117-0.119,0.117-0.237,0.117s-0.234-0.117-0.234-0.236
		c-0.121-0.119-0.121-0.236-0.238-0.236c-0.475,0-1.065-0.119-1.659-0.355c-0.591-0.238-1.181-0.355-1.655-0.355
		c-0.472,0-0.709,0.237-0.709,0.591v0.474c-0.118,0.355-0.118,0.591,0.117,0.944c0.238,0.238,0.355,0.477,0.355,0.71l-0.117,0.355
		c-0.355,0.119-0.593,0.238-0.948,0.119c-0.236-0.119-0.354-0.236-0.116-0.591c0.063-0.049,0.102-0.079,0.152-0.119
		c-0.115-0.092-0.247-0.213-0.39-0.354c0.044,0,0.075,0.005,0.117,0.005c0-0.004,0-0.001,0-0.005c0-0.591-0.117-1.063-0.473-1.418
		c-0.234-0.355-0.946-0.474-2.131-0.474h-1.893l-1.182-0.12c-0.238,0-0.355,0-0.355,0.12c0,0.353,0,0.591-0.118,0.591
		c-0.236,0-0.355-0.117-0.355-0.238c0-0.117,0-0.234-0.117-0.353c-0.474-0.237-1.066-0.237-1.775,0
		c-0.709,0.236-1.301,0.353-1.655,0.353c-0.121,0-0.239,0.121-0.355,0.356c-0.119,0.119-0.237,0.236-0.355,0.119
		c-0.593-0.238-0.947-0.355-1.184-0.355s-0.355,0-0.472,0.117c-0.236,0.119-0.355,0.238-0.355,0.355c0,0.117,0,0.238-0.119,0.355
		h-0.355l-0.116-0.472c-0.121-0.119-0.357-0.119-0.593,0.117c-0.236,0.238-0.474,0.355-0.828,0.355h-0.12
		c-0.589-0.472-1.182-0.71-1.893-0.71c-0.354,0-0.711,0.119-1.065,0.355c-0.117,0.238-0.117,0.355-0.117,0.593
		c0,0.233,0,0.353-0.119,0.353c-0.118-0.12-0.353-0.12-0.591-0.12c-0.236,0-0.354,0-0.354-0.117c0-0.116,0-0.354,0.118-0.354
		c0.119-0.117,0.119-0.117,0-0.117c-0.356,0-0.709,0-1.064-0.121c-0.354-0.117-0.591-0.117-0.946-0.117s-0.71-0.117-1.064-0.355
		c-0.117-0.117-0.355-0.117-0.71,0c-0.355,0.119-0.592,0.119-0.827,0c-0.121-0.117-0.355-0.238-0.712-0.472
		c-0.474-0.238-0.592,0-0.592,0.472v0.119h0.118c0,0.353,0,0.474-0.118,0.474c-0.117,0-0.117-0.121-0.117-0.238
		c0-0.117,0-0.236-0.117-0.236c-0.237,0-0.593-0.119-0.831-0.236c-0.235-0.121-0.472-0.238-0.827-0.238
		c-0.237,0-0.354,0-0.474,0.117c-0.119,0.121-0.119,0.238,0,0.238s0.119,0.119,0,0.238c0,0.355,0,0.472-0.119,0.355
		c-0.116-0.121-0.354-0.355-0.589-0.355c-0.238,0-0.355-0.119-0.355-0.238c0-0.117,0.117-0.117,0.355-0.117
		c0.354,0,0.473,0,0.589-0.121c0-1.063-0.234-1.538-0.589-1.538l-0.355,0.119c0,0.119,0.117,0.236,0.117,0.236
		c0.12,0,0.12,0.119,0.12,0.238c-0.237,0-0.357,0.236-0.476,0.591c-0.116,0.353-0.235,0.591-0.354,0.591h-0.116
		c-0.12-0.117-0.12-0.238-0.12-0.355s0-0.236,0.12-0.236c0-0.12,0.116-0.237,0.116-0.474c0-0.236,0-0.355-0.116-0.355
		c-0.239,0-0.474-0.117-0.593-0.355c-0.239-0.354-0.355-0.472-0.592-0.591c-0.119,0.12-0.237,0.12-0.354,0.12
		c-0.118,0-0.118,0-0.118,0.117c0,0.119,0.118,0.237,0.118,0.354c0,0.119,0,0.238-0.118,0.238c-0.235,0-0.474,0.236-0.828,0.591
		c-0.355,0.355-0.592,0.591-0.828,0.708c-0.118,0-0.118-0.117-0.118-0.473l-0.12-0.354c-0.116,0-0.237,0.119-0.354,0.119
		s-0.238,0-0.238-0.119l-0.116-0.472c-0.236-0.119-0.592-0.119-0.827,0.117c-0.238,0.238-0.477,0.355-0.711,0.474
		c-0.119,0.119-0.237,0-0.593-0.119c-0.233-0.117-0.473-0.236-0.71-0.236c-0.236,0-0.355,0.119-0.355,0.355
		c0,0.355-0.116,0.474-0.472,0.355c-0.355-0.12-0.472-0.355-0.472-0.71c-0.121,0-0.356-0.119-0.71-0.119
		c-0.355,0-0.593,0-0.593,0.238c0,0.117,0,0.236,0.12,0.236c0.117,0,0.117,0.119,0,0.236c-0.12,0.12-0.12,0.238-0.12,0.355
		s0,0.117-0.118,0.117c-0.121,0-0.121,0-0.121-0.117s0-0.117-0.116-0.117c-0.118,0-0.118,0-0.118,0.117s0,0.117-0.118,0
		c-0.354-0.117-0.828-0.236-1.655-0.117c-0.711,0.117-1.185,0.117-1.421,0v-0.119c-0.118-0.12-0.118-0.237,0.117-0.355
		c-0.354,0-0.589,0.236-0.944,0.591c-0.237,0.355-0.476,0.593-0.593,0.593l-0.355-0.119c-0.235,0.474-0.589,0.474-0.946,0.236
		c-0.473-0.236-0.708-0.355-0.946-0.355c-0.116,0-0.237,0.119-0.354,0.355c-0.117,0.238-0.238,0.355-0.474,0.238
		c0.119,0.117,0.119,0.236,0.119,0.355c0,0.116,0,0.116-0.119,0.116c-0.12,0-0.236,0-0.353-0.116c-0.12-0.12-0.238-0.12-0.355,0
		c-0.712,0.472-1.065,0.71-1.184,0.71c0-0.357-0.12-0.477-0.354-0.357c-0.238,0.119-0.477,0.119-0.713,0.119
		c-0.118,0-0.235,0.117-0.354,0.117c-0.116,0-0.236,0-0.353-0.117c-0.121-0.238-0.121-0.472,0-0.71
		c0.116-0.238,0.116-0.472,0.116-0.827h-0.472c0,0.117,0,0.236,0,0.355c0,0.117,0,0.117-0.121-0.119
		c-0.117-0.119-0.235-0.236-0.473-0.356c-0.236-0.117-0.354-0.117-0.354,0.121c0,0.236,0,0.355,0.118,0.472
		c0.118,0.117,0.118,0.238,0.118,0.474s-0.118,0.353-0.354,0.353c-0.118,0-0.118,0-0.118-0.117c0-0.116,0-0.116-0.119,0
		c-0.118,0.117-0.473,0.117-0.946,0.117s-0.829,0.12-1.067,0.355c-0.117,0.119-0.234,0.355-0.234,0.593
		c0,0.236-0.118,0.355-0.237,0.236c-0.118-0.236-0.236-0.236-0.473-0.119c-0.238,0.238-0.354,0.238-0.354,0.119
		c-0.119-0.474-0.475-0.71-1.064-0.591c-0.118,0.117-0.239,0.236-0.355,0.591c-0.118,0.236-0.238,0.355-0.355,0.119
		c-0.119-0.238,0-0.474,0.117-0.593c0.238-0.117,0.238-0.236,0.12-0.236c-0.12-0.119-0.356-0.236-0.593-0.354
		c-0.235-0.12-0.472-0.12-0.826-0.12c-0.121,0-0.239,0-0.355,0.12c-0.119,0.119-0.237,0.236-0.355,0.354
		c-0.119-0.119-0.235-0.119-0.355,0c-0.354,0.119-0.593,0.236-0.709,0.119c-0.239-0.355-0.71-0.238-1.183,0.117h-0.476l-0.354-0.591
		l0.354-0.353c0-0.12,0.119-0.238,0.119-0.477c0-0.234,0-0.353-0.119-0.472c-0.117-0.117-0.473-0.117-1.066,0
		c-0.232,0.238-0.354,0.593-0.354,1.182c0.121,0.477,0.121,0.829,0.121,0.948v0.117l-0.355-0.117
		c-0.119-0.119-0.238-0.238-0.355-0.238c-0.119,0-0.119-0.117-0.119-0.236l0.119-0.354c-0.355,0.236-0.948,0.354-1.656,0.354
		c-0.118,0-0.236,0-0.355-0.119c-0.118-0.117-0.118-0.117-0.118,0c0,0.474-0.118,0.593-0.355,0.355l-0.355-0.355
		c0.236,0,0.474,0,0.593-0.117c0.118-0.119,0.236-0.238,0.236-0.472c0-0.12,0-0.238-0.118-0.355c-0.118-0.121-0.118-0.121,0-0.121
		s0.355,0,0.593,0.121c0.354,0.117,0.472,0.117,0.589,0c0-0.121-0.117-0.355-0.235-0.593c-0.119-0.355-0.119-0.472,0.118-0.591
		c0.827-0.355,1.183-0.71,1.183-1.065c0-0.119-0.117-0.119-0.355-0.119h-0.71c0-0.236-0.117-0.354-0.354-0.591
		c0.119-0.119,0.237-0.236,0.237-0.591c0-0.238,0.117-0.472,0.237-0.593c0.235,0.121,0.59,0.355,0.828,0.355
		c0.355,0.119,0.473,0.119,0.59,0.119c0.121-0.119,0.237-0.119,0.477-0.119c0-0.234,0.116-0.355,0.354-0.472
		c0.236-0.119,0.354-0.236,0.236-0.472c0-0.238-0.355-0.355-0.713-0.355c-0.354,0-0.707,0.117-1.063,0.355
		c-0.119-0.238-0.236-0.474-0.119-0.71c0.119-0.238,0.238-0.355,0.594-0.355c0.117,0,0.234,0.117,0.234,0.234
		c0,0.238,0.121,0.238,0.237,0.121l0.355-0.355c0-0.119,0-0.354,0.118-0.593c0.119-0.236,0.119-0.355-0.118-0.236h-0.472
		c-0.475-0.591-0.594-0.946-0.475-1.065c0.119-0.236,0.236-0.355,0.354-0.474c0.121-0.117,0.237-0.236,0.354-0.355
		c0.123-0.117,0.123-0.473,0.123-0.827c0-0.355,0.116-0.593,0.471-0.593c0.355,0,0.592,0,0.592-0.117
		c-0.236-0.355-0.473-0.592-0.709-0.71c-0.354-0.236-0.477-0.354-0.593-0.591c-0.116,0.119-0.472,0-0.946-0.119
		c-0.591-0.236-0.829-0.355-0.829-0.591c0-0.119,0.12-0.119,0.477-0.119c0.116,0,0.233,0,0.472,0.119c0.236,0,0.355,0,0.355-0.355
		c0-0.354,0-0.591,0.117-0.591l0.354-0.119c0-0.591-0.237-0.946-0.591-0.946c-0.236,0-0.355,0.117-0.355,0.473
		c0,0.119,0,0.119,0.119,0.119c0.117,0,0.117,0,0,0.119c-0.238,0-0.472,0-0.593-0.355c-0.117-0.355-0.235-0.474-0.355-0.474
		c-1.3,0-2.009,0.357-2.009,0.946c0,0.238-0.119,0.593-0.354,0.948c-0.238-0.355-0.713-0.474-1.185-0.474
		c-0.119,0-0.119,0-0.119,0.119c0.119,0.355,0,0.71-0.234,1.065c-0.237,0.355-0.593,0.473-0.948,0.473h-0.118
		c-0.475,0-0.709,0-0.946,0.354c0,0.238,0.117,0.355,0.117,0.474c0,0.119,0,0.236-0.117,0.354c-0.238,0.121-0.475,0.121-0.591,0.121
		c-0.236-0.121-0.355-0.121-0.591-0.121c-0.121,0-0.239-0.117-0.477-0.117c-0.234,0-0.354,0-0.59,0.117l-0.118,0.593
		c0.118,0,0.236,0.117,0.474,0.354c-0.237,0-0.355-0.117-0.474-0.354l-0.946-0.117c0,0.234-0.119,0.354-0.354,0.354
		c-0.238,0-0.355,0-0.355,0.117c-0.117,0.236-0.117,0.473,0.117,0.71c0.238,0.236,0.354,0.355,0.354,0.472
		c0,0.12-0.116,0.238-0.234,0.355c-0.12,0.119-0.237,0.119-0.354,0.119c-0.12,0-0.356-0.119-0.594-0.354
		c-0.354-0.236-0.472-0.355-0.59-0.236c-0.119,0.117-0.119,0.236-0.119,0.236c0,0.119,0,0.119-0.117,0.119
		c-0.355,0-0.593,0-0.593-0.119c0-0.474,0-0.71-0.12-0.591c-0.353,0.355-0.59,0.472-0.945,0.355
		c-0.117-0.119-0.238-0.355-0.355-0.71c-0.117-0.355-0.235-0.473-0.471-0.355l-0.594,0.12c0.12,0.117,0.238,0.472,0.354,0.946
		c0.119,0.472,0.239,0.827,0.239,1.182c0,0.238,0,0.355-0.12,0.472c-0.117,0.119-0.349,0.004-0.583-0.113
		c0.115,0.006,0.229,0.121,0.229,0.352c0,0.236,0,0.354-0.12,0.472c-0.117,0.121-0.238,0.121-0.355,0
		c-0.117-0.117-0.117-0.236-0.117-0.354c0-0.354,0.117-0.473,0.355-0.473c-0.238-0.236-0.355-0.236-0.355-0.117
		c0,0.234,0,0.355-0.119,0.472c-0.118,0.119-0.236,0.237-0.354,0.354c-0.118-0.117-0.237-0.117-0.354-0.117
		c-0.122,0.117-0.238,0.117-0.355,0.117c-0.237,0.474-0.357,0.474-0.477,0.117c-0.116-0.353-0.234-0.589-0.472-0.827
		c-0.118-0.117-0.235-0.117-0.355,0c-0.116,0.117-0.116,0.117-0.116,0c0-0.236-0.121-0.472-0.239-0.71
		c-0.235-0.236-0.354-0.355-0.591-0.355c-0.118,0-0.118,0-0.118,0.119c0,0.236,0.118,0.474,0.238,0.71
		c0.117,0.236,0.117,0.353-0.12,0.353c-0.118,0-0.235,0.121-0.235,0.357s-0.12,0.353-0.238,0.353h-0.354
		c-0.117,0-0.236,0.121-0.355,0.476c-0.117,0.355-0.236,0.472-0.472,0.472h-0.948c0.119-0.117,0.119-0.238,0.119-0.238
		s-0.119,0-0.236,0.121c-0.119,0.117-0.236,0.117-0.473,0.117c-0.237,0-0.354,0-0.475-0.117L84.586,76
		c0.119-0.117,0.119-0.236,0.119-0.591c0-0.236,0-0.472,0.117-0.593c-0.117-0.117-0.354,0-0.709,0.121
		c-0.354,0.236-0.473,0.355-0.354,0.589c0.234,0.238,0.354,0.357,0.354,0.593c0,0.238-0.119,0.355-0.354,0.355
		c-0.119,0-0.237,0-0.237,0.117c0,0.119-0.121,0.119-0.237,0C82.93,76,82.576,75.763,82.22,76.118
		c0.238,0.238,0.356,0.355,0.356,0.472c0,0.119-0.118,0.119-0.235,0.119c-0.121,0-0.238,0-0.238,0.119
		c0,0.117,0.117,0.238,0.238,0.355c0.117,0.117,0.117,0.236-0.121,0.236c-0.117,0-0.234,0.12-0.354,0.355
		c-0.117,0.119-0.237,0.236-0.355,0.119c-0.354-0.474-0.589-0.593-0.589-0.354c0,0.117-0.239,0.354-0.593,0.354
		c-0.355,0-0.592,0.117-0.592,0.236c-0.119,0.236-0.354,0.355-0.591,0.474c-0.355,0.117-0.475,0.117-0.593,0
		c-0.117-0.119-0.117-0.355-0.117-0.71c0-0.354,0-0.474-0.119-0.474c-0.236,0-0.475,0-0.592-0.119
		c-0.116-0.117-0.237-0.117-0.354-0.117c-0.476,0-0.711-0.117-0.946-0.355c0.117,0.238,0.354,0.472,0.591,0.71
		c0.235,0.236,0.355,0.354,0.355,0.472c0,0.119,0,0.119-0.12,0.119c-0.235,0-0.472-0.119-0.709-0.236
		c-0.354-0.119-0.475-0.237-0.593-0.237c-0.116,0-0.116,0-0.116,0.119v0.119c0.116,0.117,0.234,0.355,0.355,0.71
		c0.116,0.354,0.116,0.472-0.239,0.472c-0.237-0.117-0.354-0.236-0.591-0.472c-0.235-0.238-0.355-0.238-0.355,0
		c0,0.117,0.12,0.236,0.12,0.236c0.117,0,0.117,0.119,0.117,0.236c-0.117,0-0.237,0.12-0.354,0.355
		c-0.118,0.119-0.118,0.238-0.118,0.119c0-0.119-0.121-0.236-0.121-0.236s-0.116,0-0.234,0.117l-0.355,0.355
		c0-0.355-0.117-0.828-0.473-1.182l-1.185,0.71l0.119-0.593c-0.235-0.236-0.472-0.355-0.708-0.472
		c-0.238-0.119-0.355-0.238-0.355-0.474V77.3c-0.237-0.117-0.356-0.117-0.356,0c0,0.119,0,0.238,0.119,0.355
		c0.116,0.119,0.116,0.237,0,0.354l-0.592,0.119c0,0.119,0,0.355,0,0.71c0,0.355,0,0.474-0.119,0.474c-0.116,0-0.235,0-0.354-0.119
		c-0.118-0.12-0.239-0.12-0.355,0l-1.537,0.119c-0.238,0.355-0.355,0.71-0.355,1.065c-0.118-0.121-0.236-0.238-0.236-0.474
		c0-0.119-0.119-0.236-0.235-0.119c-0.121,0.119-0.239,0.238-0.355,0.355c-0.237,0.117-0.356,0.238-0.593,0.355
		c-0.236,0-0.355,0-0.355-0.117c0-0.238,0.119-0.474,0.472-0.593c0.355-0.117,0.477-0.238,0.477-0.355
		c0-0.473-0.121-0.946-0.356-1.42c-0.236-0.472-0.355-0.71-0.592-0.71l-0.354,0.119c-0.117,0.12-0.238,0.591-0.473,1.42
		c-0.356-0.236-0.593-0.236-0.71,0c-0.118,0.236-0.237,0.474-0.237,0.829c0,0.416,0.013,0.642,0.094,0.854
		c0.008-0.01,0.018-0.019,0.025-0.026c0.235-0.117,0.235,0,0.235,0.236s-0.117,0.355-0.473,0.355c-0.116,0-0.237-0.12-0.116-0.237
		c0.057-0.06,0.116-0.116,0.178-0.177c-0.248,0.086-0.438,0.153-0.536,0.061l-0.59-0.477c-0.119-0.117-0.237-0.117-0.237-0.117
		c-0.118,0-0.118,0.117-0.118,0.238c0,0.236,0.118,0.472,0.355,0.708c0.236,0.236,0.355,0.474,0.355,0.709
		c0,0.236-0.119,0.355-0.475,0.355c-0.118,0-0.118,0-0.118,0.119c-0.355-0.474-0.591-0.593-0.591-0.355c0,0.117,0,0.236,0.118,0.472
		c0.117,0.238,0.117,0.355,0,0.355c-0.118,0-0.238-0.117-0.474-0.117c-0.237,0-0.354,0-0.474,0.117
		c-0.117,0.237-0.356,0.474-0.591,0.593c-0.356,0.236-0.473,0.236-0.593,0.117c-0.235-0.117-0.472-0.117-0.591-0.355
		c-0.118-0.236-0.235-0.236-0.357-0.117c0,0.117,0.122,0.236,0.122,0.473c0.117,0.238,0.117,0.355,0.117,0.472
		c-0.117,0.121-0.239,0.121-0.592,0.121c-0.118-0.121-0.118-0.238-0.118-0.355c0-0.119,0-0.238-0.118-0.355
		c-0.118,0-0.354,0.117-0.593,0.472c-0.234,0.354-0.472,0.474-0.71,0.474l-0.117-0.12l-0.119-0.709
		c-0.117-0.117-0.235-0.117-0.472-0.117s-0.357,0-0.474-0.119c-0.119,0.236-0.119,0.474,0,0.708
		c0.116,0.237,0.116,0.357,0.116,0.476c0,0.117-0.116,0.234-0.116,0.591c0,0.353,0,0.474,0.237,0.474
		c0.236,0,0.473-0.121,0.591-0.357c0.117-0.117,0.117-0.236,0.117-0.353c0-0.074,0-0.088,0-0.121
		c0.236,0.238,0.355,0.357,0.355,0.474c0,0.236-0.119,0.357-0.473,0.593c-0.354,0.237-0.591,0.354-0.947,0.354
		c-0.236,0-0.355,0-0.355-0.117c0-0.12,0.119-0.355,0.119-0.593c0-0.236,0-0.353-0.119-0.353c-0.116,0-0.354-0.119-0.591-0.236
		c-0.238-0.121-0.472-0.238-0.71-0.238v0.117c0.117,0.238,0.117,0.357,0,0.593c-0.119,0.238-0.119,0.355,0,0.472
		c0.117,0.119,0.238,0.119,0.354,0.119c0.117,0,0.238,0,0.238,0.12v0.354c-0.238,0.117-0.476,0.117-0.593,0
		c-0.119-0.117-0.236-0.117-0.354-0.117c-0.355,0-0.59,0.117-0.59,0.354c0,0.119,0,0.236,0.116,0.591
		c0.118,0.354,0.118,0.476,0,0.476l-0.828-0.358c-0.119,0-0.236,0.12-0.355,0.237c-0.116,0.121-0.116,0.238-0.116,0.355
		c0.116,0.119,0.116,0.238,0,0.354c-0.119,0.119-0.236,0.355-0.236,0.593c0,0.236-0.121,0.355-0.238,0.236l-0.355-1.065
		c0-0.119,0-0.236,0.118-0.236c0.12,0,0.12-0.117,0-0.238c0-0.237,0-0.472,0.12-0.827c0.117-0.355,0.117-0.593-0.12-0.709
		c-0.236-0.12-0.473-0.12-0.59,0c-0.119,0.117-0.237,0.117-0.355,0c0.118,0.354,0.118,0.827-0.118,1.182
		c-0.119,0.117-0.235,0.237-0.356,0.354c-0.237,0.121-0.237,0.238-0.118,0.355c0.118,0.119,0.239,0.354,0.355,0.709
		c0.237,0.355,0.237,0.473,0.119,0.355c-0.235-0.117-0.356-0.238-0.594-0.355c-0.235-0.119-0.353-0.236-0.591-0.355
		c0.119-0.117,0.119-0.354,0.119-0.827c0-0.474,0-0.71,0.236-0.829c0.235,0.119,0.354,0.119,0.354,0c0-0.119,0-0.236,0.118-0.236
		c0.121-0.117,0.121-0.117,0-0.117c-0.237,0-0.473,0-0.709,0.117c-0.354,0.117-0.474,0.117-0.591,0
		c-0.121-0.117-0.238-0.354-0.474-0.593c-0.236-0.355-0.355-0.355-0.473-0.117C47.911,85.7,47.793,85.7,47.556,85.7
		s-0.355,0-0.475,0.119c0,0.12,0,0.236-0.118,0.591c-0.118,0.238-0.118,0.474,0,0.593c0.355,0,0.475,0.354,0.475,0.71
		c-0.119,0.117-0.237,0.355-0.237,0.591s0,0.353,0.118,0.353c0.237,0,0.354,0,0.593,0.238c0.235,0.238,0.354,0.238,0.591,0.117
		l0.118,0.357c0.117,0,0.234-0.12,0.355-0.12c0.117,0,0.237,0,0.354,0.12c0.236,0.354,0.236,0.708,0,0.829
		c-0.237,0.117-0.593,0.354-0.947,0.472c-0.354,0.12-0.711,0.236-1.064,0.355c0.119-0.355,0.119-0.473-0.118-0.473
		c-0.119,0-0.237,0-0.237-0.121c0-0.116-0.118-0.116-0.236-0.116c-0.117,0-0.236,0-0.473,0c-0.235,0-0.357-0.12-0.357-0.475
		c0-0.117,0-0.117,0.122-0.117c0.116-0.119,0.116-0.354,0-0.711c-0.122-0.234-0.122-0.473-0.122-0.708
		c-0.116,0-0.233-0.119-0.354-0.119c-0.116,0-0.116,0-0.116,0.119c0,0.353-0.12,0.591-0.473,0.708
		c-0.355,0.121-0.594,0.237-0.949,0.237c-0.116,0-0.116,0-0.116-0.117c0.116-0.238,0.116-0.476,0.116-0.712
		c-0.116-0.236-0.116-0.353-0.116-0.591l0.355-0.355c0.116-0.117,0.116-0.117,0-0.117c-0.119,0-0.119,0-0.119-0.12
		c0-0.234,0.119-0.354,0.356-0.473c0.234-0.117,0.354-0.236,0.354-0.355c-0.236,0.119-0.591,0.238-1.184,0.355
		c-0.59,0.119-0.827,0.355-0.827,0.71c0,0.121,0.117,0.474,0.474,1.065c-0.119,0-0.356,0.117-0.712,0.473
		c-0.236-0.591-0.355-0.944-0.355-1.063c-0.117,0-0.234,0-0.588,0c-0.355,0-0.477,0.119-0.477,0.355s0.121,0.353,0.477,0.474
		c0.354,0.117,0.471,0.234,0.354,0.355c-0.593,0.591-0.946,0.944-1.066,0.944c-0.117,0-0.117,0-0.117-0.117
		c-0.118-0.236-0.118-0.355-0.118-0.591c0-0.236,0-0.357-0.118-0.591c-0.237,0.591-0.472,0.946-0.71,0.946
		c-0.354,0-0.829,0.236-1.182,0.592c0.236,0.116,0.353,0.354,0.353,0.827c0,0.474,0,0.709,0.12,0.709c0.116,0,0.235,0,0.235-0.117
		c0-0.119,0.119-0.119,0.235-0.119c1.066,0,2.015-0.119,2.958-0.474c0,0.237,0,0.354,0.119,0.354c0.591,0,0.829,0,0.71,0.119
		c-0.474,0.474-0.71,0.591-0.946,0.474c-0.119,0.354-0.473,0.591-1.065,0.591l-1.892-0.12c-0.119,0-0.238-0.117-0.238-0.236
		s-0.116-0.236-0.236-0.236l-0.591,0.117c-0.355,0-0.474-0.117-0.474-0.355c0-0.236,0.118-0.355,0.474-0.236v-0.474
		c-0.237,0-0.593,0.119-0.946,0.354c-0.357,0.238-0.591,0.355-0.829,0.355h-0.475c0,0.474,0.12,0.71,0.475,0.71
		c0.117,0,0.238-0.117,0.355-0.354c0.119-0.117,0.119-0.238,0.119-0.117c0.118,0.117,0.236,0.117,0.472,0.117
		c0.236,0,0.355,0.119,0.355,0.354c-0.237,0.236-0.355,0.355-0.473,0.355c-0.118,0-0.236-0.119-0.354-0.355
		c-0.119-0.236-0.119-0.236-0.119,0c0,0.236-0.117,0.473-0.475,0.593c-0.235,0.117-0.472,0.117-0.708-0.121
		c0.117-0.117,0.117-0.236,0-0.353c-0.354-0.355-0.831-0.591-1.419-0.591c-0.594,0-0.83,0.236-0.83,0.591
		c0,0.117,0,0.236,0.119,0.353c0.117,0.121,0.117,0.238,0,0.355c-0.237,0.238-0.593,0.238-0.946,0c0-0.117,0-0.234,0.119-0.234
		c0.117,0,0.117-0.121-0.119-0.238c-0.119-0.119-0.356-0.119-0.712-0.119c-0.353,0-0.472,0-0.472,0.119l-0.355,0.355V38.73h617
		V178.576z M33.83,93.866c0.238,0,0.474,0,0.594,0.353c0.116,0.355,0.116,0.474-0.12,0.474c-0.235,0-0.354-0.119-0.474-0.355
		C33.713,94.102,33.713,93.866,33.83,93.866z M44.124,91.143c0.591,0,0.946,0.354,0.946,0.827c0,0.121-0.117,0.238-0.236,0.238
		s-0.236,0-0.236-0.117c0-0.238-0.117-0.355-0.354-0.593C44.124,91.262,44.004,91.262,44.124,91.143z M57.73,85.228h0.472
		c0,0.117-0.117,0.117-0.355,0.117C57.611,85.345,57.611,85.345,57.73,85.228z M63.29,120.01v-0.354
		c0.238-0.117,0.354-0.117,0.354,0C63.645,119.656,63.528,119.776,63.29,120.01z M64.237,82.388c0-0.236,0-0.355,0.118-0.472
		c0.119-0.119,0.119-0.119,0.119-0.119s0,0.119,0.118,0.474c0.71-0.593,1.065-0.71,1.065-0.355l0.117,0.472h0.354
		c0,0.238,0,0.355,0.119,0.593v0.117c-0.119,0-0.354,0.119-0.712,0.355c-0.354,0.236-0.591,0-0.591-0.591
		c0-0.119,0-0.119-0.117-0.119C64.475,82.743,64.237,82.626,64.237,82.388z M66.722,81.561c0.119,0,0.356,0.117,0.591,0.236
		c0.237,0.119,0.593,0.236,0.948,0.236c0.233,0,0.354-0.117,0.354-0.355c0-0.117-0.121-0.236-0.121-0.355
		c0-0.117,0-0.117,0.121-0.117c0.117,0,0.238,0.117,0.238,0.117c0,0.119,0.117,0.119,0.233,0.119c0.239,0,0.593-0.119,1.066-0.119
		c0.473,0,0.709,0,0.709,0.119c0,0.119,0,0.119-0.116,0.119c-0.239,0.236-0.355,0.355-0.475,0.355
		c-0.236-0.355-0.711-0.474-1.185-0.474c-0.354,0-0.472,0.119-0.472,0.355c0,0.355,0,0.474-0.121,0.474h-1.653
		c-0.119,0-0.119,0-0.119-0.119h0.119C66.841,81.796,66.841,81.678,66.722,81.561z M69.914,80.731c0-0.119,0-0.119,0-0.119
		s0.121-0.117,0.357-0.355c0.235-0.472,0.475-0.709,0.708-0.472c0.238,0.236,0.354,0.355,0.476,0.355
		C70.391,80.731,69.914,80.967,69.914,80.731z M76.425,79.786c0-0.238,0.117-0.355,0.354-0.475c0.236-0.116,0.353-0.116,0.353,0.12
		c0,0.117-0.116,0.238-0.353,0.355C76.542,79.904,76.425,79.904,76.425,79.786z M97.365,130.302c0,0.238-0.117,0.355-0.355,0.355
		c-0.237,0-0.355-0.117-0.474-0.355c-0.117-0.234-0.117-0.472-0.117-0.827c0.117-0.234,0.235-0.354,0.591-0.117
		C97.248,129.475,97.365,129.713,97.365,130.302z M97.248,129.241c0,0,0-0.12,0.117-0.12l0.117-0.355c0,0.121,0,0.121,0.12,0.121
		C97.365,129.121,97.248,129.241,97.248,129.241z M99.613,135.157c0-0.121,0.235-0.239,0.472-0.121
		c0.121,0.121,0.121,0.237,0.121,0.358c0,0.116-0.121,0.116-0.239,0.116C99.729,135.51,99.613,135.394,99.613,135.157z
		 M104.226,140.954c0.119,0.233,0.236,0.354,0.119,0.354c-0.235,0-0.354,0-0.591-0.121c-0.236-0.116-0.236-0.116,0-0.116v-0.117
		H104.226z M103.99,78.958c0,0,0-0.12,0.119-0.237c0.235-0.117,0.353-0.236,0.353-0.117c0,0.117-0.117,0.234-0.236,0.234
		C104.109,78.958,103.99,78.958,103.99,78.958z M103.4,81.561c-0.477,0.355-0.593,0.236-0.358-0.355
		c0.237-0.593,0.358-0.948,0.593-1.301c0.119,0.117,0.119,0.353,0.119,0.708c0,0.474,0,0.593,0.119,0.593L103.4,81.561z
		 M103.042,133.026c0,0.117,0,0.238,0.121,0.238c0.116,0.116,0.116,0.116,0,0.233c-0.121,0.121-0.239,0.121-0.593,0.121
		s-0.473,0-0.354-0.121C102.808,133.026,103.042,132.792,103.042,133.026z M102.452,138.707c0.118,0.116,0.118,0.234,0,0.116
		c-0.354,0-0.472,0-0.354-0.116C102.217,138.588,102.334,138.588,102.452,138.707z M105.409,79.904
		c-0.116,0.117-0.235,0.117-0.235,0.117c0-0.117-0.119-0.117-0.235-0.117c-0.122,0-0.238-0.119-0.238-0.236
		c0-0.238,0-0.355,0.116-0.593c0.122,0,0.238,0,0.357,0.12c0.119,0.119,0.119,0.236,0,0.474L105.409,79.904z M105.055,141.546
		c0.238,0.233,0.238,0.354,0,0.589c-0.238-0.234-0.354-0.355-0.354-0.472C104.7,141.426,104.816,141.308,105.055,141.546z
		 M106.713,143.083v-0.121c0-0.234,0.118-0.355,0.234-0.355c0.119,0,0.237,0.121,0.237,0.355
		C106.831,143.083,106.713,143.083,106.713,143.083z M107.778,143.439c0.353-0.117,0.472,0,0.472,0.234
		c0,0.354-0.238,0.472-0.593,0.472c-0.473,0-0.591-0.117-0.473-0.352C107.302,143.673,107.422,143.439,107.778,143.439z
		 M106.594,131.372c-0.118,0-0.118,0-0.118-0.121c0-0.117,0-0.234,0.118-0.117c0.119,0,0.119,0,0.119,0.117
		C106.713,131.372,106.713,131.372,106.594,131.372z M106.592,133.143c0,0,0,0.121,0,0.354c0,0.121,0,0.121-0.116,0.121
		c-0.118-0.121-0.118-0.238,0-0.354C106.592,133.143,106.592,133.143,106.592,133.143z M106.592,144.859
		c0,0.117-0.234,0.117-0.591,0H106.592z M110.023,136.693c-0.236,0.238-0.473,0.355-0.83,0.355c-0.116,0-0.116,0-0.116-0.117
		c0-0.355,0.239-0.476,0.593-0.476s0.59,0,0.59,0S110.143,136.576,110.023,136.693z M110.379,142.253
		c0.236,0.475,0.356,0.709,0.236,0.83c-0.236,0-0.355,0-0.592-0.121c-0.117-0.116-0.236-0.234-0.117-0.355
		C110.143,142.253,110.26,142.135,110.379,142.253z M109.193,142.728c0,0.118,0,0.118-0.116,0.118s-0.116,0-0.116-0.118
		c0-0.121,0-0.121,0.116-0.121S109.193,142.607,109.193,142.728z M110.735,134.329c0.473,0,0.592,0,0.354,0.117
		c-0.12,0.117-0.237,0.117-0.354,0C110.615,134.329,110.615,134.329,110.735,134.329z M112.034,148.17
		c0-0.472,0.118-0.593,0.355-0.354c0.121,0.117,0.121,0.234,0,0.354C112.273,148.17,112.273,148.17,112.034,148.17z
		 M113.572,139.295c-0.234,0-0.354-0.117-0.354-0.354c0-0.234,0.119-0.353,0.354-0.353c0.237,0,0.358,0.118,0.358,0.353
		C113.931,139.178,113.81,139.295,113.572,139.295z M114.048,141.546c0.236,0,0.354,0,0.117,0.117
		c-0.117,0.116-0.234,0.237-0.355,0.472c-0.116,0.239-0.237,0.239-0.237,0c0-0.116,0-0.234-0.118-0.355
		c-0.116-0.116-0.116-0.116,0-0.116C113.572,141.664,113.81,141.546,114.048,141.546z M115.704,147.578
		c0.235-0.116,0.354-0.116,0.472,0.121c0.119,0.117,0.355,0.234,0.355,0.352c0,0.12,0,0.238-0.119,0.354
		c-0.236,0-0.473,0-0.589-0.116c-0.119-0.118-0.237-0.118-0.355-0.118C115.468,147.933,115.586,147.699,115.704,147.578z
		 M116.058,145.803c0.237-0.118,0.474-0.118,0.709-0.118c0.121,0,0.121,0.118-0.116,0.355c-0.238,0.118-0.475,0.238-0.711,0.118
		C115.823,146.041,115.823,145.924,116.058,145.803z M117.597,147.106l0.235-0.121C117.949,147.106,117.832,147.106,117.597,147.106
		C117.359,147.106,117.241,146.985,117.597,147.106z M118.304,152.548c0-0.238,0.121-0.354,0.239-0.354s0.237,0,0.354,0.116
		c0,0.355,0,0.473-0.116,0.473C118.425,152.783,118.304,152.666,118.304,152.548z M119.963,149.708v-0.117
		c0.119-0.121,0.237-0.121,0.473-0.121c0.118,0,0.236,0,0.118,0.121C120.2,150.063,119.963,150.063,119.963,149.708z
		 M120.672,149.708v-0.117v-0.121c0-0.117,0.117-0.117,0.117,0c0,0.121,0.12,0.121,0.238,0.121
		C120.789,149.708,120.672,149.708,120.672,149.708z M123.395,155.623c0,0.238,0.118,0.473,0.118,0.593c0,0.118,0,0.234-0.118,0.234
		c-0.237,0-0.354,0-0.354-0.116c0-0.238,0-0.355,0.116-0.473C123.274,155.744,123.395,155.623,123.395,155.623z M123.157,154.441
		v-0.238c0.117-0.116,0.237-0.116,0.237,0c0,0.121,0,0.238-0.12,0.355C123.157,154.558,123.157,154.441,123.157,154.441z
		 M124.813,147.816v-0.117c0.12,0,0.12,0,0.12,0.117H124.813z M126.234,158.229c0-0.121,0.118-0.237,0.235-0.237
		c0.118,0.116,0.118,0.237,0.118,0.354c-0.118,0.117-0.118,0.233-0.118,0.354c0,0.234,0,0.234-0.117,0.118
		C126.234,158.58,126.234,158.463,126.234,158.229z M128.127,162.013c0,0,0-0.237,0-0.472c0.118,0,0.235-0.121,0.473-0.355
		c0.473,0.59,0.473,0.827,0.118,0.827C128.362,162.013,128.127,162.013,128.127,162.013z M129.427,157.398
		c0.119,0,0.237-0.117,0.237-0.238c0.118,0,0.235,0,0.354,0.121c0.235,0.117,0.235,0.234,0.119,0.355
		c-0.119,0.116-0.238,0.234-0.355,0.355c-0.118,0.116-0.236,0.116-0.472-0.121C129.191,157.636,129.311,157.515,129.427,157.398z
		 M133.211,162.84c0-0.355,0-0.472,0.239-0.472c0.237,0,0.354,0.116,0.354,0.237c0,0.118,0,0.234-0.117,0.234
		C133.332,163.079,133.211,163.079,133.211,162.84z M116.888,119.3c0.234-0.117,0.354-0.117,0.59-0.117
		c0.237,0,0.354,0.117,0.237,0.238c-0.118,0.117-0.237,0.117-0.355,0.117c-0.118-0.117-0.237-0.117-0.354-0.117
		C116.767,119.421,116.65,119.421,116.888,119.3z M125.642,121.668c0-0.121,0-0.238,0.118-0.238c0.117,0,0.238,0,0.117,0.117
		c0,0.121,0,0.238-0.117,0.359C125.642,122.024,125.642,122.024,125.642,121.668z M127.418,123.323c0-0.117,0.117-0.234,0.233-0.234
		c0.12,0,0.239,0,0.355,0.117c-0.116,0.117-0.235,0.117-0.355,0.117C127.535,123.323,127.418,123.323,127.418,123.323z
		 M129.311,125.453c0-0.234,0.116-0.352,0.472-0.352C129.782,125.219,129.664,125.336,129.311,125.453z M132.03,125.102
		c0.12,0,0.12,0,0.12-0.121c0-0.117,0-0.117,0.117,0c0.119,0.121,0.119,0.238,0,0.355L132.03,125.102z M132.739,126.994
		c0.237,0,0.472,0,0.593,0.117c0.118,0.117,0.118,0.234-0.121,0.234c-0.116,0-0.234-0.117-0.353-0.117
		C132.623,127.229,132.623,127.111,132.739,126.994z M133.923,128.059c0-0.121,0.12-0.359,0.474-0.359c0.356,0,0.473,0,0.473,0.238
		c0,0.355-0.116,0.472-0.473,0.472C134.16,128.411,133.923,128.293,133.923,128.059z M137.589,131.25c0.121,0,0.238,0,0.238,0.121
		c0,0.117,0,0.117-0.117,0.117c-0.121,0-0.237,0-0.237-0.117C137.354,131.25,137.354,131.25,137.589,131.25z M140.43,120.01
		c0-0.234,0.118-0.354,0.238-0.589c0.117-0.238,0.237-0.238,0.237,0c0,0.234-0.12,0.472-0.237,0.589
		C140.548,120.249,140.43,120.249,140.43,120.01z M144.807,136.693c0-0.117,0-0.237,0.119-0.355c0.119-0.116,0.119-0.116,0.119,0
		c0,0.118,0,0.238-0.119,0.355S144.69,136.81,144.807,136.693z M155.574,133.143c0,0.237,0,0.354-0.118,0.354l-0.354-0.117
		c-0.118-0.116-0.118-0.237-0.118-0.237C155.337,133.026,155.456,133.143,155.574,133.143z M162.318,141.426
		c0.236,0.12,0.355,0.12,0.592,0.12c0.235,0,0.354,0,0.354,0.117v0.355c-0.235,0.116-0.354,0.116-0.591,0
		C162.555,141.901,162.438,141.664,162.318,141.426z M169.062,155.388c0-0.121,0-0.237,0.118-0.121c0.119,0,0.119,0,0.119,0.121
		c0,0.118,0,0.118-0.119,0.118C169.062,155.506,169.062,155.506,169.062,155.388z M166.46,157.398c0,0.354-0.121,0.473-0.474,0.473
		c-0.119,0-0.119-0.118,0-0.473C166.222,157.398,166.46,157.398,166.46,157.398z M135.462,93.628c-0.118-0.117,0-0.238,0.354-0.117
		c0.355,0.117,0.592,0.117,0.592,0.117s0.121,0,0.121-0.117c0.116,0,0.116,0.117,0.116,0.234c0,0.238,0,0.357-0.116,0.593
		C136.171,94.693,135.815,94.455,135.462,93.628z M137.473,93.628c0-0.117,0.116-0.238,0.116-0.238h0.355
		c0.121,0,0.121-0.117,0.121-0.236c0-0.119,0-0.236,0.116-0.236c0.238,0,0.238,0.117,0.238,0.472
		c-0.119,0.238-0.119,0.476-0.119,0.593c0,0.119-0.235,0.119-0.712,0.119C137.473,93.983,137.473,93.866,137.473,93.628z
		 M152.024,113.386c0-0.117,0-0.234,0.119-0.117c0.118,0,0.236,0,0.236,0.117s0,0.117-0.118,0.117S152.024,113.503,152.024,113.386z
		 M152.973,111.256l0.117-0.117c0.118-0.117,0.237-0.117,0.354,0c0.119,0.117,0.119,0.117-0.117,0.117
		C153.09,111.256,152.973,111.256,152.973,111.256z M158.649,102.5c0.237-0.234,0.354-0.234,0.354,0c0,0.476,0,0.712-0.117,0.593
		C158.649,102.857,158.649,102.621,158.649,102.5z M162.555,105.578c0-0.238,0-0.355,0-0.355s0.119,0,0.237,0
		c0.237,0,0.354,0.117,0.473,0.234c0.117,0.121,0.117,0.238-0.119,0.238C162.792,105.695,162.555,105.695,162.555,105.578z
		 M167.881,108.652c0.116-0.117,0.232-0.117,0.472,0c0.237,0.121,0.237,0.121,0,0.121
		C167.881,108.773,167.76,108.652,167.881,108.652z M169.062,108.773c0.355,0,0.594,0.236,0.594,0.591
		c-0.121-0.119-0.238-0.236-0.476-0.355C168.943,108.773,168.943,108.773,169.062,108.773z M172.849,122.734h0.118
		c0.117,0.117,0.117,0.117,0,0.117C172.967,122.851,172.849,122.851,172.849,122.734z M175.215,111.376
		c0,0.234-0.119,0.234-0.238,0.355c-0.472,0-0.71-0.121-0.71-0.355v-0.593c0.121,0.117,0.238,0.117,0.474,0.117
		c0.236,0,0.355,0,0.355,0.121C175.215,111.139,175.215,111.256,175.215,111.376z M175.215,110.666
		c0.116-0.119,0.234-0.119,0.354,0.118c0.117,0.238,0.117,0.355,0,0.355c-0.12,0-0.238,0-0.354-0.117
		C175.096,110.9,175.096,110.783,175.215,110.666z M177.816,113.152c0.12-0.355,0.355-0.355,0.711,0.117
		c0.116,0.117,0.116,0.234,0.116,0.355c0,0.117-0.116,0.117-0.234,0.117C177.937,113.741,177.7,113.503,177.816,113.152z
		 M182.549,114.806c0.118-0.117,0.238-0.117,0.355-0.117c0.238,0,0.238,0,0.355-0.237c0.119,0,0.238,0,0.474,0
		c0.236,0,0.353,0.121,0.353,0.354c0,0.238-0.235,0.355-0.588,0.355c-0.355,0-0.594,0-0.594,0.117c-0.117,0.117-0.237,0-0.355-0.117
		C182.433,115.044,182.433,114.923,182.549,114.806z M184.206,115.871c0-0.238,0.119-0.355,0.356-0.593
		c0.234-0.234,0.355-0.234,0.355,0c0,0.117,0,0.238,0.116,0.476c0.119,0.234,0.119,0.355,0,0.355
		C184.563,116.109,184.206,116.109,184.206,115.871z M186.691,117.529c0-0.359,0.119-0.476,0.354-0.593
		c0.236-0.121,0.236-0.121,0.353,0.117c0,0.117-0.116,0.238-0.116,0.476c0,0.234-0.119,0.354-0.236,0.354
		C186.811,117.884,186.691,117.764,186.691,117.529z M188.11,125.219c0,0,0,0,0.12,0c0.116,0,0.116,0,0.116,0.117h-0.116
		C188.11,125.336,188.11,125.336,188.11,125.219z M192.131,117.291c0,0.057,0,0.117,0,0.117S192.015,117.408,192.131,117.291
		c-0.116,0-0.234,0-0.354-0.121c-0.118-0.117-0.235-0.117-0.354,0c-0.475,0.359-0.946,0.476-1.421,0.121v-0.121h-0.472
		c-0.236,0-0.357,0-0.357-0.117s0-0.117,0.121-0.117c0.117,0,0.236,0,0.354-0.121c0.118-0.117,0.118-0.117,0.118,0
		c0,0.121,0,0.121,0.117,0.121c0.118,0,0.237,0,0.237-0.121c0-0.117,0.117-0.117,0.235-0.117l0.946,0.117
		c0.12,0,0.238-0.117,0.474-0.117c0.237,0,0.354,0,0.354,0.117C192.131,117.042,192.131,117.189,192.131,117.291z M192.607,118.118
		c0.354-0.117,0.473-0.117,0.589-0.117c0.12,0.234,0,0.472-0.354,0.71c-0.354,0.238-0.591,0.354-0.591,0.589
		c0,0.238-0.121,0.121-0.355-0.234c0,0.234,0,0.355,0,0.473h-0.354l0.473-1.065C192.131,118.356,192.37,118.118,192.607,118.118z
		 M191.424,119.539v0.355c-0.12,0.117-0.236,0-0.236-0.117c0-0.121,0-0.238,0.116-0.238H191.424z M190.716,118.356
		c0,0.234-0.121,0.355-0.238,0.472c-0.12,0.117-0.238,0.117-0.238-0.117c0-0.238,0.118-0.355,0.238-0.476
		C190.595,118.118,190.716,118.235,190.716,118.356z M189.531,118.118c0,0,0,0,0,0.117v0.355c0.118,0,0.236-0.117,0.354-0.117
		c0.118,0,0.118,0,0.118,0.117c0,0.238-0.118,0.355-0.354,0.355c-0.118,0-0.237,0-0.237-0.117s-0.117-0.238-0.355-0.355
		C189.412,118.235,189.531,118.118,189.531,118.118z M154.271,81.323c0.354,0,0.477,0.119,0.477,0.355c-0.122,0-0.238,0-0.355-0.117
		C154.154,81.441,154.154,81.323,154.271,81.323z M157.941,81.323v-0.355c0.236,0,0.354,0.12,0.354,0.355H157.941z M162.199,81.087
		c0.119,0.119,0.238,0.119,0.355,0.119c0.119,0,0.237,0,0.355,0.117c0.119,0.119,0.119,0.238-0.118,0.474
		c-0.237,0.236-0.354,0.236-0.354,0c0-0.236-0.119-0.355-0.238-0.591C162.083,80.967,162.083,80.967,162.199,81.087z
		 M165.514,82.388c-0.357-0.117-0.592-0.355-0.474-0.591c-0.237-0.119-0.475-0.236-0.593-0.355
		c-0.234-0.119-0.234-0.236-0.118-0.354c0.236-0.12,0.474-0.237,0.593-0.12c0.118,0.12,0.234,0.238,0.355,0.355
		c0.236,0.119,0.473,0.238,0.827,0.474c0.355,0.236,0.473,0.355,0.355,0.474C166.104,82.507,165.867,82.626,165.514,82.388z
		 M165.631,91.498c0,0.355,0,0.472-0.117,0.472c-0.236,0-0.474-0.234-0.592-0.589C165.396,91.38,165.631,91.38,165.631,91.498z
		 M167.406,82.743c0-0.236,0.116-0.236,0.354-0.236c0.237,0.119,0.475,0.236,0.593,0.354s0.118,0.236-0.118,0.236
		C167.76,83.098,167.522,82.98,167.406,82.743z M168.59,82.152c0-0.355,0.236-0.591,0.709-0.591c0.474,0,0.711,0.117,0.711,0.355
		c0,0.236,0,0.355-0.118,0.355c-0.119,0-0.119,0-0.119-0.119c-0.117,0.119-0.117,0.119-0.117,0.119S169.299,82.271,168.59,82.152z
		 M171.431,80.496h0.234c0.118,0,0.118,0.117,0.118,0.354L171.431,80.496z M172.258,91.262c0.116,0.119,0.116,0.119,0,0.119
		c-0.12,0-0.237,0-0.355-0.119c0-0.047,0-0.085,0-0.119C172.021,91.143,172.138,91.143,172.258,91.262z M173.439,80.85
		c0,0,0,0,0.117-0.119c0-0.119,0-0.236,0.119-0.353c0.119-0.121,0.119-0.121,0.119,0v0.353
		C173.557,80.85,173.439,80.85,173.439,80.85z M175.808,82.271c0,0,0,0,0.117-0.238v-0.472c0.117,0,0.354,0,0.354-0.119
		c0-0.119,0.118-0.119,0.236-0.119c0.119,0,0.119,0,0.119,0.119c0,0.119,0,0.119,0.117,0.119c0.116,0.355,0.116,0.472,0,0.472
		c-0.117,0-0.354,0.119-0.591,0.119C175.925,82.271,175.808,82.271,175.808,82.271z M178.053,82.98c-0.472,0-0.59-0.237-0.472-0.593
		c0.119-0.355,0.235-0.591,0.472-0.71c0.119,0,0.119,0.119,0.119,0.355c0,0.119,0.118,0.238,0.118,0.593
		C178.409,82.862,178.29,83.098,178.053,82.98z M178.409,83.336c0.118,0.117,0.118,0.236,0,0.117c-0.119,0-0.237,0-0.356-0.117
		c-0.116-0.119-0.116-0.119,0-0.119C178.172,83.217,178.29,83.217,178.409,83.336z M180.186,81.916c0.116-0.119,0.234,0,0.234,0
		c0,0.117,0,0.236,0.121,0.236c0.116,0,0.116,0.119,0,0.236c-0.121,0.238-0.355,0.355-0.594,0.355s-0.355,0-0.355-0.117v-0.474
		c-0.355,0-0.59-0.355-0.59-1.185c0-0.236-0.119-0.354-0.358-0.354v-0.117c0.948,0,1.421,0.354,1.421,0.946l-0.117,0.355
		C179.947,81.916,180.064,81.916,180.186,81.916z M179.947,83.808c0,0,0,0.117-0.118,0.117h-0.474c-0.119-0.117-0.119-0.117,0-0.117
		C179.709,83.808,179.947,83.808,179.947,83.808z M106.001,68.783c0,0.117,0,0.117-0.118,0.117s-0.118,0-0.118-0.117
		c0-0.049,0-0.087,0-0.119C105.883,68.665,106.001,68.665,106.001,68.783z M42.823,91.143c-0.238,0-0.355,0-0.475-0.117
		c-0.236-0.238-0.236-0.473,0-0.71c0.119-0.238,0.355-0.355,0.712-0.355l0.354,0.117c0.119,0.119,0,0.238-0.236,0.476
		C42.823,90.788,42.704,91.026,42.823,91.143z"/>
	<path d="M376.228,85.345c2.721,0,4.85-0.827,6.389-2.483c1.536-1.775,2.368-3.787,2.368-6.271c0-2.485-0.832-4.613-2.485-6.27
		c-1.659-1.656-3.671-2.485-6.271-2.485c-2.483,0-4.497,0.829-6.154,2.485c-1.654,1.656-2.483,3.667-2.483,6.27
		c0,2.485,0.829,4.615,2.366,6.271C371.613,84.518,373.622,85.345,376.228,85.345z"/>
	<path d="M470.168,140.244c2.481,4.849,7.214,7.218,13.96,7.218c8.045,0,13.843-2.841,17.271-8.639
		c3.434-5.797,5.209-12.776,5.209-20.822c0-7.807-1.892-14.198-5.677-19.167c-3.788-4.969-9.23-7.454-16.328-7.454
		c-2.251,0-4.381,0.472-6.508,1.182c-2.13,0.71-4.021,1.656-5.563,2.841V69.61h-13.369v76.314h9.348L470.168,140.244z
		 M482.353,102.976c6.742,0,10.176,5.798,10.176,17.39c0,4.261-0.827,7.928-2.485,11.006c-1.538,2.957-4.023,4.494-7.331,4.494
		c-3.905,0-6.629-1.537-8.049-4.494c-1.421-2.961-2.131-7.101-2.131-12.306C472.532,108.297,475.729,102.857,482.353,102.976z"/>
	<path d="M150.264,98.204c0.023,0.096,0.067,0.184,0.124,0.262c0.079-0.015,0.096-0.094,0.096-0.188
		c-0.038-0.049-0.067-0.091-0.113-0.153c-0.001,0,0,0-0.001,0C150.306,98.125,150.279,98.156,150.264,98.204z"/>
	<path d="M610.605,148.405c2.602,0,4.732-0.827,6.27-2.48c1.537-1.658,2.367-3.671,2.367-6.274c0-2.364-0.83-4.377-2.488-6.031
		c-1.654-1.658-3.663-2.485-6.148-2.485s-4.616,0.827-6.273,2.485c-1.655,1.654-2.481,3.667-2.481,6.152
		c0,2.482,0.826,4.612,2.481,6.27C605.989,147.699,607.999,148.526,610.605,148.405z"/>
	<path d="M569.433,147.34c4.019,0,7.924-0.827,11.357-2.481c3.43-1.658,6.391-4.026,8.873-7.218l-6.98-8.755
		c-3.434,4.022-7.925,6.031-13.487,6.031c-3.785,0-6.742-1.064-8.873-3.194c-2.133-2.127-3.55-4.967-4.143-8.4h34.313l0.351-5.676
		c0-7.691-2.008-13.963-6.031-18.812c-4.14-4.852-9.586-7.218-16.562-7.218c-7.811,0-14.08,2.602-18.578,7.926
		c-4.495,5.326-6.746,12.189-6.746,20.706c0,8.283,2.368,14.908,7.1,19.878C554.881,145.092,561.389,147.461,569.433,147.34z
		 M557.955,108.891c0.593-1.538,1.42-2.722,2.485-3.787c0.948-0.946,2.13-1.656,3.547-2.366c1.423-0.591,2.839-0.946,4.264-0.946
		c1.182,0,2.364,0.355,3.547,0.946c3.784,1.894,5.677,5.442,5.797,10.414h-20.588C557.007,111.849,557.244,110.427,557.955,108.891z
		"/>
	<rect x="517.017" y="69.61" width="14.198" height="76.314"/>
	<path d="M242.418,134.917c-1.421,0.711-3.196,1.065-4.971,0.948c-3.668,0-7.218-0.83-10.646-2.485
		c-3.434-1.774-6.393-3.667-8.756-5.797l-6.035,11.712c3.786,2.724,7.689,4.732,11.713,6.271c4.021,1.54,8.637,2.25,13.606,2.25
		c6.861,0,11.83-1.657,15.264-4.732c3.429-3.078,5.084-6.98,5.084-11.595c0-3.078-0.828-5.681-2.482-8.045
		c-1.658-2.369-3.905-4.261-6.626-5.797c-2.25-1.42-4.852-2.485-7.81-3.434c-2.956-0.944-4.731-1.417-5.323-1.654
		c-2.483-0.828-4.497-1.659-5.799-2.486c-1.3-0.828-2.01-1.893-2.01-3.195c0-2.481,2.247-3.785,6.624-3.785
		c3.552,0,6.746,0.591,9.703,1.893c2.957,1.303,5.321,2.84,7.097,4.732l6.51-9.818c-2.249-2.485-5.207-4.377-9.11-5.917
		c-3.905-1.538-8.284-2.247-13.134-2.247c-5.559,0-10.292,1.299-14.197,4.022c-3.903,2.721-5.798,6.625-5.798,11.595
		c0,3.668,1.303,6.625,3.787,8.873c2.485,2.247,5.798,4.139,10.056,5.798l3.195,1.182c4.497,1.658,7.453,2.841,8.874,3.667
		c1.185,0.593,2.012,1.303,2.483,2.013c0.593,0.71,0.828,1.537,0.828,2.485C244.545,133.026,243.838,134.211,242.418,134.917z"/>
	<path d="M335.646,118.001c0-3.788,1.537-6.979,4.494-9.704c2.958-2.719,6.391-4.022,10.294-4.022c2.722,0,5.09,0.71,6.982,2.013
		l3.666-13.489c-1.893-0.829-4.377-1.182-7.218-1.182c-3.785,0-7.334,0.71-10.41,2.128c-3.077,1.303-5.679,3.195-7.571,5.564v-7.218
		h-13.841v53.833h13.604V118.001z"/>
	<path d="M105.055,79.786l0.119-0.117C105.055,79.668,105.055,79.668,105.055,79.786z"/>
	<path d="M292.58,147.461c4.26,0,8.164-0.828,11.715-2.485c3.429-1.654,6.388-4.022,8.638-7.102l-7.811-9.109
		c-3.668,4.144-7.69,6.152-12.187,6.152c-4.497,0-8.045-1.537-10.648-4.615c-2.482-3.074-3.785-6.858-3.785-11.236
		c0-4.377,1.182-8.044,3.667-11.004c2.485-2.958,5.914-4.378,10.292-4.378c4.971,0,9.465,2.604,13.37,7.572l7.809-9.345
		c-2.128-3.195-4.968-5.681-8.636-7.573c-3.786-1.775-7.928-2.721-12.66-2.721c-8.165,0-14.79,2.602-19.876,7.809
		c-5.089,5.206-7.573,12.068-7.573,20.823c0,8.283,2.367,14.908,7.216,19.878C276.844,145.092,283.706,147.461,292.58,147.461z"/>
	<path d="M410.658,140.126c2.717,4.85,7.449,7.214,13.957,7.214c7.811,0,13.608-2.836,17.041-8.518
		c3.426-5.68,5.201-12.66,5.201-20.822c0-7.691-1.893-14.081-5.677-19.049c-3.905-5.086-9.227-7.571-16.21-7.571
		c-2.131,0-4.257,0.472-6.504,1.182c-2.135,0.71-4.027,1.656-5.442,2.841V69.61h-13.727v76.314h9.703L410.658,140.126z
		 M415.15,107.47c1.658-3.074,4.144-4.613,7.689-4.613c6.745,0,10.063,5.795,10.063,17.392c0,4.256-0.832,7.928-2.369,11.002
		c-1.657,2.961-4.021,4.499-7.334,4.499c-4.026,0-6.746-1.421-8.283-4.499c-1.541-2.957-2.249-7.097-2.249-12.185
		C412.667,114.334,413.496,110.547,415.15,107.47z"/>
	<path d="M179.12,126.518c0.235,0,0.354-0.117,0.589-0.234c0.016-0.015,0.022-0.045,0.038-0.061
		c-0.011-0.019-0.026-0.041-0.038-0.06c-0.157,0.159-0.457,0.17-0.826,0.117C178.889,126.428,178.977,126.518,179.12,126.518z"/>
	<path d="M182.467,113.59c0.025,0.011,0.064,0.011,0.082,0.034c0.016-0.011,0.023-0.011,0.039-0.019
		c-0.016-0.034-0.039-0.063-0.039-0.102L182.467,113.59z"/>
	<path d="M172.138,108.652c-0.122,0.062-0.243,0.125-0.353,0.186c0.004,0.181,0.014,0.29,0.117,0.29c0.105,0,0.31-0.209,0.521-0.505
		C172.367,108.581,172.284,108.581,172.138,108.652z"/>
	<path d="M167.631,120.744c-0.075-0.008-0.14-0.023-0.225-0.023c-0.047,0-0.074,0-0.119,0l0.235,0.354
		C167.522,120.962,167.53,120.853,167.631,120.744z"/>
	<path d="M151.52,144.375c-0.009-0.049-0.013-0.095-0.034-0.14c-0.016,0.016-0.035,0.016-0.051,0.03
		C151.435,144.337,151.443,144.365,151.52,144.375z"/>
	<path d="M43.65,132.199v-0.109c-0.038,0-0.074,0.004-0.113,0.008c0,0.037-0.004,0.057-0.004,0.102H43.65z"/>
	<rect x="369.129" y="92.799" width="14.196" height="53.242"/>
	<path d="M166.577,156.215h0.237c-0.057-0.17-0.171-0.252-0.352-0.26C166.468,156.118,166.48,156.215,166.577,156.215z"/>
	<path d="M603.032,86.648c0.118,2.84,0.476,7.335,0.827,13.487c0.121,1.42,0.238,4.733,0.594,9.82
		c0.354,5.088,0.472,9.7,0.237,13.96h11.118c1.066-15.025,2.015-27.21,2.604-36.558c0.237-3.433,0.355-6.626,0.355-9.702
		c0-2.367-0.707-4.023-2.014-5.205c-1.299-1.183-3.191-1.775-5.797-1.775c-5.557,0-8.396,2.366-8.396,7.099l0.116,3.667
		C602.915,83.217,603.032,84.99,603.032,86.648z"/>
</g>
</svg>
