<?xml version="1.0" encoding="utf-8"?>
<!-- Generator: Adobe Illustrator 16.0.3, SVG Export Plug-In . SVG Version: 6.00 Build 0)  -->
<!DOCTYPE svg PUBLIC "-//W3C//DTD SVG 1.1//EN" "http://www.w3.org/Graphics/SVG/1.1/DTD/svg11.dtd">
<svg version="1.1" id="Layer_1" xmlns="http://www.w3.org/2000/svg" xmlns:xlink="http://www.w3.org/1999/xlink" x="0px" y="0px"
	 width="588px" height="396.253px" viewBox="0 0 588 396.253" enable-background="new 0 0 588 396.253" xml:space="preserve">
<g>
	<polygon points="223.811,97.731 223.811,97.583 223.811,84.641 169.215,84.641 169.215,254.235 225.744,254.235 225.744,240.995 
		182.455,240.995 182.455,176.281 216.074,176.281 216.074,162.745 182.455,162.745 182.455,97.731 	"/>
	<path d="M126.072,127.635v-12.496c0-9.074-3.273-16.812-9.672-23.357c-6.395-6.546-14.131-9.817-23.207-9.817
		c-9.223,0-16.959,3.123-23.205,9.521c-6.248,6.246-9.373,14.875-9.373,25.885v6.248c0,4.313,0.596,8.332,1.637,11.9
		c1.191,3.571,2.232,6.396,3.57,8.332c1.189,1.933,2.082,3.271,2.381,3.867l37.191,44.332c0.445,0.448,1.189,1.487,2.23,3.127
		c1.191,1.636,2.232,3.867,3.422,6.694c1.189,2.675,1.635,5.65,1.635,8.926v10.112c0,6.847-1.783,12.2-5.504,16.367
		c-3.719,4.163-8.33,6.246-13.982,6.246c-5.504,0-9.969-2.083-13.688-6.394c-3.719-4.167-5.504-9.674-5.504-16.216v-13.239H60.766
		v13.239c0,10.709,2.975,19.339,8.775,25.885c5.803,6.546,13.686,9.817,23.803,9.817c9.223,0,16.959-3.271,23.355-9.97
		c6.248-6.693,9.521-15.171,9.521-25.584v-10.117c0-4.463-0.594-8.63-1.785-12.497c-1.189-3.719-2.529-6.694-3.867-8.777
		c-1.34-2.083-2.232-3.423-2.529-4.015l-39.275-46.862c-0.148-0.446-0.594-1.19-1.486-2.231c-0.744-1.19-1.488-2.827-2.082-5.059
		c-0.596-2.231-1.041-4.909-1.041-7.884v-5.652c0-7.588,1.785-13.24,5.354-16.959c3.57-3.719,8.184-5.655,13.836-5.655
		s10.266,1.936,13.984,5.802c3.719,3.867,5.504,8.48,5.504,13.984v12.496H126.072z"/>
	<polygon points="347.4,96.03 258.887,38.138 43.807,38.138 43.807,47.955 256.471,47.996 344.883,105.827 548.266,105.823 
		548.266,96.03 	"/>
	<polygon points="344.732,348.317 256.217,290.426 43.807,290.426 43.807,300.247 254.109,300.284 342.521,358.114 548.266,358.11 
		548.266,348.317 	"/>
	<polygon points="535.77,155.928 535.77,155.778 535.77,142.835 481.471,142.835 481.471,312.131 537.408,312.131 537.408,299.635 
		494.711,299.635 494.711,234.178 528.629,234.178 528.629,221.237 494.711,221.237 494.711,155.928 	"/>
	<path d="M441.604,185.679v-12.497c0-9.073-3.273-16.811-9.67-23.355c-6.398-6.546-14.135-9.819-23.207-9.819
		c-9.225,0-16.959,3.123-23.207,9.521c-6.25,6.249-9.375,14.876-9.375,25.885v6.25c0,4.315,0.596,8.33,1.639,11.901
		c1.189,3.571,2.23,6.398,3.568,8.33c1.191,1.936,2.084,3.274,2.381,3.871l39.869,47.307c0.148,0.147,0.596,0.892,1.488,2.083
		c0.744,1.188,1.486,2.976,2.082,5.354c0.594,2.379,1.043,5.206,1.043,8.33v10.116c0,6.843-1.785,12.197-5.504,16.364
		c-3.723,4.166-8.332,6.25-13.984,6.25c-5.506,0-9.967-2.084-13.689-6.398c-3.719-4.314-5.502-9.669-5.502-16.216v-13.24h-13.24
		v13.24c0,10.709,2.975,19.339,8.775,25.885c5.803,6.547,13.689,9.817,23.803,9.817c9.225,0,16.961-3.271,23.355-9.965
		c6.248-6.694,9.521-15.176,9.521-25.589v-10.117c0-4.463-0.594-8.625-1.635-12.496c-1.189-3.719-2.381-6.694-3.57-8.626
		c-1.191-1.936-2.084-3.274-2.381-3.871l-39.867-47.158c-0.15-0.444-0.596-1.188-1.49-2.231c-0.744-1.188-1.488-2.823-2.082-5.054
		c-0.596-2.236-1.041-4.911-1.041-7.886v-5.654c0-7.588,1.785-13.24,5.355-16.959s8.182-5.654,13.834-5.654
		s10.266,1.936,13.984,5.802c3.719,3.869,5.506,8.479,5.506,13.984v12.497H441.604z"/>
	<polygon points="263.83,89.312 263.787,258.431 275.432,266.082 275.455,110.559 313.838,291.092 335.682,305.688 335.979,136.511 
		324.078,128.761 324.377,284.451 286.02,103.834 	"/>
</g>
</svg>
