<?xml version="1.0" encoding="utf-8"?>
<!-- Generator: Adobe Illustrator 16.0.3, SVG Export Plug-In . SVG Version: 6.00 Build 0)  -->
<!DOCTYPE svg PUBLIC "-//W3C//DTD SVG 1.1//EN" "http://www.w3.org/Graphics/SVG/1.1/DTD/svg11.dtd">
<svg version="1.1" id="Layer_1" xmlns="http://www.w3.org/2000/svg" xmlns:xlink="http://www.w3.org/1999/xlink" x="0px" y="0px"
	 width="364px" height="496.91px" viewBox="0 0 364 496.91" enable-background="new 0 0 364 496.91" xml:space="preserve">
<g id="XMLID_1_">
	<path id="XMLID_3_" d="M53.33,50.263V450.11H33.494V30.428h279.422v19.835H53.33z M332.908,50.263v419.68H53.33V450.11h259.586
		V50.263H332.908z M78.046,109.767h-8.345V93.869h8.345l1.259-22.512h16.688v22.512h16.685v15.898H95.992v34.792
		c0,2.674,0.787,5.035,2.361,7.083c1.574,2.046,4.25,3.148,7.711,3.148c2.364,0,5.038-0.943,7.873-2.676l4.407,10.547
		c-5.353,5.353-11.964,7.87-19.835,7.87c-13.852-0.313-20.779-6.768-20.779-19.363v-41.401H78.046z M71.435,293.476l23.296-36.993
		l-23.296-36.522H91.27l14.167,22.512l13.224-22.512h19.361l-22.983,35.735l24.716,37.937H118.66l-14.169-22.511L91.27,293.633
		H71.435V293.476z M80.721,372.031h62.653v18.889H80.721V372.031z M139.596,160.773c-6.925-6.771-10.389-16.372-10.389-28.651
		c0-12.908,3.305-23.142,9.917-30.697c6.611-7.556,14.956-11.178,24.872-11.178c11.491,0,19.836,4.252,24.873,12.595
		c5.194,8.342,7.24,19.048,6.453,31.954h-46.754c0.315,6.771,2.361,11.649,6.455,14.797c4.092,3.148,8.816,4.566,14.798,4.566
		c5.509,0,11.49-2.046,17.631-6.14l5.353,11.493c-2.361,3.305-5.981,5.983-10.862,8.186c-4.879,2.203-10.231,3.307-16.057,3.307
		C155.18,171.005,146.522,167.54,139.596,160.773z M153.293,109.925c-2.52,3.148-4.25,6.768-5.037,11.177h28.648
		c0-4.722-1.258-8.501-3.778-11.493c-2.518-2.992-5.822-4.407-9.917-4.407C159.117,105.359,155.811,106.777,153.293,109.925z
		 M183.832,293.951c-14.642,0-22.04-6.458-22.04-19.364v-41.401h-8.343v-15.9h8.343l1.261-22.512h16.686v22.512h16.687v15.9h-16.687
		v34.789c0,2.677,0.787,5.038,2.36,7.084c1.577,2.048,4.251,3.148,7.714,3.148c2.361,0,5.038-0.944,7.871-2.675l4.409,10.548
		C197.055,291.272,190.915,293.951,183.832,293.951z M229.012,348.575c4.563,4.092,6.769,9.758,6.769,16.686l0.472,56.042h-16.213
		l-0.473-7.558c-2.36,2.679-5.353,4.723-8.816,6.14c-3.463,1.418-7.398,2.205-11.492,2.205c-7.712,0-13.695-2.205-18.103-6.609
		c-4.407-4.41-6.611-9.919-6.611-16.372c0-8.501,3.147-15.271,9.288-20.312c6.14-5.035,14.325-7.553,24.242-7.553
		c2.992,0,6.14,0.313,9.76,0.943v-3.148c0-6.453-4.565-9.762-13.695-9.762c-6.14,0-12.593,1.892-19.363,5.67l-4.879-13.224
		c2.989-2.361,7.24-4.565,13.064-6.613c5.668-2.044,11.021-3.148,16.059-3.148C217.834,342.435,224.445,344.479,229.012,348.575z
		 M217.834,398.791v-10.545c-3.463-0.948-7.084-1.261-10.547-1.261c-9.76,0-14.482,3.461-14.482,10.545
		c0,2.679,0.943,4.727,2.833,6.14c1.89,1.418,4.407,2.204,7.714,2.204C209.492,405.874,214.214,403.513,217.834,398.791z
		 M264.588,293.476l-0.472-9.759c-2.048,2.989-5.196,5.511-9.288,7.711c-4.094,2.205-8.501,3.31-13.224,3.31
		c-7.398,0-13.067-2.049-17.002-6.141c-3.936-4.093-5.981-9.445-5.981-15.9v-56.04h18.576l-0.474,32.584
		c0,6.771,0.315,12.752,0.945,18.105c0.944,6.138,4.407,9.286,10.548,9.286c2.676,0,5.353-0.944,8.186-2.675
		c2.833-1.732,4.879-3.938,6.453-6.611c0-24.401-0.156-41.245-0.472-50.689h18.576c0.315,17.315,0.472,42.975,0.472,76.663h-16.844
		V293.476z M284.424,135.742H221.77V116.85h62.654V135.742z M266.318,313.31h19.836v107.992h-19.363L266.318,313.31z"/>
</g>
</svg>
