<svg xmlns="http://www.w3.org/2000/svg" xmlns:xlink="http://www.w3.org/1999/xlink" version="1.1" width="649.4285716231989" height="451.71428581159955" enable-background="new 0 0 670.671 841.89" xml:space="preserve"><rect id="backgroundrect" width="100%" height="100%" x="0" y="0" fill="none" stroke="none" class="selected"/>







<g class="currentLayer"><title>Layer 1</title><path fill="#FFFFFF" d="M141.58242877578735,64.91542448425292 c20.059,-0.5870000000000002 34.514,-0.8850000000000002 43.363,-0.8850000000000002 c25.07,-0.2900000000000001 46.904,3.982 65.486,12.832 c43.951,21.536 65.93,67.699 65.93,138.496 c0,28.616 -4.135,53.693 -12.389,75.223 c-19.768,51.037 -59.887,75.954 -120.354,74.779 c-6.492,0 -14.457,-0.15200000000000005 -23.895,-0.4430000000000001 c-40.709,-0.5940000000000002 -61.215,-0.8850000000000002 -61.504,-0.8850000000000002 V65.35842448425291 C107.06842877578735,65.35842448425291 121.51942877578733,65.21342448425293 141.58242877578735,64.91542448425292 zM208.39642877578734,312.26242448425296 c30.678,-9.438 46.018,-41.594 46.018,-96.461 c0,-7.08 -0.2970000000000001,-14.008 -0.8830000000000002,-20.797 c-4.723,-54.273 -27.586,-81.417 -68.586,-81.417 h-28.318 V315.80142448425295 h27.434 C192.91042877578735,315.80142448425295 201.01942877578736,314.6264244842529 208.39642877578734,312.26242448425296 z" id="svg_1" class=""/><path fill="#FFFFFF" d="M593.8844287757873,306.9524244842529 c-21.238,42.479 -56.193,63.717 -104.867,63.717 c-29.5,0 -54.279,-7.965 -74.336,-23.894 c-32.742,-26.549 -49.115,-70.202 -49.115,-130.974 c0,-37.459 7.08,-69.47 21.238,-96.019 c21.828,-40.708 56.195,-61.063 103.1,-61.063 c28.607,0 52.654,7.674 72.123,23.009 c33.629,26.259 50.443,70.797 50.443,133.629 C612.4704287757874,250.7574244842529 606.2754287757873,281.2884244842529 593.8844287757873,306.9524244842529 zM431.49642877578736,260.0504244842529 c8.553,39.822 27.725,59.734 57.521,59.734 c10.621,0 20.203,-2.801 28.762,-8.407 c21.828,-15.632 32.744,-47.491 32.744,-95.575 c0,-16.814 -1.48,-32.149 -4.426,-46.019 c-8.262,-40.113 -26.99,-60.178 -56.193,-60.178 c-11.506,0 -21.834,3.396 -30.975,10.178 c-20.949,16.523 -31.416,48.382 -31.416,95.575 C427.51342877578736,231.58542448425294 428.84242877578737,246.48542448425292 431.49642877578736,260.0504244842529 z" id="svg_2" class=""/><g id="svg_3" class="">
	<path fill="#1A1A1A" d="M405.55042877578734,227.1034244842529 c0,1.3490000000000002 -0.281,2.508 -0.8420000000000002,3.478 c-0.5630000000000002,0.97 -1.336,1.7650000000000001 -2.3200000000000003,2.382 c-0.982,0.6190000000000002 -2.129,1.075 -3.436,1.37 c-1.307,0.2960000000000001 -2.6910000000000007,0.4430000000000001 -4.152,0.4430000000000001 h-14.713000000000001 v-29.933 h17.369 c1.039,0 1.98,0.22600000000000006 2.824,0.6750000000000004 s1.561,1.032 2.15,1.749 s1.047,1.532 1.371,2.4450000000000003 c0.3220000000000001,0.914 0.4840000000000001,1.8490000000000002 0.4840000000000001,2.8040000000000003 c0,1.405 -0.3590000000000001,2.747 -1.076,4.026 s-1.791,2.241 -3.225,2.888 c1.715,0.506 3.07,1.385 4.068,2.6350000000000002 C405.05242877578735,223.31642448425293 405.55042877578734,224.9954244842529 405.55042877578734,227.1034244842529 zM388.3084287757874,211.84242448425294 v4.596 h5.607 c0.5630000000000002,0 1.074,-0.15400000000000005 1.5390000000000001,-0.464 c0.463,-0.3090000000000001 0.6950000000000004,-0.928 0.6950000000000004,-1.855 c0,-0.8140000000000002 -0.19700000000000006,-1.397 -0.5900000000000002,-1.749 c-0.3950000000000002,-0.3520000000000001 -0.8570000000000002,-0.527 -1.393,-0.527 H388.3084287757874 zM397.20342877578736,225.41742448425293 c0,-0.7300000000000002 -0.19500000000000006,-1.342 -0.5900000000000002,-1.834 c-0.3930000000000001,-0.4910000000000001 -0.8980000000000002,-0.7370000000000002 -1.518,-0.7370000000000002 h-6.787 v5.017 h6.492 c0.6740000000000004,0 1.244,-0.21100000000000005 1.707,-0.6330000000000002 C396.97242877578736,226.80842448425295 397.20342877578736,226.2044244842529 397.20342877578736,225.41742448425293 z" id="svg_4"/>
	<path fill="#1A1A1A" d="M409.17542877578734,234.7764244842529 v-29.933 h13.744 c1.461,0 2.811,0.3030000000000001 4.047,0.906 c1.236,0.6040000000000002 2.299,1.3920000000000001 3.184,2.361 s1.58,2.08 2.086,3.33 c0.506,1.251 0.7600000000000002,2.509 0.7600000000000002,3.773 c0,1.743 -0.3790000000000001,3.366 -1.139,4.869 c-0.7580000000000002,1.504 -1.8130000000000002,2.733 -3.162,3.688 l6.324,11.004 h-9.275 l-5.27,-9.19 h-3.076 v9.19 H409.17542877578734 zM417.39842877578735,218.41942448425294 h5.184 c0.506,0 0.977,-0.281 1.4140000000000001,-0.8440000000000002 c0.4340000000000001,-0.562 0.6520000000000002,-1.3490000000000002 0.6520000000000002,-2.36 c0,-1.04 -0.252,-1.834 -0.7580000000000002,-2.382 s-1.012,-0.8220000000000002 -1.518,-0.8220000000000002 h-4.975 V218.41942448425294 z" id="svg_5"/>
	<path fill="#1A1A1A" d="M445.39042877578737,204.84342448425292 h7.504 l10.371,29.933 h-8.348 l-1.8130000000000002,-5.86 h-7.969 l-1.771,5.86 h-8.389 L445.39042877578737,204.84342448425292 zM451.79742877578735,223.4354244842529 l-2.654,-9.274000000000001 l-2.783,9.274000000000001 H451.79742877578735 z" id="svg_6"/>
	<path fill="#1A1A1A" d="M473.97242877578736,220.06242448425292 v14.714 h-8.221 v-29.933 h6.408 l12.016,15.219 v-15.219 h8.221 v29.933 h-6.535 L473.97242877578736,220.06242448425292 z" id="svg_7"/>
	<path fill="#1A1A1A" d="M497.53942877578737,234.7764244842529 v-29.933 h11.51 c2.473,0 4.65,0.3940000000000002 6.533,1.181 s3.457,1.854 4.723,3.204 c1.264,1.3490000000000002 2.219,2.93 2.867,4.742 c0.6450000000000002,1.8130000000000002 0.9690000000000002,3.746 0.9690000000000002,5.797 c0,2.276 -0.3570000000000001,4.336 -1.074,6.177 s-1.7360000000000002,3.414 -3.057,4.722 c-1.322,1.307 -2.91,2.318 -4.764,3.035 c-1.855,0.7170000000000002 -3.922,1.075 -6.197,1.075 H497.53942877578737 zM515.7934287757873,219.76742448425296 c0,-1.1520000000000001 -0.15400000000000005,-2.206 -0.463,-3.162 c-0.3110000000000001,-0.9550000000000002 -0.7520000000000002,-1.771 -1.328,-2.444 c-0.5760000000000002,-0.6750000000000004 -1.2850000000000001,-1.202 -2.129,-1.581 c-0.8440000000000002,-0.3800000000000001 -1.7850000000000001,-0.5690000000000002 -2.824,-0.5690000000000002 h-3.289 v15.599 h3.289 c1.066,0 2.023,-0.19600000000000006 2.865,-0.5910000000000002 c0.8440000000000002,-0.3930000000000001 1.553,-0.9400000000000002 2.129,-1.6440000000000001 c0.5760000000000002,-0.7020000000000002 1.014,-1.5310000000000001 1.3090000000000002,-2.487 C515.6464287757874,221.93242448425292 515.7934287757873,220.89242448425296 515.7934287757873,219.76742448425296 z" id="svg_8"/>
	<path fill="#1A1A1A" d="M527.7224287757873,234.7764244842529 v-29.933 h8.223 v29.933 H527.7224287757873 z" id="svg_9"/>
	<path fill="#1A1A1A" d="M549.3084287757873,220.06242448425292 v14.714 h-8.221 v-29.933 h6.408 l12.016,15.219 v-15.219 h8.221 v29.933 h-6.535 L549.3084287757873,220.06242448425292 z" id="svg_10"/>
	<path fill="#1A1A1A" d="M593.1954287757874,232.28942448425295 c-2.137,1.799 -4.596,2.6980000000000004 -7.377,2.6980000000000004 c-1.939,0 -3.795,-0.3450000000000002 -5.566,-1.033 c-1.77,-0.6880000000000004 -3.316,-1.693 -4.6370000000000005,-3.015 c-1.322,-1.32 -2.375,-2.9370000000000003 -3.162,-4.848 s-1.18,-4.09 -1.18,-6.535 c0,-2.107 0.3930000000000001,-4.068 1.18,-5.881 s1.8690000000000002,-3.387 3.246,-4.722 c1.377,-1.334 3,-2.3890000000000002 4.869,-3.162 c1.8690000000000002,-0.772 3.8850000000000002,-1.159 6.051,-1.159 c1.348,0 2.641,0.14700000000000005 3.8770000000000002,0.4420000000000001 c1.238,0.2960000000000001 2.383,0.7310000000000002 3.438,1.308 c1.053,0.5760000000000002 2.002,1.2650000000000001 2.846,2.065 c0.8420000000000002,0.801 1.5310000000000001,1.707 2.064,2.72 l-6.113,4.679 c-0.5900000000000002,-1.18 -1.475,-2.129 -2.654,-2.846 c-1.182,-0.7160000000000002 -2.432,-1.074 -3.7520000000000002,-1.074 c-0.984,0 -1.8850000000000002,0.19600000000000006 -2.6990000000000007,0.5900000000000002 s-1.518,0.9420000000000002 -2.107,1.645 s-1.055,1.538 -1.391,2.508 c-0.3380000000000002,0.97 -0.506,2.031 -0.506,3.184 c0,1.18 0.16800000000000007,2.248 0.506,3.203 c0.3360000000000002,0.9560000000000002 0.807,1.778 1.412,2.467 c0.6040000000000002,0.6880000000000004 1.328,1.223 2.17,1.602 c0.8440000000000002,0.3800000000000001 1.7850000000000001,0.5690000000000002 2.824,0.5690000000000002 c2.3890000000000002,0 4.498,-0.983 6.324,-2.951 h-5.186 v-5.902 h12.311 v15.937 h-6.787 V232.28942448425295 z" id="svg_11"/>
</g><g id="svg_12" class="">
	<rect x="44.433427810668945" y="363.61244010925293" width="222.35899353027344" height="0.8399999737739563" id="svg_13"/>
	<rect x="44.433427810668945" y="222.4874095916748" width="131.1699981689453" height="0.8399999737739563" id="svg_14"/>
	<rect x="44.433427810668945" y="64.93842887878418" width="222.35899353027344" height="0.8399999737739563" id="svg_15"/>
	<rect x="44.433427810668945" y="113.1064281463623" width="222.35899353027344" height="0.8399999737739563" id="svg_16"/>
</g><g id="svg_17" class="">
	<path fill="#1A1A1A" d="M64.01142877578735,73.64342448425293 l0.17800000000000005,8.855 h-1.24 l-0.8420000000000002,-3.144 c-0.5740000000000002,-2.214 -1.814,-4.561 -4.869,-4.561 h-8.545 c-3.057,0 -4.34,2.347 -4.916,4.561 l-0.8400000000000002,3.144 h-1.24 l0.22100000000000006,-8.855 H64.01142877578735 zM46.52342877578735,100.2094244842529 v-1.151 h11.512 c0.8850000000000002,0 1.15,0.266 1.15,1.151 H46.52342877578735 zM50.73042877578735,100.2094244842529 v-26.565 h4.25 v26.565 H50.73042877578735 z" id="svg_18"/>
	<path fill="#1A1A1A" d="M76.05242877578735,100.38542448425295 l-8.104,-17.887 h-2.08 v-1.151 h8.988 v1.151 h-2.924 l6.199,14.478 h-0.5740000000000002 l5.799,-14.478 h-3.232 v-1.151 h6.73 c0,1.063 -0.266,1.151 -1.107,1.151 c-0.93,0 -1.195,0.22100000000000006 -1.6390000000000002,1.461 l-6.551,16.382 c-2.6580000000000004,6.597 -5.227,8.324 -8.059,8.324 c-2.258,0 -3.9859999999999998,-1.24 -3.9859999999999998,-2.834 c0,-0.8860000000000002 0.6210000000000002,-1.6380000000000003 1.771,-1.6380000000000003 c2.303,0 1.461,3.055 3.055,3.055 C72.37742877578735,107.24942448425293 73.97042877578735,105.38842448425294 76.05242877578735,100.38542448425295 z" id="svg_19"/>
	<path fill="#1A1A1A" d="M98.00942877578736,107.51442448425291 c0.8850000000000002,0 1.105,0.22200000000000006 1.105,1.106 H88.13642877578735 v-1.106 c2.303,0 3.143,-0.3110000000000001 3.143,-2.612 v-22.448 h-3.143 v-1.106 h6.641 l0.22100000000000006,4.6930000000000005 c1.24,-3.6310000000000002 4.295,-5.181 7.2620000000000005,-5.181 c5.047,0 7.527,4.472 7.527,9.431000000000001 c0,6.863 -4.648,10.361 -9.166,10.361 c-1.992,0 -4.205,-0.798 -5.533,-2.259 v9.121 H98.00942877578736 zM95.04342877578735,91.61942448425293 c0,5.668 2.391,7.926 5.1370000000000005,7.926 c3.363,0 5.4,-3.1 5.4,-8.767 c0,-5.048 -1.6390000000000002,-8.059 -4.914,-8.059 C97.34542877578735,82.71942448425295 95.04342877578735,86.12942448425292 95.04342877578735,91.61942448425293 z" id="svg_20"/>
	<path fill="#1A1A1A" d="M132.58642877578734,90.68942448425292 c0,6.243 -4.736,9.963000000000001 -9.785,9.963000000000001 c-5.002,0 -9.65,-3.676 -9.65,-10.096 c0,-6.154 4.781,-9.696 9.828,-9.696 S132.58642877578734,84.35842448425291 132.58642877578734,90.68942448425292 zM122.93342877578735,99.54542448425292 c3.896,0 5.402,-3.587 5.402,-8.988 c0,-5.136 -1.461,-8.59 -5.49,-8.59 c-3.896,0 -5.49,3.454 -5.49,8.768 C117.35542877578736,96.00342448425295 118.94942877578735,99.54542448425292 122.93342877578735,99.54542448425292 z" id="svg_21"/>
	<path fill="#1A1A1A" d="M152.59542877578735,87.90042448425294 c0,4.339 -3.676,7.261 -8.104,7.261 c-3.6310000000000002,0 -8.059,-3.01 -8.059,-7.217 c0,-4.339 3.721,-7.084 8.148,-7.084 C149.05242877578735,80.86042448425292 152.59542877578735,83.60542448425292 152.59542877578735,87.90042448425294 zM142.63342877578737,94.00942448425292 l1.859,1.151 l-4.072,-0.04400000000000002 c-1.416,0 -1.992,0.7530000000000002 -1.992,1.461 c0,1.019 0.6640000000000003,1.6390000000000002 1.947,1.6830000000000005 l8.279,0.17700000000000005 c3.896,0.08900000000000004 5.668,1.86 5.668,4.605 c0,2.833 -2.834,5.623 -9.697000000000001,5.623 c-5.047,0 -7.525,-2.081 -7.525,-4.428 c0,-1.151 0.6640000000000003,-2.479 1.992,-3.5860000000000003 l1.018,0.4860000000000001 c-0.93,0.93 -1.506,1.948 -1.506,2.878 c0,1.859 1.949,3.498 6.021,3.498 c3.941,0 7.572,-1.151 7.572,-3.276 c0,-1.7280000000000002 -1.24,-2.17 -3.807,-2.214 l-7.2620000000000005,-0.08900000000000004 c-3.1,-0.04400000000000002 -4.473,-2.258 -4.473,-4.25 c0,-1.815 1.107,-3.676 3.896,-3.676 H142.63342877578737 zM144.53742877578736,94.05442448425293 c3.232,0 4.117,-2.612 4.117,-6.11 c0,-3.497 -0.8850000000000002,-5.978 -4.117,-5.978 s-4.162,2.48 -4.162,5.978 C140.37542877578736,91.44242448425291 141.25942877578734,94.05442448425293 144.53742877578736,94.05442448425293 zM150.38142877578736,85.46542448425294 l-1.549,-0.797 c-0.04300000000000002,-0.22100000000000006 -0.04300000000000002,-0.4420000000000001 -0.04300000000000002,-0.6640000000000003 c0,-3.5860000000000003 2.346,-5.534 4.383,-5.534 c1.6820000000000004,0 2.434,1.151 2.434,2.169 c0,0.7530000000000002 -0.4860000000000001,1.461 -1.373,1.461 c-1.018,0 -1.105,-1.15 -2.301,-1.15 c-1.107,0 -1.992,1.195 -1.992,2.612 C149.93942877578735,84.35842448425291 150.11742877578735,84.93342448425295 150.38142877578736,85.46542448425294 z" id="svg_22"/>
	<path fill="#1A1A1A" d="M168.35542877578735,100.2094244842529 h-11.246 v-1.107 c2.258,0 3.143,-0.265 3.143,-2.611 v-14.036 h-3.143 v-1.106 h6.686 l0.266,5.711 v12.043 h3.188 C168.13342877578737,99.1014244842529 168.35542877578735,99.32342448425294 168.35542877578735,100.2094244842529 zM171.23242877578735,85.68642448425294 c-2.08,0 -1.859,-2.656 -3.3200000000000003,-2.656 c-1.063,0 -3.896,2.435 -3.896,7.394 l-0.3110000000000001,-4.029 c1.107,-3.542 4.162,-5.313 6.553,-5.313 c1.6390000000000002,0 2.967,0.8410000000000002 2.967,2.568 C173.22442877578735,84.71342448425293 172.47242877578736,85.68642448425294 171.23242877578735,85.68642448425294 z" id="svg_23"/>
	<path fill="#1A1A1A" d="M180.39642877578734,100.65242448425295 c-2.9690000000000003,0 -5.535,-1.6840000000000004 -5.535,-5.1370000000000005 c0,-4.339 4.207,-6.154 12.441,-6.154 v1.239 c-5.314,0 -8.502,0.6640000000000003 -8.502,4.207 c0,2.789 1.328,4.029 3.232,4.029 c1.949,0 4.162,-1.5950000000000002 4.871,-4.561 v-7.704 c0,-3.1 -1.4180000000000001,-4.605 -3.984,-4.605 c-4.164,0 -2.17,4.517 -5.004,4.517 c-1.24,0 -1.904,-0.797 -1.904,-1.771 c0,-1.904 2.348,-3.853 7.35,-3.853 c4.738,0 7.307,2.126 7.307,6.774 v9.342 c0,1.461 0.3980000000000002,2.259 1.15,2.259 c0.8850000000000002,0 1.506,-1.019 1.6820000000000004,-3.232 l1.1520000000000001,0.04400000000000002 c-0.133,2.967 -1.1520000000000001,4.605 -3.939,4.605 c-2.525,0 -3.6310000000000002,-1.86 -3.809,-4.561 h0.22100000000000006 C186.41642877578735,98.79242448425293 183.45142877578735,100.65242448425295 180.39642877578734,100.65242448425295 z" id="svg_24"/>
	<path fill="#1A1A1A" d="M205.85142877578735,107.51442448425291 c0.8870000000000002,0 1.107,0.22200000000000006 1.107,1.106 h-10.98 v-1.106 c2.303,0 3.145,-0.3110000000000001 3.145,-2.612 v-22.448 h-3.145 v-1.106 h6.643 l0.22100000000000006,4.6930000000000005 c1.24,-3.6310000000000002 4.295,-5.181 7.26,-5.181 c5.049,0 7.527,4.472 7.527,9.431000000000001 c0,6.863 -4.648,10.361 -9.164,10.361 c-1.992,0 -4.207,-0.798 -5.535,-2.259 v9.121 H205.85142877578735 zM202.88442877578734,91.61942448425293 c0,5.668 2.3930000000000002,7.926 5.1370000000000005,7.926 c3.365,0 5.402,-3.1 5.402,-8.767 c0,-5.048 -1.6390000000000002,-8.059 -4.914,-8.059 C205.18742877578737,82.71942448425295 202.88442877578734,86.12942448425292 202.88442877578734,91.61942448425293 z" id="svg_25"/>
	<path fill="#1A1A1A" d="M230.68742877578737,100.2094244842529 h-10.051 v-1.107 c2.258,0 3.143,-0.265 3.143,-2.611 v-23.954 h-3.143 v-1.106 h6.9510000000000005 v15.541 v12.131 h1.992 C230.46542877578736,99.1014244842529 230.68742877578737,99.32342448425294 230.68742877578737,100.2094244842529 zM240.29542877578734,99.1014244842529 h2.037 c0.8850000000000002,0 1.105,0.22200000000000006 1.105,1.107 h-9.74 v-1.107 c2.258,0 2.791,-0.3100000000000001 2.791,-2.611 v-8.59 c0,-3.276 -1.727,-4.959 -3.9859999999999998,-4.959 c-2.168,0 -4.914,1.992 -4.914,6.376 l-0.08800000000000004,-3.6750000000000007 c1.061,-3.1 4.072,-4.782 6.906,-4.782 c3.1,0 5.889,2.214 5.889,7.173 V99.1014244842529 z" id="svg_26"/>
	<path fill="#1A1A1A" d="M254.99042877578734,100.38542448425295 l-8.102,-17.887 h-2.082 v-1.151 h8.988 v1.151 h-2.922 l6.197,14.478 h-0.5740000000000002 l5.801,-14.478 h-3.232 v-1.151 h6.729 c0,1.063 -0.264,1.151 -1.107,1.151 c-0.928,0 -1.193,0.22100000000000006 -1.637,1.461 l-6.553,16.382 c-2.656,6.597 -5.225,8.324 -8.059,8.324 c-2.258,0 -3.984,-1.24 -3.984,-2.834 c0,-0.8860000000000002 0.6190000000000002,-1.6380000000000003 1.771,-1.6380000000000003 c2.303,0 1.459,3.055 3.055,3.055 C251.31442877578735,107.24942448425293 252.91042877578735,105.38842448425294 254.99042877578734,100.38542448425295 z" id="svg_27"/>
</g><rect x="486.1524181365967" y="269.35841178894043" fill="#1A1A1A" width="4.665999889373779" height="149.33399963378906" id="svg_28" class=""/><rect x="486.1524181365967" y="20.340421676635742" fill="#1A1A1A" width="4.665999889373779" height="149.33399963378906" id="svg_29" class=""/></g></svg>