<svg xmlns="http://www.w3.org/2000/svg" xmlns:xlink="http://www.w3.org/1999/xlink" version="1.1" width="672" height="452" enable-background="new 0 0 670.671 841.89" xml:space="preserve"><rect id="backgroundrect" width="100%" height="100%" x="0" y="0" fill="none" stroke="none" class=""/>









<g class="currentLayer"><title>Layer 1</title><path fill="#FFFFFF" d="M124.60285707473754,376.88957360839845 L51.59385707473755,78.21557360839842 h60.62 l34.956,162.832 c2.06,9.445 4.425,26.846 7.08,52.213 c5.013,-30.088 8.255,-47.933 9.734,-53.539 l38.054,-150.444 l56.195,-1.77 l38.938,153.54 c2.357,9.147 5.455,26.259 9.292,51.328 c3.831,-25.954 6.638,-43.508 8.407,-52.654 l33.628,-161.506 h57.08 l-76.548,298.674 h-50.001 l-42.478,-161.948 c-2.067,-7.667 -4.723,-19.469 -7.965,-35.398 c-2.365,12.39 -5.164,24.634 -8.407,36.727 l-43.806,160.62 H124.60285707473754 z" id="svg_1" class=""/><path fill="#FFFFFF" d="M608.4508570747375,376.88957360839845 H446.50385707473754 V78.21557360839842 h157.965 v48.673 h-99.559 v72.566 h86.727 v47.788 h-86.727 v80.974 h103.541 V376.88957360839845 z" id="svg_2" class=""/><g id="svg_3" class="">
	<g id="svg_4">
		<path fill="#1A1A1A" d="M117.98485707473755,200.67157360839843 h6.6850000000000005 c1.717,0 3.29,0.20900000000000002 4.718,0.6270000000000001 c1.427,0.41800000000000004 2.6510000000000002,1.079 3.673,1.984 s1.816,2.066 2.3850000000000002,3.481 c0.5680000000000001,1.416 0.8530000000000001,3.122 0.8530000000000001,5.118 s-0.279,3.714 -0.8360000000000001,5.152 c-0.557,1.439 -1.34,2.624 -2.35,3.552 c-1.01,0.929 -2.205,1.613 -3.5860000000000003,2.054 c-1.381,0.44100000000000006 -2.8840000000000003,0.6620000000000001 -4.509,0.6620000000000001 h-7.033 V200.67157360839843 zM124.32085707473755,218.49757360839845 c0.8130000000000001,0 1.578,-0.09900000000000003 2.298,-0.29600000000000004 c0.7190000000000001,-0.19700000000000004 1.34,-0.54 1.863,-1.027 c0.522,-0.48700000000000004 0.934,-1.1600000000000001 1.236,-2.02 c0.30100000000000005,-0.8580000000000001 0.453,-1.949 0.453,-3.2720000000000002 s-0.15100000000000002,-2.402 -0.453,-3.238 c-0.30200000000000005,-0.8350000000000001 -0.7140000000000001,-1.484 -1.236,-1.949 c-0.522,-0.464 -1.1440000000000001,-0.783 -1.863,-0.9580000000000001 c-0.7200000000000001,-0.17400000000000002 -1.485,-0.261 -2.298,-0.261 h-0.3480000000000001 v13.021 H124.32085707473755 z" id="svg_5"/>
		<path fill="#1A1A1A" d="M138.94385707473754,214.59857360839845 c0,-1.416 0.23800000000000002,-2.6870000000000003 0.7130000000000001,-3.813 s1.103,-2.083 1.8800000000000001,-2.872 c0.777,-0.789 1.665,-1.393 2.664,-1.811 c0.998,-0.41800000000000004 2.031,-0.6270000000000001 3.099,-0.6270000000000001 c1.276,0 2.39,0.22100000000000003 3.342,0.6610000000000001 c0.9510000000000001,0.44100000000000006 1.741,1.045 2.367,1.811 c0.6270000000000001,0.7670000000000001 1.097,1.6600000000000001 1.4100000000000001,2.681 c0.31300000000000006,1.022 0.47000000000000003,2.113 0.47000000000000003,3.273 c0,0.534 -0.029000000000000005,1.01 -0.08700000000000002,1.427 c-0.05900000000000001,0.41800000000000004 -0.11100000000000002,0.7310000000000001 -0.15700000000000003,0.9400000000000001 h-9.923 c0.279,1.114 0.777,1.8800000000000001 1.497,2.298 c0.7190000000000001,0.41800000000000004 1.5670000000000002,0.6270000000000001 2.542,0.6270000000000001 c0.6040000000000001,0 1.189,-0.08700000000000002 1.758,-0.262 c0.5680000000000001,-0.17400000000000002 1.167,-0.43500000000000005 1.7930000000000001,-0.783 l1.9500000000000002,3.552 c-0.9520000000000001,0.6730000000000002 -2.002,1.178 -3.151,1.5150000000000001 c-1.149,0.3360000000000001 -2.21,0.505 -3.186,0.505 c-1.2770000000000001,0 -2.46,-0.20400000000000001 -3.551,-0.6090000000000001 c-1.091,-0.406 -2.037,-0.998 -2.837,-1.776 c-0.801,-0.777 -1.4340000000000002,-1.734 -1.8970000000000002,-2.872 C139.17585707473754,217.32557360839843 138.94385707473754,216.03757360839842 138.94385707473754,214.59857360839845 zM149.80685707473754,212.64857360839846 c0,-0.7420000000000001 -0.16800000000000004,-1.369 -0.504,-1.8800000000000001 c-0.3370000000000001,-0.51 -0.9580000000000001,-0.7660000000000001 -1.863,-0.7660000000000001 c-0.6730000000000002,0 -1.259,0.19700000000000004 -1.758,0.5920000000000001 c-0.5,0.3950000000000001 -0.8420000000000001,1.079 -1.027,2.054 H149.80685707473754 z" id="svg_6"/>
		<path fill="#1A1A1A" d="M159.41585707473754,217.59257360839842 c1.578,1.161 2.9939999999999998,1.7400000000000002 4.248,1.7400000000000002 c0.6260000000000001,0 1.073,-0.08700000000000002 1.34,-0.261 c0.267,-0.17400000000000002 0.4,-0.43600000000000005 0.4,-0.783 c0,-0.231 -0.09300000000000003,-0.43600000000000005 -0.279,-0.6090000000000001 c-0.18600000000000003,-0.17400000000000002 -0.43500000000000005,-0.3360000000000001 -0.7490000000000001,-0.48700000000000004 c-0.31300000000000006,-0.15000000000000002 -0.6670000000000001,-0.29600000000000004 -1.062,-0.43600000000000005 c-0.3950000000000001,-0.139 -0.8130000000000001,-0.30100000000000005 -1.2530000000000001,-0.48700000000000004 c-0.511,-0.20900000000000002 -1.027,-0.458 -1.549,-0.7480000000000001 c-0.522,-0.29000000000000004 -0.993,-0.6450000000000001 -1.4100000000000001,-1.063 c-0.41800000000000004,-0.41800000000000004 -0.7610000000000001,-0.8990000000000001 -1.027,-1.444 c-0.267,-0.546 -0.4,-1.178 -0.4,-1.8970000000000002 c0,-0.8580000000000001 0.16800000000000004,-1.637 0.505,-2.333 s0.806,-1.288 1.4100000000000001,-1.775 c0.6040000000000001,-0.48700000000000004 1.3290000000000002,-0.8640000000000001 2.176,-1.1320000000000001 c0.8470000000000001,-0.267 1.7810000000000001,-0.4 2.802,-0.4 c1.439,0 2.6750000000000003,0.23800000000000002 3.708,0.7140000000000001 s1.933,1.004 2.6980000000000004,1.584 l-2.646,3.552 c-0.6260000000000001,-0.465 -1.242,-0.8240000000000001 -1.8450000000000002,-1.08 c-0.6040000000000001,-0.255 -1.172,-0.38300000000000006 -1.706,-0.38300000000000006 c-1.021,0 -1.532,0.32500000000000007 -1.532,0.975 c0,0.232 0.08700000000000002,0.43000000000000005 0.261,0.5920000000000001 c0.17400000000000002,0.16300000000000003 0.41200000000000003,0.31300000000000006 0.7130000000000001,0.453 s0.6500000000000001,0.273 1.045,0.4 c0.3940000000000001,0.128 0.812,0.273 1.2530000000000001,0.43600000000000005 c0.511,0.18600000000000003 1.033,0.41700000000000004 1.5670000000000002,0.6960000000000002 c0.534,0.278 1.015,0.6210000000000001 1.445,1.026 c0.42900000000000005,0.406 0.777,0.8950000000000001 1.044,1.463 c0.267,0.5680000000000001 0.4,1.248 0.4,2.036 c0,0.8130000000000001 -0.16300000000000003,1.573 -0.48700000000000004,2.281 c-0.32500000000000007,0.7080000000000001 -0.801,1.322 -1.427,1.8450000000000002 c-0.6270000000000001,0.522 -1.405,0.929 -2.333,1.219 s-1.9969999999999999,0.43600000000000005 -3.203,0.43600000000000005 c-1.114,0 -2.292,-0.22200000000000003 -3.534,-0.6620000000000001 c-1.242,-0.44000000000000006 -2.315,-1.032 -3.221,-1.775 L159.41585707473754,217.59257360839842 z" id="svg_7"/>
		<path fill="#1A1A1A" d="M176.89285707473755,203.73557360839845 c-0.975,0 -1.776,-0.278 -2.402,-0.8350000000000001 c-0.6270000000000001,-0.558 -0.9400000000000001,-1.276 -0.9400000000000001,-2.159 c0,-0.8820000000000001 0.31300000000000006,-1.602 0.9400000000000001,-2.158 c0.6260000000000001,-0.557 1.427,-0.8360000000000001 2.402,-0.8360000000000001 c0.975,0 1.775,0.279 2.402,0.8360000000000001 c0.6260000000000001,0.557 0.9400000000000001,1.276 0.9400000000000001,2.158 c0,0.8830000000000001 -0.31300000000000006,1.602 -0.9400000000000001,2.159 C178.66785707473755,203.45657360839846 177.86785707473754,203.73557360839845 176.89285707473755,203.73557360839845 zM173.89885707473755,205.89457360839845 h5.9879999999999995 v17.408 h-5.9879999999999995 V205.89457360839845 z" id="svg_8"/>
		<path fill="#1A1A1A" d="M182.95085707473754,226.15757360839842 c0,-1.369 0.812,-2.483 2.4370000000000003,-3.342 v-0.14 c-0.464,-0.32500000000000007 -0.8470000000000001,-0.7190000000000001 -1.149,-1.184 c-0.30200000000000005,-0.464 -0.453,-1.067 -0.453,-1.811 c0,-0.6040000000000001 0.17400000000000002,-1.195 0.522,-1.775 s0.8240000000000001,-1.079 1.427,-1.497 v-0.14 c-0.6260000000000001,-0.41800000000000004 -1.178,-1.01 -1.6540000000000001,-1.775 c-0.47600000000000003,-0.7670000000000001 -0.7130000000000001,-1.6590000000000003 -0.7130000000000001,-2.681 c0,-1.067 0.20900000000000002,-2.002 0.6260000000000001,-2.803 c0.41800000000000004,-0.801 0.975,-1.463 1.6710000000000003,-1.984 c0.6960000000000002,-0.522 1.491,-0.911 2.3850000000000002,-1.167 c0.8930000000000001,-0.255 1.816,-0.38300000000000006 2.7680000000000002,-0.38300000000000006 c1.021,0 1.9500000000000002,0.14 2.785,0.41800000000000004 h6.476 v4.317 h-2.507 c0.06900000000000002,0.20900000000000002 0.133,0.47600000000000003 0.19100000000000003,0.801 c0.05800000000000001,0.32500000000000007 0.08700000000000002,0.6610000000000001 0.08700000000000002,1.01 c0,1.021 -0.18600000000000003,1.8970000000000002 -0.557,2.628 c-0.37200000000000005,0.7310000000000001 -0.8700000000000001,1.3290000000000002 -1.497,1.7930000000000001 c-0.6260000000000001,0.465 -1.37,0.807 -2.228,1.027 c-0.8590000000000001,0.22100000000000003 -1.776,0.33100000000000007 -2.75,0.33100000000000007 c-0.5810000000000001,0 -1.23,-0.08100000000000002 -1.9500000000000002,-0.24400000000000002 c-0.18600000000000003,0.16300000000000003 -0.30200000000000005,0.30800000000000005 -0.3480000000000001,0.43600000000000005 c-0.04700000000000001,0.128 -0.07,0.31900000000000006 -0.07,0.5740000000000001 c0,0.3960000000000001 0.18600000000000003,0.6680000000000001 0.557,0.8180000000000001 c0.37100000000000005,0.15100000000000002 0.998,0.22700000000000004 1.8800000000000001,0.22700000000000004 h2.611 c2.182,0 3.87,0.35400000000000004 5.066,1.062 c1.195,0.7080000000000001 1.7930000000000001,1.862 1.7930000000000001,3.464 c0,0.9520000000000001 -0.23800000000000002,1.816 -0.7140000000000001,2.5940000000000003 c-0.47600000000000003,0.777 -1.149,1.445 -2.019,2.002 c-0.8710000000000001,0.558 -1.927,0.986 -3.168,1.2890000000000001 c-1.242,0.30100000000000005 -2.641,0.452 -4.195,0.452 c-0.999,0 -1.9380000000000002,-0.07500000000000001 -2.8200000000000003,-0.22700000000000004 c-0.8820000000000001,-0.15100000000000002 -1.6540000000000001,-0.4 -2.315,-0.7480000000000001 c-0.6620000000000001,-0.3490000000000001 -1.19,-0.796 -1.584,-1.3410000000000002 C183.14685707473754,227.61357360839844 182.95085707473754,226.9465736083984 182.95085707473754,226.15757360839842 zM187.82485707473754,225.18257360839846 c0,0.557 0.31300000000000006,0.9630000000000001 0.9400000000000001,1.219 c0.6260000000000001,0.255 1.45,0.38300000000000006 2.472,0.38300000000000006 c0.975,0 1.787,-0.14600000000000002 2.438,-0.43600000000000005 c0.6490000000000001,-0.29000000000000004 0.975,-0.6790000000000002 0.975,-1.166 c0,-0.465 -0.20400000000000001,-0.7550000000000001 -0.6090000000000001,-0.8700000000000001 c-0.406,-0.11700000000000002 -0.98,-0.17500000000000002 -1.723,-0.17500000000000002 h-1.358 c-0.6960000000000002,0 -1.225,-0.017000000000000005 -1.584,-0.05200000000000001 c-0.36000000000000004,-0.035 -0.6670000000000001,-0.08700000000000002 -0.923,-0.15700000000000003 c-0.20900000000000002,0.20900000000000002 -0.36600000000000005,0.406 -0.47000000000000003,0.5930000000000001 C187.87685707473756,224.70657360839846 187.82485707473754,224.92657360839843 187.82485707473754,225.18257360839846 zM190.81885707473754,214.24957360839846 c0.557,0 1.01,-0.19600000000000004 1.358,-0.5920000000000001 c0.3480000000000001,-0.3950000000000001 0.522,-1.01 0.522,-1.8450000000000002 c0,-0.8130000000000001 -0.17400000000000002,-1.4100000000000001 -0.522,-1.7930000000000001 c-0.3480000000000001,-0.38400000000000006 -0.801,-0.5750000000000001 -1.358,-0.5750000000000001 s-1.01,0.19100000000000003 -1.358,0.5750000000000001 c-0.3480000000000001,0.38300000000000006 -0.522,0.98 -0.522,1.7930000000000001 c0,0.8350000000000001 0.17400000000000002,1.45 0.522,1.8450000000000002 C189.80985707473755,214.05357360839844 190.26185707473755,214.24957360839846 190.81885707473754,214.24957360839846 z" id="svg_9"/>
		<path fill="#1A1A1A" d="M202.93485707473755,205.89457360839845 h4.8740000000000006 l0.41800000000000004,2.089 h0.139 c0.6960000000000002,-0.6730000000000002 1.491,-1.259 2.3850000000000002,-1.758 s1.933,-0.7490000000000001 3.116,-0.7490000000000001 c1.903,0 3.284,0.6450000000000001 4.143,1.933 c0.8580000000000001,1.288 1.288,3.012 1.288,5.17 v10.724 h-5.9879999999999995 v-9.958 c0,-1.114 -0.139,-1.856 -0.41800000000000004,-2.228 c-0.278,-0.37100000000000005 -0.7200000000000001,-0.558 -1.323,-0.558 c-0.557,0 -1.021,0.11600000000000002 -1.393,0.3490000000000001 c-0.37200000000000005,0.232 -0.79,0.557 -1.2530000000000001,0.975 v11.42 h-5.9879999999999995 V205.89457360839845 z" id="svg_10"/>
	</g>
</g><g id="svg_11" class="">
	<g id="svg_12">
		<path fill="#1A1A1A" d="M73.74785707473755,161.62057360839844 c-0.998,-0.18600000000000003 -2.002,-0.464 -3.011,-0.8360000000000001 c-1.01,-0.37000000000000005 -2.025,-0.8230000000000001 -3.047,-1.357 c-0.998,0.6740000000000002 -2.101,1.207 -3.307,1.602 c-1.208,0.3950000000000001 -2.542,0.5920000000000001 -4.004,0.5920000000000001 c-1.323,0 -2.472,-0.18000000000000002 -3.447,-0.54 c-0.975,-0.35900000000000004 -1.782,-0.8410000000000001 -2.42,-1.444 c-0.6390000000000001,-0.6040000000000001 -1.12,-1.3 -1.445,-2.089 c-0.32500000000000007,-0.789 -0.48700000000000004,-1.613 -0.48700000000000004,-2.472 c0,-0.789 0.10400000000000001,-1.5030000000000001 0.31300000000000006,-2.142 c0.20900000000000002,-0.6380000000000001 0.49900000000000005,-1.207 0.8710000000000001,-1.706 c0.37100000000000005,-0.49900000000000005 0.801,-0.9510000000000001 1.288,-1.357 s0.998,-0.771 1.532,-1.097 c-0.44100000000000006,-0.789 -0.778,-1.5670000000000002 -1.01,-2.333 c-0.232,-0.7660000000000001 -0.3480000000000001,-1.485 -0.3480000000000001,-2.159 c0,-0.812 0.15000000000000002,-1.589 0.453,-2.332 c0.30100000000000005,-0.7430000000000001 0.7360000000000001,-1.393 1.306,-1.9500000000000002 c0.5680000000000001,-0.557 1.2530000000000001,-1.003 2.054,-1.34 c0.8,-0.3370000000000001 1.711,-0.505 2.733,-0.505 c1.811,0 3.261,0.48100000000000004 4.352,1.444 c1.091,0.9640000000000001 1.6360000000000001,2.27 1.6360000000000001,3.917 c0,0.7430000000000001 -0.128,1.416 -0.38300000000000006,2.02 c-0.256,0.6040000000000001 -0.5920000000000001,1.161 -1.01,1.6710000000000003 c-0.41800000000000004,0.511 -0.9,0.981 -1.445,1.4100000000000001 c-0.546,0.43000000000000005 -1.109,0.8300000000000001 -1.6880000000000002,1.201 c0.5800000000000001,0.6040000000000001 1.207,1.189 1.8800000000000001,1.7590000000000001 c0.6730000000000002,0.5680000000000001 1.369,1.108 2.089,1.618 c0.534,-0.6960000000000002 1.01,-1.462 1.428,-2.298 c0.41700000000000004,-0.8350000000000001 0.7540000000000001,-1.7400000000000002 1.009,-2.716 h5.432 c-0.3950000000000001,1.323 -0.8940000000000001,2.601 -1.497,3.83 c-0.6040000000000001,1.23 -1.335,2.426 -2.193,3.5860000000000003 c1.369,0.6740000000000002 2.623,1.08 3.7600000000000002,1.219 L73.74785707473755,161.62057360839844 zM58.21985707473755,154.72757360839842 c0,0.6960000000000002 0.261,1.266 0.783,1.706 c0.522,0.44100000000000006 1.236,0.6610000000000001 2.141,0.6610000000000001 c0.6730000000000002,0 1.416,-0.18600000000000003 2.229,-0.557 c-1.5790000000000002,-1.254 -2.948,-2.564 -4.108,-3.935 c-0.32500000000000007,0.32500000000000007 -0.5810000000000001,0.6620000000000001 -0.7660000000000001,1.01 C58.311857074737546,153.96157360839845 58.21985707473755,154.33257360839843 58.21985707473755,154.72757360839842 zM60.134857074737546,144.28257360839842 c0,0.7200000000000001 0.20800000000000002,1.475 0.6260000000000001,2.2640000000000002 c0.7190000000000001,-0.41800000000000004 1.311,-0.8580000000000001 1.776,-1.323 c0.464,-0.464 0.6960000000000002,-1.032 0.6960000000000002,-1.706 c0,-0.975 -0.44100000000000006,-1.462 -1.323,-1.462 c-0.464,0 -0.8760000000000001,0.18600000000000003 -1.236,0.557 C60.31385707473755,142.98357360839844 60.134857074737546,143.53957360839843 60.134857074737546,144.28257360839842 z" id="svg_13"/>
	</g>
</g><g id="svg_14" class="">
	<g id="svg_15">
		<path fill="#1A1A1A" d="M54.320857074737546,170.21057360839842 h6.6850000000000005 c1.717,0 3.29,0.20900000000000002 4.718,0.6270000000000001 c1.427,0.41800000000000004 2.6510000000000002,1.079 3.673,1.984 s1.816,2.066 2.3850000000000002,3.481 c0.5680000000000001,1.416 0.8530000000000001,3.122 0.8530000000000001,5.118 s-0.279,3.714 -0.8360000000000001,5.152 c-0.557,1.439 -1.34,2.624 -2.35,3.552 c-1.01,0.929 -2.205,1.613 -3.5860000000000003,2.054 c-1.381,0.44100000000000006 -2.8840000000000003,0.6620000000000001 -4.509,0.6620000000000001 h-7.033 V170.21057360839842 zM60.65685707473755,188.03657360839844 c0.8130000000000001,0 1.578,-0.09900000000000003 2.298,-0.29600000000000004 c0.7190000000000001,-0.19700000000000004 1.34,-0.54 1.863,-1.027 c0.522,-0.48700000000000004 0.934,-1.1600000000000001 1.236,-2.02 c0.30100000000000005,-0.8580000000000001 0.453,-1.949 0.453,-3.2720000000000002 s-0.15100000000000002,-2.402 -0.453,-3.238 c-0.30200000000000005,-0.8350000000000001 -0.7140000000000001,-1.484 -1.236,-1.949 c-0.522,-0.464 -1.1440000000000001,-0.783 -1.863,-0.9580000000000001 c-0.7200000000000001,-0.17400000000000002 -1.485,-0.261 -2.298,-0.261 h-0.3480000000000001 v13.021 H60.65685707473755 z" id="svg_16"/>
		<path fill="#1A1A1A" d="M75.27985707473755,184.13757360839844 c0,-1.439 0.23800000000000002,-2.728 0.7130000000000001,-3.865 c0.47600000000000003,-1.137 1.114,-2.094 1.915,-2.872 c0.801,-0.777 1.7240000000000002,-1.369 2.7680000000000002,-1.775 s2.124,-0.6090000000000001 3.238,-0.6090000000000001 s2.188,0.203 3.221,0.6090000000000001 c1.032,0.406 1.9500000000000002,0.998 2.75,1.775 c0.801,0.778 1.445,1.735 1.932,2.872 c0.48700000000000004,1.138 0.7310000000000001,2.426 0.7310000000000001,3.865 s-0.24400000000000002,2.728 -0.7310000000000001,3.864 c-0.48700000000000004,1.138 -1.131,2.095 -1.932,2.872 c-0.801,0.778 -1.718,1.37 -2.75,1.776 c-1.033,0.405 -2.106,0.6090000000000001 -3.221,0.6090000000000001 s-2.193,-0.20400000000000001 -3.238,-0.6090000000000001 c-1.044,-0.406 -1.967,-0.998 -2.7680000000000002,-1.776 c-0.801,-0.777 -1.439,-1.734 -1.915,-2.872 C75.51785707473755,186.86557360839845 75.27985707473755,185.57657360839846 75.27985707473755,184.13757360839844 zM81.40785707473755,184.13757360839844 c0,1.323 0.19100000000000003,2.373 0.5750000000000001,3.15 c0.38300000000000006,0.778 1.027,1.167 1.932,1.167 s1.549,-0.38900000000000007 1.932,-1.167 c0.38300000000000006,-0.777 0.5750000000000001,-1.827 0.5750000000000001,-3.15 s-0.19100000000000003,-2.373 -0.5750000000000001,-3.151 c-0.38300000000000006,-0.777 -1.027,-1.166 -1.932,-1.166 s-1.549,0.38900000000000007 -1.932,1.166 C81.59885707473755,181.76457360839845 81.40785707473755,182.81457360839846 81.40785707473755,184.13757360839844 z" id="svg_17"/>
		<path fill="#1A1A1A" d="M94.77685707473755,184.13757360839844 c0,-1.439 0.255,-2.728 0.7660000000000001,-3.865 c0.51,-1.137 1.195,-2.094 2.054,-2.872 c0.8580000000000001,-0.777 1.851,-1.369 2.977,-1.775 c1.125,-0.406 2.303,-0.6090000000000001 3.534,-0.6090000000000001 c1.044,0 2.002,0.17400000000000002 2.873,0.522 c0.8700000000000001,0.3480000000000001 1.6070000000000002,0.8240000000000001 2.21,1.428 l-2.715,3.6900000000000004 c-0.3950000000000001,-0.32500000000000007 -0.7490000000000001,-0.546 -1.062,-0.6620000000000001 c-0.31300000000000006,-0.11500000000000002 -0.6330000000000001,-0.17400000000000002 -0.9580000000000001,-0.17400000000000002 c-1.114,0 -1.984,0.38900000000000007 -2.611,1.166 c-0.6260000000000001,0.778 -0.9400000000000001,1.828 -0.9400000000000001,3.151 s0.31900000000000006,2.373 0.9580000000000001,3.15 c0.6380000000000001,0.778 1.433,1.167 2.3850000000000002,1.167 c0.557,0 1.062,-0.11600000000000002 1.5150000000000001,-0.3490000000000001 c0.453,-0.231 0.8760000000000001,-0.48700000000000004 1.271,-0.7660000000000001 l2.367,3.7600000000000002 c-0.8820000000000001,0.7660000000000001 -1.851,1.3170000000000002 -2.907,1.6540000000000001 c-1.056,0.3360000000000001 -2.037,0.505 -2.942,0.505 c-1.23,0 -2.379,-0.20400000000000001 -3.447,-0.6090000000000001 c-1.068,-0.406 -1.9969999999999999,-0.998 -2.785,-1.776 c-0.79,-0.777 -1.4100000000000001,-1.734 -1.863,-2.872 C95.00285707473755,186.86557360839845 94.77685707473755,185.57657360839846 94.77685707473755,184.13757360839844 z" id="svg_18"/>
		<path fill="#1A1A1A" d="M111.97585707473755,175.43357360839843 h5.989 v9.957 c0,1.114 0.139,1.8570000000000002 0.41700000000000004,2.229 c0.279,0.37100000000000005 0.7190000000000001,0.557 1.323,0.557 c0.557,0 1.015,-0.11500000000000002 1.375,-0.3480000000000001 c0.36000000000000004,-0.231 0.7370000000000001,-0.6270000000000001 1.1320000000000001,-1.184 v-11.211 h5.9879999999999995 v17.408 h-4.875 l-0.41700000000000004,-2.298 h-0.139 c-0.6970000000000002,0.8350000000000001 -1.468,1.497 -2.315,1.984 c-0.8480000000000001,0.48700000000000004 -1.863,0.7310000000000001 -3.046,0.7310000000000001 c-0.9520000000000001,0 -1.771,-0.16900000000000004 -2.455,-0.505 c-0.6850000000000002,-0.3370000000000001 -1.248,-0.8130000000000001 -1.6880000000000002,-1.428 c-0.44100000000000006,-0.6150000000000001 -0.7660000000000001,-1.358 -0.975,-2.229 s-0.31300000000000006,-1.851 -0.31300000000000006,-2.941 V175.43357360839843 z" id="svg_19"/>
		<path fill="#1A1A1A" d="M132.23885707473755,175.43357360839843 h4.8740000000000006 l0.41800000000000004,2.124 h0.139 c0.6960000000000002,-0.6730000000000002 1.445,-1.266 2.246,-1.776 c0.801,-0.51 1.7930000000000001,-0.7660000000000001 2.977,-0.7660000000000001 c1.184,0 2.164,0.23800000000000002 2.942,0.7140000000000001 c0.777,0.47600000000000003 1.3980000000000001,1.166 1.862,2.071 c0.7190000000000001,-0.7420000000000001 1.497,-1.393 2.333,-1.949 c0.8350000000000001,-0.558 1.8450000000000002,-0.8360000000000001 3.029,-0.8360000000000001 c1.903,0 3.2960000000000003,0.6450000000000001 4.178,1.933 c0.8820000000000001,1.288 1.323,3.012 1.323,5.17 v10.724 h-5.9879999999999995 v-9.958 c0,-1.114 -0.139,-1.856 -0.41800000000000004,-2.228 c-0.278,-0.37100000000000005 -0.7200000000000001,-0.558 -1.323,-0.558 c-0.7430000000000001,0 -1.556,0.44100000000000006 -2.4370000000000003,1.323 v11.42 h-5.989 v-9.958 c0,-1.114 -0.139,-1.856 -0.41700000000000004,-2.228 c-0.279,-0.37100000000000005 -0.7200000000000001,-0.558 -1.323,-0.558 c-0.7430000000000001,0 -1.5550000000000002,0.44100000000000006 -2.4370000000000003,1.323 v11.42 h-5.9879999999999995 V175.43357360839843 z" id="svg_20"/>
		<path fill="#1A1A1A" d="M161.55385707473755,184.13757360839844 c0,-1.416 0.23800000000000002,-2.6870000000000003 0.7130000000000001,-3.813 s1.103,-2.083 1.8800000000000001,-2.872 c0.777,-0.789 1.665,-1.393 2.664,-1.811 c0.998,-0.41800000000000004 2.031,-0.6270000000000001 3.099,-0.6270000000000001 c1.276,0 2.39,0.22100000000000003 3.342,0.6610000000000001 c0.9510000000000001,0.44100000000000006 1.741,1.045 2.367,1.811 c0.6270000000000001,0.7670000000000001 1.097,1.6600000000000001 1.4100000000000001,2.681 c0.31300000000000006,1.022 0.47000000000000003,2.113 0.47000000000000003,3.273 c0,0.534 -0.029000000000000005,1.01 -0.08700000000000002,1.427 c-0.05900000000000001,0.41800000000000004 -0.11100000000000002,0.7310000000000001 -0.15700000000000003,0.9400000000000001 h-9.923 c0.279,1.114 0.777,1.8800000000000001 1.497,2.298 c0.7190000000000001,0.41800000000000004 1.5670000000000002,0.6270000000000001 2.542,0.6270000000000001 c0.6040000000000001,0 1.189,-0.08700000000000002 1.758,-0.262 c0.5680000000000001,-0.17400000000000002 1.167,-0.43500000000000005 1.7930000000000001,-0.783 l1.9500000000000002,3.552 c-0.9520000000000001,0.6730000000000002 -2.002,1.178 -3.151,1.5150000000000001 c-1.149,0.3360000000000001 -2.21,0.505 -3.186,0.505 c-1.2770000000000001,0 -2.46,-0.20400000000000001 -3.551,-0.6090000000000001 c-1.091,-0.406 -2.037,-0.998 -2.837,-1.776 c-0.801,-0.777 -1.4340000000000002,-1.734 -1.8970000000000002,-2.872 C161.78485707473754,186.86557360839845 161.55385707473755,185.57657360839846 161.55385707473755,184.13757360839844 zM172.41585707473754,182.18757360839845 c0,-0.7420000000000001 -0.16800000000000004,-1.369 -0.504,-1.8800000000000001 c-0.3370000000000001,-0.51 -0.9580000000000001,-0.7660000000000001 -1.863,-0.7660000000000001 c-0.6730000000000002,0 -1.259,0.19700000000000004 -1.758,0.5920000000000001 c-0.5,0.3950000000000001 -0.8420000000000001,1.079 -1.027,2.054 H172.41585707473754 z" id="svg_21"/>
		<path fill="#1A1A1A" d="M180.77185707473754,175.43357360839843 h4.8740000000000006 l0.41800000000000004,2.089 h0.139 c0.6960000000000002,-0.6730000000000002 1.491,-1.259 2.3850000000000002,-1.758 s1.933,-0.7490000000000001 3.116,-0.7490000000000001 c1.903,0 3.284,0.6450000000000001 4.143,1.933 c0.8580000000000001,1.288 1.288,3.012 1.288,5.17 v10.724 h-5.9879999999999995 v-9.958 c0,-1.114 -0.139,-1.856 -0.41800000000000004,-2.228 c-0.278,-0.37100000000000005 -0.7200000000000001,-0.558 -1.323,-0.558 c-0.557,0 -1.021,0.11600000000000002 -1.393,0.3490000000000001 c-0.37200000000000005,0.232 -0.79,0.557 -1.2530000000000001,0.975 v11.42 h-5.9879999999999995 V175.43357360839843 z" id="svg_22"/>
		<path fill="#1A1A1A" d="M201.79985707473756,180.09857360839845 h-2.298 v-4.456 l2.646,-0.20900000000000002 l0.6960000000000002,-4.526 h4.944 v4.526 h3.9690000000000003 v4.665 h-3.9690000000000003 v5.954 c0,0.975 0.20800000000000002,1.6420000000000001 0.6260000000000001,2.002 c0.41800000000000004,0.35900000000000004 0.905,0.539 1.462,0.539 c0.278,0 0.551,-0.028000000000000004 0.8180000000000001,-0.08700000000000002 c0.267,-0.05800000000000001 0.505,-0.12200000000000001 0.7140000000000001,-0.19100000000000003 l0.905,4.317 c-0.464,0.139 -1.021,0.278 -1.6710000000000003,0.41800000000000004 c-0.6500000000000001,0.139 -1.462,0.20900000000000002 -2.4370000000000003,0.20900000000000002 c-1.137,0 -2.106,-0.16900000000000004 -2.907,-0.505 c-0.801,-0.3370000000000001 -1.462,-0.8180000000000001 -1.984,-1.445 s-0.905,-1.375 -1.149,-2.245 c-0.24400000000000002,-0.8710000000000001 -0.36600000000000005,-1.84 -0.36600000000000005,-2.907 V180.09857360839845 z" id="svg_23"/>
	</g>
</g><g id="svg_24" class="">
	<g id="svg_25">
		<path fill="#1A1A1A" d="M54.84785707473755,98.05857360839843 h17.707 v6.07 H62.09985707473754 v4.301 h8.938 v6.07 h-8.938 v4.891 h10.877 v6.07 H54.84785707473755 V98.05857360839843 z" id="svg_26"/>
		<path fill="#1A1A1A" d="M76.76985707473754,114.92157360839843 c0,-1.714 0.24600000000000002,-3.261 0.7380000000000001,-4.638 c0.49200000000000005,-1.377 1.138,-2.536 1.939,-3.478 c0.801,-0.9410000000000001 1.721,-1.6660000000000001 2.761,-2.172 c1.04,-0.506 2.093,-0.7590000000000001 3.162,-0.7590000000000001 c1.1520000000000001,0 2.093,0.18900000000000003 2.824,0.5690000000000001 c0.7300000000000001,0.38000000000000006 1.419,0.8930000000000001 2.066,1.5390000000000001 l-0.253,-3.036 v-6.829 h7.251 v29.342 h-5.902 l-0.506,-1.939 H90.68285707473756 c-0.7310000000000001,0.7310000000000001 -1.5670000000000002,1.322 -2.508,1.771 c-0.9420000000000001,0.44900000000000007 -1.8760000000000001,0.6740000000000002 -2.803,0.6740000000000002 c-1.322,0 -2.509,-0.253 -3.563,-0.7590000000000001 c-1.054,-0.506 -1.9540000000000002,-1.236 -2.6980000000000004,-2.192 c-0.7450000000000001,-0.9550000000000001 -1.3210000000000002,-2.114 -1.729,-3.478 C76.97385707473755,118.17457360839842 76.76985707473754,116.63657360839846 76.76985707473754,114.92157360839843 zM84.18985707473755,114.83657360839845 c0,1.912 0.274,3.261 0.8220000000000001,4.048 c0.548,0.787 1.3130000000000002,1.18 2.297,1.18 c0.562,0 1.054,-0.10400000000000001 1.476,-0.31500000000000006 c0.42200000000000004,-0.21100000000000002 0.8290000000000001,-0.6110000000000001 1.223,-1.202 v-7.757 c-0.42100000000000004,-0.3940000000000001 -0.8850000000000001,-0.6600000000000001 -1.391,-0.801 s-0.998,-0.21100000000000002 -1.476,-0.21100000000000002 c-0.7590000000000001,0 -1.441,0.38000000000000006 -2.045,1.139 C84.49185707473755,111.67557360839845 84.18985707473755,112.98257360839841 84.18985707473755,114.83657360839845 z" id="svg_27"/>
		<path fill="#1A1A1A" d="M105.77485707473755,101.76857360839841 c-1.181,0 -2.15,-0.3380000000000001 -2.909,-1.012 c-0.7590000000000001,-0.6750000000000002 -1.139,-1.546 -1.139,-2.614 c0,-1.067 0.37900000000000006,-1.939 1.139,-2.613 c0.7590000000000001,-0.6750000000000002 1.7280000000000002,-1.013 2.909,-1.013 c1.18,0 2.15,0.3380000000000001 2.909,1.013 c0.7590000000000001,0.6740000000000002 1.139,1.546 1.139,2.613 c0,1.068 -0.37900000000000006,1.939 -1.139,2.614 C107.92485707473755,101.43057360839845 106.95485707473755,101.76857360839841 105.77485707473755,101.76857360839841 zM102.14885707473755,104.38157360839841 h7.251 v21.079 h-7.251 V104.38157360839841 z" id="svg_28"/>
		<path fill="#1A1A1A" d="M115.21785707473755,110.03157360839845 h-2.782 v-5.396 l3.204,-0.253 l0.8430000000000001,-5.48 h5.987 v5.48 h4.806 v5.649 h-4.806 v7.209 c0,1.181 0.253,1.9889999999999999 0.7590000000000001,2.424 c0.506,0.43700000000000006 1.096,0.6540000000000001 1.771,0.6540000000000001 c0.3370000000000001,0 0.6670000000000001,-0.035 0.991,-0.10500000000000001 c0.32300000000000006,-0.07 0.6110000000000001,-0.14800000000000002 0.8640000000000001,-0.232 l1.096,5.228 c-0.5630000000000001,0.16900000000000004 -1.237,0.3380000000000001 -2.023,0.506 c-0.788,0.16900000000000004 -1.771,0.253 -2.951,0.253 c-1.377,0 -2.551,-0.20400000000000001 -3.521,-0.6110000000000001 c-0.9690000000000001,-0.40700000000000003 -1.771,-0.99 -2.403,-1.749 s-1.096,-1.665 -1.391,-2.72 c-0.29500000000000004,-1.054 -0.44300000000000006,-2.227 -0.44300000000000006,-3.52 V110.03157360839845 z" id="svg_29"/>
		<path fill="#1A1A1A" d="M129.63585707473754,114.92157360839843 c0,-1.742 0.28800000000000003,-3.303 0.8640000000000001,-4.68 c0.5760000000000001,-1.377 1.3490000000000002,-2.536 2.319,-3.479 c0.9690000000000001,-0.9410000000000001 2.086,-1.657 3.352,-2.149 c1.2650000000000001,-0.49200000000000005 2.571,-0.7380000000000001 3.92,-0.7380000000000001 s2.649,0.24600000000000002 3.9,0.7380000000000001 c1.25,0.49200000000000005 2.361,1.208 3.331,2.149 c0.9690000000000001,0.9420000000000001 1.75,2.102 2.339,3.479 c0.5900000000000001,1.377 0.8860000000000001,2.938 0.8860000000000001,4.68 c0,1.743 -0.29500000000000004,3.303 -0.8860000000000001,4.68 c-0.5900000000000001,1.377 -1.37,2.536 -2.339,3.478 c-0.97,0.9420000000000001 -2.081,1.6590000000000003 -3.331,2.15 c-1.251,0.49100000000000005 -2.551,0.7370000000000001 -3.9,0.7370000000000001 s-2.656,-0.24600000000000002 -3.92,-0.7370000000000001 c-1.2650000000000001,-0.49100000000000005 -2.382,-1.208 -3.352,-2.15 c-0.97,-0.9410000000000001 -1.743,-2.101 -2.319,-3.478 C129.92385707473755,118.22457360839843 129.63585707473754,116.66457360839843 129.63585707473754,114.92157360839843 zM137.05585707473756,114.92157360839843 c0,1.602 0.232,2.874 0.6950000000000002,3.815 c0.464,0.9410000000000001 1.244,1.412 2.34,1.412 s1.8760000000000001,-0.47100000000000003 2.34,-1.412 s0.6960000000000002,-2.214 0.6960000000000002,-3.815 c0,-1.6030000000000002 -0.232,-2.874 -0.6960000000000002,-3.815 s-1.244,-1.412 -2.34,-1.412 s-1.8760000000000001,0.47100000000000003 -2.34,1.412 C137.28785707473756,112.04757360839847 137.05585707473756,113.31957360839846 137.05585707473756,114.92157360839843 z" id="svg_30"/>
		<path fill="#1A1A1A" d="M154.34085707473756,104.38157360839841 h5.902 l0.506,3.6260000000000003 h0.16900000000000004 c0.787,-1.4340000000000002 1.721,-2.48 2.803,-3.141 s2.143,-0.991 3.183,-0.991 c0.6460000000000001,0 1.166,0.036000000000000004 1.56,0.10500000000000001 c0.39300000000000007,0.07 0.7440000000000001,0.17600000000000002 1.054,0.31600000000000006 l-1.18,6.239 c-0.3940000000000001,-0.08400000000000002 -0.7660000000000001,-0.16100000000000003 -1.117,-0.231 c-0.35200000000000004,-0.07 -0.7660000000000001,-0.10500000000000001 -1.244,-0.10500000000000001 c-0.7590000000000001,0 -1.554,0.26 -2.382,0.779 c-0.8290000000000001,0.521 -1.497,1.441 -2.002,2.762 v11.72 h-7.251 V104.38157360839841 z" id="svg_31"/>
		<path fill="#1A1A1A" d="M175.58785707473754,101.76857360839841 c-1.181,0 -2.15,-0.3380000000000001 -2.909,-1.012 c-0.7590000000000001,-0.6750000000000002 -1.139,-1.546 -1.139,-2.614 c0,-1.067 0.37900000000000006,-1.939 1.139,-2.613 c0.7590000000000001,-0.6750000000000002 1.7280000000000002,-1.013 2.909,-1.013 c1.18,0 2.15,0.3380000000000001 2.909,1.013 c0.7590000000000001,0.6740000000000002 1.139,1.546 1.139,2.613 c0,1.068 -0.37900000000000006,1.939 -1.139,2.614 C177.73785707473755,101.43057360839845 176.76785707473755,101.76857360839841 175.58785707473754,101.76857360839841 zM171.96285707473754,104.38157360839841 h7.251 v21.079 h-7.251 V104.38157360839841 z" id="svg_32"/>
		<path fill="#1A1A1A" d="M183.42985707473755,119.47457360839843 c0,-2.192 0.8990000000000001,-3.9130000000000003 2.6980000000000004,-5.164 c1.798,-1.25 4.722,-2.087 8.769,-2.509 c-0.16900000000000004,-1.461 -1.153,-2.192 -2.951,-2.192 c-0.7590000000000001,0 -1.56,0.14700000000000002 -2.403,0.44300000000000006 c-0.8430000000000001,0.29500000000000004 -1.8130000000000002,0.7370000000000001 -2.909,1.327 l-2.529,-4.722 c1.489,-0.8980000000000001 2.993,-1.5870000000000002 4.511,-2.065 c1.518,-0.47800000000000004 3.105,-0.7170000000000001 4.764,-0.7170000000000001 c2.726,0 4.869,0.78 6.429,2.34 c1.56,1.56 2.34,4.068 2.34,7.525 v11.72 h-5.902 l-0.506,-2.023 h-0.16900000000000004 c-0.8430000000000001,0.7590000000000001 -1.7360000000000002,1.37 -2.677,1.834 c-0.9420000000000001,0.464 -1.9889999999999999,0.6950000000000002 -3.141,0.6950000000000002 c-0.984,0 -1.8690000000000002,-0.17600000000000002 -2.656,-0.526 c-0.787,-0.35200000000000004 -1.455,-0.8220000000000001 -2.002,-1.413 c-0.548,-0.5900000000000001 -0.9630000000000001,-1.278 -1.244,-2.065 C183.56985707473754,121.17557360839845 183.42985707473755,120.34657360839844 183.42985707473755,119.47457360839843 zM190.34385707473754,118.88457360839845 c0,1.012 0.6460000000000001,1.518 1.939,1.518 c0.5900000000000001,0 1.075,-0.133 1.454,-0.4 c0.37900000000000006,-0.267 0.7660000000000001,-0.6110000000000001 1.1600000000000001,-1.033 v-2.866 c-1.743,0.253 -2.938,0.6320000000000001 -3.583,1.138 C190.66585707473754,117.74557360839844 190.34385707473754,118.29357360839845 190.34385707473754,118.88457360839845 z" id="svg_33"/>
		<path fill="#1A1A1A" d="M206.95385707473756,96.11857360839844 h7.251 v22.175 c0,0.7310000000000001 0.133,1.223 0.4,1.476 s0.527,0.38000000000000006 0.78,0.38000000000000006 c0.14,0 0.259,0 0.35800000000000004,0 c0.09800000000000003,0 0.231,-0.028000000000000004 0.4,-0.08500000000000002 l0.8430000000000001,5.313 c-0.3940000000000001,0.16900000000000004 -0.8790000000000001,0.30900000000000005 -1.455,0.42200000000000004 c-0.5770000000000001,0.11100000000000002 -1.272,0.16800000000000004 -2.087,0.16800000000000004 c-1.237,0 -2.27,-0.18900000000000003 -3.099,-0.5690000000000001 c-0.8290000000000001,-0.37900000000000006 -1.497,-0.92 -2.002,-1.6230000000000002 c-0.506,-0.7020000000000001 -0.8640000000000001,-1.538 -1.075,-2.508 c-0.21000000000000002,-0.97 -0.31600000000000006,-2.045 -0.31600000000000006,-3.226 V96.11857360839844 z" id="svg_34"/>
	</g>
</g><g id="svg_35" class="">
	<path fill="#1A1A1A" d="M422.38885707473753,269.76957360839845 v-24.72 h9.505 c2.042,0 3.841,0.32500000000000007 5.396,0.975 c1.556,0.6500000000000001 2.854,1.532 3.899,2.646 s1.834,2.42 2.367,3.917 c0.534,1.497 0.801,3.093 0.801,4.787 c0,1.8800000000000001 -0.29500000000000004,3.58 -0.8870000000000001,5.101 s-1.4340000000000002,2.819 -2.525,3.899 c-1.091,1.079 -2.402,1.915 -3.934,2.507 s-3.238,0.8880000000000001 -5.118,0.8880000000000001 H422.38885707473753 zM437.46485707473755,257.37457360839846 c0,-0.9520000000000001 -0.129,-1.822 -0.38300000000000006,-2.611 c-0.256,-0.789 -0.6220000000000001,-1.463 -1.098,-2.02 s-1.062,-0.992 -1.758,-1.306 s-1.475,-0.47000000000000003 -2.333,-0.47000000000000003 h-2.716 v12.882 h2.716 c0.8820000000000001,0 1.6710000000000003,-0.16200000000000003 2.368,-0.48700000000000004 c0.6950000000000002,-0.32500000000000007 1.2810000000000001,-0.777 1.758,-1.358 c0.47600000000000003,-0.5790000000000001 0.8360000000000001,-1.2650000000000001 1.079,-2.054 S437.46485707473755,258.30357360839844 437.46485707473755,257.37457360839846 z" id="svg_36"/>
	<path fill="#1A1A1A" d="M447.3168570747375,269.76957360839845 v-24.72 h6.789 v24.72 H447.3168570747375 z" id="svg_37"/>
	<path fill="#1A1A1A" d="M475.13485707473757,267.71457360839844 c-1.7640000000000002,1.486 -3.795,2.229 -6.093,2.229 c-1.602,0 -3.134,-0.28400000000000003 -4.596,-0.8530000000000001 c-1.462,-0.5690000000000001 -2.739,-1.3980000000000001 -3.83,-2.49 c-1.091,-1.09 -1.9620000000000002,-2.425 -2.611,-4.004 c-0.6490000000000001,-1.578 -0.975,-3.3770000000000002 -0.975,-5.396 c0,-1.7400000000000002 0.32500000000000007,-3.359 0.975,-4.856 s1.544,-2.797 2.681,-3.899 s2.479,-1.9729999999999999 4.021,-2.611 c1.5430000000000001,-0.6380000000000001 3.209,-0.9570000000000001 4.996,-0.9570000000000001 c1.114,0 2.182,0.12100000000000001 3.203,0.36500000000000005 s1.967,0.6040000000000001 2.838,1.079 c0.8700000000000001,0.47700000000000004 1.6540000000000001,1.045 2.35,1.706 c0.6970000000000002,0.6620000000000001 1.266,1.4100000000000001 1.707,2.246 l-5.049,3.864 c-0.48800000000000004,-0.975 -1.219,-1.758 -2.193,-2.35 s-2.008,-0.8890000000000001 -3.1,-0.8890000000000001 c-0.8130000000000001,0 -1.5550000000000002,0.16300000000000003 -2.228,0.48800000000000004 s-1.2530000000000001,0.777 -1.741,1.357 c-0.48600000000000004,0.5800000000000001 -0.8700000000000001,1.271 -1.1480000000000001,2.071 c-0.279,0.801 -0.41800000000000004,1.6780000000000002 -0.41800000000000004,2.629 c0,0.975 0.139,1.8570000000000002 0.41800000000000004,2.646 c0.278,0.789 0.6670000000000001,1.468 1.166,2.036 c0.49900000000000005,0.5690000000000001 1.097,1.01 1.7930000000000001,1.323 c0.6970000000000002,0.31300000000000006 1.475,0.47000000000000003 2.333,0.47000000000000003 c1.9729999999999999,0 3.714,-0.812 5.222,-2.4370000000000003 h-4.281 v-4.875 h10.166 v13.161 h-5.605 V267.71457360839844 z" id="svg_38"/>
	<path fill="#1A1A1A" d="M484.08185707473757,269.76957360839845 v-24.72 h6.789 v24.72 H484.08185707473757 z" id="svg_39"/>
	<path fill="#1A1A1A" d="M514.3708570747375,250.96857360839846 h-7.102 v18.801 h-6.789 V250.96857360839846 H493.34285707473754 v-5.9190000000000005 h21.028 V250.96857360839846 z" id="svg_40"/>
	<path fill="#1A1A1A" d="M520.9868570747376,245.04957360839842 h6.197 l8.565,24.72 h-6.8950000000000005 l-1.496,-4.84 h-6.58 l-1.463,4.84 h-6.929 L520.9868570747376,245.04957360839842 zM526.2788570747375,260.40357360839846 l-2.193,-7.659 l-2.298,7.659 H526.2788570747375 z" id="svg_41"/>
	<path fill="#1A1A1A" d="M537.8028570747375,269.76957360839845 v-24.72 h6.789 v18.801 h11.211 v5.9190000000000005 H537.8028570747375 z" id="svg_42"/>
</g><g id="svg_43" class="">
	<path fill="#1A1A1A" d="M440.00585707473755,293.58957360839844 v5.9190000000000005 h-17.617 v-24.72 h17.304 v5.9190000000000005 h-10.515 v3.481 h8.982 v5.501 h-8.982 v3.899 H440.00585707473755 z" id="svg_44"/>
	<path fill="#1A1A1A" d="M448.01385707473753,274.78857360839845 l4.49,7.799 l4.492,-7.799 h7.311 l-8.251,12.534 l7.973,12.186 h-7.312 l-4.213,-7.45 l-4.213,7.45 h-7.346 l7.973,-12.186 l-8.251,-12.534 H448.01385707473753 z" id="svg_45"/>
	<path fill="#1A1A1A" d="M466.04885707473755,299.5085736083984 v-24.72 h10.652000000000001 c1.207,0 2.321,0.25 3.3440000000000003,0.7480000000000001 c1.021,0.5 1.8960000000000001,1.149 2.628,1.9500000000000002 s1.306,1.718 1.7240000000000002,2.7510000000000003 s0.6270000000000001,2.071 0.6270000000000001,3.115 c0,1.092 -0.19700000000000004,2.154 -0.5920000000000001,3.186 c-0.3960000000000001,1.033 -0.9470000000000001,1.9500000000000002 -1.6540000000000001,2.7510000000000003 c-0.7090000000000001,0.801 -1.566,1.439 -2.576,1.915 c-1.01,0.47700000000000004 -2.119,0.7140000000000001 -3.325,0.7140000000000001 h-4.038 v7.59 H466.04885707473755 zM472.83785707473754,285.99957360839846 h3.5860000000000003 c0.41800000000000004,0 0.806,-0.19100000000000003 1.166,-0.5740000000000001 c0.35900000000000004,-0.38300000000000006 0.539,-1.073 0.539,-2.072 c0,-1.021 -0.20900000000000002,-1.717 -0.6270000000000001,-2.088 c-0.41700000000000004,-0.37100000000000005 -0.8350000000000001,-0.558 -1.2530000000000001,-0.558 h-3.411 V285.99957360839846 z" id="svg_46"/>
	<path fill="#1A1A1A" d="M505.35485707473754,293.58957360839844 v5.9190000000000005 h-17.617 v-24.72 h17.303 v5.9190000000000005 h-10.514 v3.481 h8.982 v5.501 h-8.982 v3.899 H505.35485707473754 z" id="svg_47"/>
	<path fill="#1A1A1A" d="M508.52285707473754,299.5085736083984 v-24.72 h11.35 c1.207,0 2.3200000000000003,0.25 3.342,0.7480000000000001 c1.021,0.5 1.8980000000000001,1.149 2.629,1.9500000000000002 s1.306,1.718 1.7240000000000002,2.7510000000000003 c0.41700000000000004,1.033 0.6260000000000001,2.071 0.6260000000000001,3.115 c0,1.439 -0.31300000000000006,2.7800000000000002 -0.9390000000000001,4.021 c-0.6270000000000001,1.242 -1.497,2.258 -2.611,3.047 l5.223,9.087 h-7.66 l-4.352,-7.59 h-2.541 v7.59 H508.52285707473754 zM515.3118570747375,285.99957360839846 h4.281 c0.41800000000000004,0 0.807,-0.231 1.167,-0.6960000000000002 c0.35900000000000004,-0.464 0.54,-1.114 0.54,-1.9500000000000002 c0,-0.8570000000000001 -0.20900000000000002,-1.514 -0.6270000000000001,-1.967 c-0.41800000000000004,-0.452 -0.8360000000000001,-0.6790000000000002 -1.254,-0.6790000000000002 h-4.107 V285.99957360839846 z" id="svg_48"/>
	<path fill="#1A1A1A" d="M532.0228570747375,299.5085736083984 v-24.72 h6.789 v24.72 H532.0228570747375 z" id="svg_49"/>
	<path fill="#1A1A1A" d="M560.6758570747376,293.58957360839844 v5.9190000000000005 h-17.616 v-24.72 h17.304 v5.9190000000000005 h-10.515 v3.481 h8.982 v5.501 h-8.982 v3.899 H560.6758570747376 z" id="svg_50"/>
	<path fill="#1A1A1A" d="M570.6328570747376,287.3575736083984 v12.151 h-6.789 v-24.72 h5.293 l9.922,12.568 V274.78857360839845 h6.789 v24.72 h-5.396 L570.6328570747376,287.3575736083984 z" id="svg_51"/>
	<path fill="#1A1A1A" d="M588.7378570747376,286.93957360839846 c0,-1.508 0.28300000000000003,-2.9939999999999998 0.8530000000000001,-4.455 c0.5680000000000001,-1.463 1.397,-2.773 2.489,-3.936 c1.091,-1.1600000000000001 2.414,-2.1 3.9690000000000003,-2.819 s3.33,-1.079 5.327,-1.079 c2.39,0 4.462,0.49300000000000005 6.215,1.479 c1.7520000000000002,0.987 3.058,2.292 3.917,3.917 l-5.188,3.689 c-0.232,-0.6030000000000001 -0.54,-1.102 -0.924,-1.496 c-0.38300000000000006,-0.3950000000000001 -0.807,-0.7080000000000001 -1.27,-0.9400000000000001 c-0.465,-0.231 -0.9470000000000001,-0.3950000000000001 -1.445,-0.48700000000000004 c-0.5,-0.09200000000000003 -0.98,-0.139 -1.445,-0.139 c-0.975,0 -1.816,0.19100000000000003 -2.523,0.5740000000000001 c-0.7090000000000001,0.38300000000000006 -1.2890000000000001,0.8820000000000001 -1.741,1.496 c-0.452,0.6150000000000001 -0.79,1.3130000000000002 -1.01,2.09 c-0.22100000000000003,0.777 -0.33100000000000007,1.549 -0.33100000000000007,2.314 c0,0.8590000000000001 0.128,1.6840000000000002 0.38300000000000006,2.473 c0.256,0.789 0.6270000000000001,1.485 1.115,2.089 c0.48600000000000004,0.6040000000000001 1.084,1.085 1.7930000000000001,1.444 c0.7070000000000001,0.36100000000000004 1.502,0.54 2.3850000000000002,0.54 c0.464,0 0.9390000000000001,-0.05200000000000001 1.428,-0.15700000000000003 c0.48600000000000004,-0.10400000000000001 0.9570000000000001,-0.277 1.4100000000000001,-0.521 c0.451,-0.24400000000000002 0.8570000000000001,-0.557 1.218,-0.9390000000000001 c0.36000000000000004,-0.38400000000000006 0.6440000000000001,-0.8540000000000001 0.8530000000000001,-1.4100000000000001 l5.536,3.307 c-0.37200000000000005,0.906 -0.935,1.719 -1.6880000000000002,2.438 c-0.7540000000000001,0.7200000000000001 -1.613,1.323 -2.576,1.811 s-1.996,0.8590000000000001 -3.099,1.113 c-1.103,0.256 -2.177,0.38400000000000006 -3.221,0.38400000000000006 c-1.834,0 -3.511,-0.36600000000000005 -5.03,-1.097 c-1.521,-0.7310000000000001 -2.832,-1.7000000000000002 -3.936,-2.907 c-1.102,-1.206 -1.955,-2.577 -2.559,-4.108 S588.7378570747376,288.51957360839845 588.7378570747376,286.93957360839846 z" id="svg_52"/>
	<path fill="#1A1A1A" d="M631.7698570747375,293.58957360839844 v5.9190000000000005 h-17.616 v-24.72 h17.303 v5.9190000000000005 H620.9428570747375 v3.481 h8.982 v5.501 H620.9428570747375 v3.899 H631.7698570747375 z" id="svg_53"/>
</g><path fill="#1A1A1A" d="M529.9288570747375,125.89457360839845 c-0.015000000000000003,-0.07600000000000001 -0.04300000000000001,-0.14600000000000002 -0.06400000000000002,-0.22000000000000003 c-0.024000000000000004,-0.08300000000000002 -0.04300000000000001,-0.16600000000000004 -0.07600000000000001,-0.24700000000000003 c-0.037000000000000005,-0.08700000000000002 -0.08600000000000002,-0.16700000000000004 -0.132,-0.24900000000000003 c-0.03300000000000001,-0.06000000000000001 -0.06000000000000001,-0.12300000000000001 -0.09900000000000003,-0.18100000000000002 c-0.18300000000000002,-0.275 -0.41900000000000004,-0.511 -0.6930000000000002,-0.6940000000000002 c-0.05700000000000001,-0.038000000000000006 -0.11800000000000002,-0.06300000000000001 -0.17800000000000002,-0.09600000000000003 c-0.08300000000000002,-0.04700000000000001 -0.16400000000000003,-0.09700000000000003 -0.253,-0.134 c-0.07900000000000001,-0.03200000000000001 -0.16200000000000003,-0.05100000000000001 -0.24400000000000002,-0.07500000000000001 c-0.07400000000000001,-0.022000000000000006 -0.14500000000000002,-0.05100000000000001 -0.22200000000000003,-0.06600000000000002 c-0.16100000000000003,-0.03200000000000001 -0.32500000000000007,-0.04900000000000001 -0.48900000000000005,-0.04900000000000001 H506.96285707473754 c-1.381,0 -2.5,1.119 -2.5,2.5 s1.119,2.5 2.5,2.5 h14.48 l-49.732,49.732 c-0.977,0.977 -0.977,2.56 0,3.535 c0.48800000000000004,0.48800000000000004 1.1280000000000001,0.7320000000000001 1.7680000000000002,0.7320000000000001 s1.279,-0.24400000000000002 1.7680000000000002,-0.7320000000000001 l49.732,-49.732 v14.479 c0,1.381 1.119,2.5 2.5,2.5 s2.5,-1.119 2.5,-2.5 v-20.515 C529.9778570747376,126.21957360839843 529.9608570747375,126.05557360839845 529.9288570747375,125.89457360839845 z" id="svg_54" class=""/></g></svg>